%TF.GenerationSoftware,KiCad,Pcbnew,9.0.7*%
%TF.CreationDate,2026-03-29T09:04:21+05:00*%
%TF.ProjectId,RADAR_Main_Board,52414441-525f-44d6-9169-6e5f426f6172,rev?*%
%TF.SameCoordinates,Original*%
%TF.FileFunction,Glue,Top*%
%TF.FilePolarity,Positive*%
%FSLAX46Y46*%
G04 Gerber Fmt 4.6, Leading zero omitted, Abs format (unit mm)*
G04 Created by KiCad (PCBNEW 9.0.7) date 2026-03-29 09:04:21*
%MOMM*%
%LPD*%
G01*
G04 APERTURE LIST*
%ADD10C,0.000000*%
G04 APERTURE END LIST*
D10*
%TO.C,L7*%
G36*
X81261200Y-40013500D02*
G01*
X80461000Y-40013500D01*
X80461000Y-39613700D01*
X81261200Y-39613700D01*
X81261200Y-40013500D01*
G37*
%TO.C,C348*%
G36*
X168459003Y-210187938D02*
G01*
X167859003Y-210187938D01*
X167859003Y-209788138D01*
X168459003Y-209788138D01*
X168459003Y-210187938D01*
G37*
%TO.C,C321*%
G36*
X227931100Y34926500D02*
G01*
X227331100Y34926500D01*
X227331100Y35326300D01*
X227931100Y35326300D01*
X227931100Y34926500D01*
G37*
%TO.C,C335*%
G36*
X116731100Y-118623500D02*
G01*
X116131100Y-118623500D01*
X116131100Y-118223700D01*
X116731100Y-118223700D01*
X116731100Y-118623500D01*
G37*
%TO.C,C330*%
G36*
X120481200Y-28863700D02*
G01*
X119681000Y-28863700D01*
X119681000Y-28663500D01*
X120481200Y-28663500D01*
X120481200Y-28863700D01*
G37*
%TO.C,C159*%
G36*
X20151000Y-324753700D02*
G01*
X19751200Y-324753700D01*
X19751200Y-323953500D01*
X20151000Y-323953500D01*
X20151000Y-324753700D01*
G37*
%TO.C,C338*%
G36*
X175981200Y-216963700D02*
G01*
X175181000Y-216963700D01*
X175181000Y-216763500D01*
X175981200Y-216763500D01*
X175981200Y-216963700D01*
G37*
%TO.C,C347*%
G36*
X188778812Y-209991635D02*
G01*
X188178812Y-209991635D01*
X188178812Y-209591835D01*
X188778812Y-209591835D01*
X188778812Y-209991635D01*
G37*
%TO.C,C259*%
G36*
X121286365Y-225030666D02*
G01*
X120686365Y-225030666D01*
X120686365Y-224630866D01*
X121286365Y-224630866D01*
X121286365Y-225030666D01*
G37*
%TO.C,C311*%
G36*
X30631200Y-99063500D02*
G01*
X29831000Y-99063500D01*
X29831000Y-98663700D01*
X30631200Y-98663700D01*
X30631200Y-99063500D01*
G37*
%TO.C,C316*%
G36*
X190331200Y34086300D02*
G01*
X189531000Y34086300D01*
X189531000Y34286500D01*
X190331200Y34286500D01*
X190331200Y34086300D01*
G37*
%TO.C,C186*%
G36*
X25401000Y-330053600D02*
G01*
X25001200Y-330053600D01*
X25001200Y-329453600D01*
X25401000Y-329453600D01*
X25401000Y-330053600D01*
G37*
%TO.C,L19*%
G36*
X21951200Y-319353600D02*
G01*
X20951000Y-319353600D01*
X20951000Y-317353600D01*
X21951200Y-317353600D01*
X21951200Y-319353600D01*
G37*
%TO.C,L17*%
G36*
X50011200Y-218523600D02*
G01*
X49011000Y-218523600D01*
X49011000Y-216523600D01*
X50011200Y-216523600D01*
X50011200Y-218523600D01*
G37*
%TO.C,C78*%
G36*
X128791100Y-216663500D02*
G01*
X128191100Y-216663500D01*
X128191100Y-216263700D01*
X128791100Y-216263700D01*
X128791100Y-216663500D01*
G37*
%TO.C,C76*%
G36*
X62976100Y-217428932D02*
G01*
X62376100Y-217428932D01*
X62376100Y-217029132D01*
X62976100Y-217029132D01*
X62976100Y-217428932D01*
G37*
%TO.C,L15*%
G36*
X126536200Y-29858600D02*
G01*
X125536000Y-29858600D01*
X125536000Y-27858600D01*
X126536200Y-27858600D01*
X126536200Y-29858600D01*
G37*
%TO.C,C260*%
G36*
X118402087Y-209852344D02*
G01*
X117802087Y-209852344D01*
X117802087Y-209452544D01*
X118402087Y-209452544D01*
X118402087Y-209852344D01*
G37*
%TO.C,C320*%
G36*
X226041100Y34916500D02*
G01*
X225441100Y34916500D01*
X225441100Y35316300D01*
X226041100Y35316300D01*
X226041100Y34916500D01*
G37*
%TO.C,C341*%
G36*
X212926768Y-224575329D02*
G01*
X212526968Y-224575329D01*
X212526968Y-223975329D01*
X212926768Y-223975329D01*
X212926768Y-224575329D01*
G37*
%TO.C,C340*%
G36*
X212516284Y-222433957D02*
G01*
X212316084Y-222433957D01*
X212316084Y-221633757D01*
X212516284Y-221633757D01*
X212516284Y-222433957D01*
G37*
%TO.C,C266*%
G36*
X181591100Y-225293500D02*
G01*
X180991100Y-225293500D01*
X180991100Y-224893700D01*
X181591100Y-224893700D01*
X181591100Y-225293500D01*
G37*
%TO.C,C344*%
G36*
X138758231Y-209967754D02*
G01*
X138158231Y-209967754D01*
X138158231Y-209567954D01*
X138758231Y-209567954D01*
X138758231Y-209967754D01*
G37*
%TO.C,C331*%
G36*
X118306009Y-28555125D02*
G01*
X117706009Y-28555125D01*
X117706009Y-28155325D01*
X118306009Y-28155325D01*
X118306009Y-28555125D01*
G37*
%TO.C,R38*%
G36*
X74011100Y-104373500D02*
G01*
X73311100Y-104373500D01*
X73311100Y-103973700D01*
X74011100Y-103973700D01*
X74011100Y-104373500D01*
G37*
%TO.C,C350*%
G36*
X150659140Y-225143172D02*
G01*
X150059140Y-225143172D01*
X150059140Y-224743372D01*
X150659140Y-224743372D01*
X150659140Y-225143172D01*
G37*
%TO.C,C324*%
G36*
X224391100Y-176563500D02*
G01*
X223791100Y-176563500D01*
X223791100Y-176163700D01*
X224391100Y-176163700D01*
X224391100Y-176563500D01*
G37*
%TO.C,C349*%
G36*
X171421100Y-225283500D02*
G01*
X170821100Y-225283500D01*
X170821100Y-224883700D01*
X171421100Y-224883700D01*
X171421100Y-225283500D01*
G37*
%TO.C,C325*%
G36*
X226431100Y-176523500D02*
G01*
X225831100Y-176523500D01*
X225831100Y-176123700D01*
X226431100Y-176123700D01*
X226431100Y-176523500D01*
G37*
%TO.C,L12*%
G36*
X217361200Y33226400D02*
G01*
X216361000Y33226400D01*
X216361000Y35226400D01*
X217361200Y35226400D01*
X217361200Y33226400D01*
G37*
%TO.C,L5*%
G36*
X108035400Y-146383357D02*
G01*
X107635600Y-146383357D01*
X107635600Y-145583157D01*
X108035400Y-145583157D01*
X108035400Y-146383357D01*
G37*
%TO.C,L1*%
G36*
X36691200Y-98273600D02*
G01*
X35691000Y-98273600D01*
X35691000Y-96273600D01*
X36691200Y-96273600D01*
X36691200Y-98273600D01*
G37*
%TO.C,C332*%
G36*
X116587578Y-28555125D02*
G01*
X115987578Y-28555125D01*
X115987578Y-28155325D01*
X116587578Y-28155325D01*
X116587578Y-28555125D01*
G37*
%TO.C,L16*%
G36*
X126101200Y-118983600D02*
G01*
X125101000Y-118983600D01*
X125101000Y-116983600D01*
X126101200Y-116983600D01*
X126101200Y-118983600D01*
G37*
%TO.C,C327*%
G36*
X185491100Y-177093500D02*
G01*
X184891100Y-177093500D01*
X184891100Y-176693700D01*
X185491100Y-176693700D01*
X185491100Y-177093500D01*
G37*
%TO.C,C322*%
G36*
X201881200Y-177513500D02*
G01*
X201081000Y-177513500D01*
X201081000Y-177113700D01*
X201881200Y-177113700D01*
X201881200Y-177513500D01*
G37*
%TO.C,C351*%
G36*
X178625809Y-210091635D02*
G01*
X178025809Y-210091635D01*
X178025809Y-209691835D01*
X178625809Y-209691835D01*
X178625809Y-210091635D01*
G37*
%TO.C,C262*%
G36*
X108499637Y-209935882D02*
G01*
X107899637Y-209935882D01*
X107899637Y-209536082D01*
X108499637Y-209536082D01*
X108499637Y-209935882D01*
G37*
%TO.C,L11*%
G36*
X196851200Y33216400D02*
G01*
X195851000Y33216400D01*
X195851000Y35216400D01*
X196851200Y35216400D01*
X196851200Y33216400D01*
G37*
%TO.C,C58*%
G36*
X73901100Y-120233500D02*
G01*
X73301100Y-120233500D01*
X73301100Y-119833700D01*
X73901100Y-119833700D01*
X73901100Y-120233500D01*
G37*
%TO.C,R13*%
G36*
X76641100Y-104503500D02*
G01*
X75941100Y-104503500D01*
X75941100Y-104103700D01*
X76641100Y-104103700D01*
X76641100Y-104503500D01*
G37*
%TO.C,C258*%
G36*
X131291100Y-225143500D02*
G01*
X130691100Y-225143500D01*
X130691100Y-224743700D01*
X131291100Y-224743700D01*
X131291100Y-225143500D01*
G37*
%TO.C,C342*%
G36*
X111019753Y-225067825D02*
G01*
X110419753Y-225067825D01*
X110419753Y-224668025D01*
X111019753Y-224668025D01*
X111019753Y-225067825D01*
G37*
%TO.C,C283*%
G36*
X26801000Y-231203700D02*
G01*
X26401200Y-231203700D01*
X26401200Y-230403500D01*
X26801000Y-230403500D01*
X26801000Y-231203700D01*
G37*
%TO.C,C318*%
G36*
X186181100Y34526500D02*
G01*
X185581100Y34526500D01*
X185581100Y34926300D01*
X186181100Y34926300D01*
X186181100Y34526500D01*
G37*
%TO.C,C314*%
G36*
X45950318Y-98276057D02*
G01*
X45350318Y-98276057D01*
X45350318Y-97876257D01*
X45950318Y-97876257D01*
X45950318Y-98276057D01*
G37*
%TO.C,R1*%
G36*
X78081100Y-104493500D02*
G01*
X77381100Y-104493500D01*
X77381100Y-104093700D01*
X78081100Y-104093700D01*
X78081100Y-104493500D01*
G37*
%TO.C,C3*%
G36*
X77311000Y-102713600D02*
G01*
X76911200Y-102713600D01*
X76911200Y-102113600D01*
X77311000Y-102113600D01*
X77311000Y-102713600D01*
G37*
%TO.C,C334*%
G36*
X117991100Y-118603500D02*
G01*
X117391100Y-118603500D01*
X117391100Y-118203700D01*
X117991100Y-118203700D01*
X117991100Y-118603500D01*
G37*
%TO.C,C264*%
G36*
X158202312Y-210206429D02*
G01*
X157602312Y-210206429D01*
X157602312Y-209806629D01*
X158202312Y-209806629D01*
X158202312Y-210206429D01*
G37*
%TO.C,L14*%
G36*
X194521200Y-176183600D02*
G01*
X193521000Y-176183600D01*
X193521000Y-174183600D01*
X194521200Y-174183600D01*
X194521200Y-176183600D01*
G37*
%TO.C,C313*%
G36*
X44241100Y-98273500D02*
G01*
X43641100Y-98273500D01*
X43641100Y-97873700D01*
X44241100Y-97873700D01*
X44241100Y-98273500D01*
G37*
%TO.C,C57*%
G36*
X81141100Y-120253500D02*
G01*
X80541100Y-120253500D01*
X80541100Y-119853700D01*
X81141100Y-119853700D01*
X81141100Y-120253500D01*
G37*
%TO.C,C343*%
G36*
X100826096Y-224943507D02*
G01*
X100226096Y-224943507D01*
X100226096Y-224543707D01*
X100826096Y-224543707D01*
X100826096Y-224943507D01*
G37*
%TO.C,L6*%
G36*
X86336200Y-39978500D02*
G01*
X85536000Y-39978500D01*
X85536000Y-39578700D01*
X86336200Y-39578700D01*
X86336200Y-39978500D01*
G37*
%TO.C,C317*%
G36*
X187991100Y34546500D02*
G01*
X187391100Y34546500D01*
X187391100Y34946300D01*
X187991100Y34946300D01*
X187991100Y34546500D01*
G37*
%TO.C,C323*%
G36*
X221981200Y-176863700D02*
G01*
X221181000Y-176863700D01*
X221181000Y-176663500D01*
X221981200Y-176663500D01*
X221981200Y-176863700D01*
G37*
%TO.C,C184*%
G36*
X25301200Y-324753700D02*
G01*
X25101000Y-324753700D01*
X25101000Y-323953500D01*
X25301200Y-323953500D01*
X25301200Y-324753700D01*
G37*
%TO.C,L21*%
G36*
X133771200Y-190983600D02*
G01*
X132771000Y-190983600D01*
X132771000Y-188983600D01*
X133771200Y-188983600D01*
X133771200Y-190983600D01*
G37*
%TO.C,C337*%
G36*
X58491100Y-217483500D02*
G01*
X57891100Y-217483500D01*
X57891100Y-217083700D01*
X58491100Y-217083700D01*
X58491100Y-217483500D01*
G37*
%TO.C,C339*%
G36*
X178476565Y-216637600D02*
G01*
X177876565Y-216637600D01*
X177876565Y-216237800D01*
X178476565Y-216237800D01*
X178476565Y-216637600D01*
G37*
%TO.C,C345*%
G36*
X128337862Y-209867754D02*
G01*
X127737862Y-209867754D01*
X127737862Y-209467954D01*
X128337862Y-209467954D01*
X128337862Y-209867754D01*
G37*
%TO.C,C77*%
G36*
X126281200Y-217013700D02*
G01*
X125481000Y-217013700D01*
X125481000Y-216813500D01*
X126281200Y-216813500D01*
X126281200Y-217013700D01*
G37*
%TO.C,L23*%
G36*
X145841200Y-191023600D02*
G01*
X144841000Y-191023600D01*
X144841000Y-189023600D01*
X145841200Y-189023600D01*
X145841200Y-191023600D01*
G37*
%TO.C,C312*%
G36*
X42131200Y-98613700D02*
G01*
X41331000Y-98613700D01*
X41331000Y-98413500D01*
X42131200Y-98413500D01*
X42131200Y-98613700D01*
G37*
%TO.C,C328*%
G36*
X183731100Y-177123500D02*
G01*
X183131100Y-177123500D01*
X183131100Y-176723700D01*
X183731100Y-176723700D01*
X183731100Y-177123500D01*
G37*
%TO.C,C75*%
G36*
X60881200Y-217663700D02*
G01*
X60081000Y-217663700D01*
X60081000Y-217463500D01*
X60881200Y-217463500D01*
X60881200Y-217663700D01*
G37*
%TO.C,C346*%
G36*
X161378325Y-225193172D02*
G01*
X160778325Y-225193172D01*
X160778325Y-224793372D01*
X161378325Y-224793372D01*
X161378325Y-225193172D01*
G37*
%TO.C,C336*%
G36*
X56381200Y-217713700D02*
G01*
X55581000Y-217713700D01*
X55581000Y-217513500D01*
X56381200Y-217513500D01*
X56381200Y-217713700D01*
G37*
%TO.C,C185*%
G36*
X19151000Y-330053600D02*
G01*
X18751200Y-330053600D01*
X18751200Y-329453600D01*
X19151000Y-329453600D01*
X19151000Y-330053600D01*
G37*
%TO.C,C326*%
G36*
X187931200Y-177363700D02*
G01*
X187131000Y-177363700D01*
X187131000Y-177163500D01*
X187931200Y-177163500D01*
X187931200Y-177363700D01*
G37*
%TO.C,C329*%
G36*
X28681200Y-242563500D02*
G01*
X27881000Y-242563500D01*
X27881000Y-242163700D01*
X28681200Y-242163700D01*
X28681200Y-242563500D01*
G37*
%TO.C,R37*%
G36*
X72511000Y-102363600D02*
G01*
X72111200Y-102363600D01*
X72111200Y-101663600D01*
X72511000Y-101663600D01*
X72511000Y-102363600D01*
G37*
%TO.C,C315*%
G36*
X210821200Y31456500D02*
G01*
X210021000Y31456500D01*
X210021000Y31856300D01*
X210821200Y31856300D01*
X210821200Y31456500D01*
G37*
%TO.C,R36*%
G36*
X72531000Y-101003600D02*
G01*
X72131200Y-101003600D01*
X72131200Y-100303600D01*
X72531000Y-100303600D01*
X72531000Y-101003600D01*
G37*
%TO.C,C49*%
G36*
X73421100Y-111813500D02*
G01*
X72821100Y-111813500D01*
X72821100Y-111413700D01*
X73421100Y-111413700D01*
X73421100Y-111813500D01*
G37*
%TO.C,C319*%
G36*
X223731200Y34436300D02*
G01*
X222931000Y34436300D01*
X222931000Y34636500D01*
X223731200Y34636500D01*
X223731200Y34436300D01*
G37*
%TO.C,C48*%
G36*
X81351100Y-111863500D02*
G01*
X80751100Y-111863500D01*
X80751100Y-111463700D01*
X81351100Y-111463700D01*
X81351100Y-111863500D01*
G37*
%TO.C,C333*%
G36*
X119881200Y-119063700D02*
G01*
X119081000Y-119063700D01*
X119081000Y-118863500D01*
X119881200Y-118863500D01*
X119881200Y-119063700D01*
G37*
%TO.C,L18*%
G36*
X139121200Y-249523600D02*
G01*
X138121000Y-249523600D01*
X138121000Y-247523600D01*
X139121200Y-247523600D01*
X139121200Y-249523600D01*
G37*
%TO.C,L13*%
G36*
X215971200Y-176773600D02*
G01*
X214971000Y-176773600D01*
X214971000Y-174773600D01*
X215971200Y-174773600D01*
X215971200Y-176773600D01*
G37*
%TD*%
M02*
