%TF.GenerationSoftware,KiCad,Pcbnew,9.0.7*%
%TF.CreationDate,2026-03-29T09:04:21+05:00*%
%TF.ProjectId,RADAR_Main_Board,52414441-525f-44d6-9169-6e5f426f6172,rev?*%
%TF.SameCoordinates,Original*%
%TF.FileFunction,Soldermask,Top*%
%TF.FilePolarity,Negative*%
%FSLAX46Y46*%
G04 Gerber Fmt 4.6, Leading zero omitted, Abs format (unit mm)*
G04 Created by KiCad (PCBNEW 9.0.7) date 2026-03-29 09:04:21*
%MOMM*%
%LPD*%
G01*
G04 APERTURE LIST*
G04 Aperture macros list*
%AMRoundRect*
0 Rectangle with rounded corners*
0 $1 Rounding radius*
0 $2 $3 $4 $5 $6 $7 $8 $9 X,Y pos of 4 corners*
0 Add a 4 corners polygon primitive as box body*
4,1,4,$2,$3,$4,$5,$6,$7,$8,$9,$2,$3,0*
0 Add four circle primitives for the rounded corners*
1,1,$1+$1,$2,$3*
1,1,$1+$1,$4,$5*
1,1,$1+$1,$6,$7*
1,1,$1+$1,$8,$9*
0 Add four rect primitives between the rounded corners*
20,1,$1+$1,$2,$3,$4,$5,0*
20,1,$1+$1,$4,$5,$6,$7,0*
20,1,$1+$1,$6,$7,$8,$9,0*
20,1,$1+$1,$8,$9,$2,$3,0*%
%AMFreePoly0*
4,1,17,0.351552,0.797921,0.797921,0.351552,0.812800,0.315631,0.812800,-0.315631,0.797921,-0.351552,0.351552,-0.797921,0.315631,-0.812800,-0.315631,-0.812800,-0.351552,-0.797921,-0.797921,-0.351552,-0.812800,-0.315631,-0.812800,0.315631,-0.797921,0.351552,-0.351552,0.797921,-0.315631,0.812800,0.315631,0.812800,0.351552,0.797921,0.351552,0.797921,$1*%
G04 Aperture macros list end*
%ADD10C,2.540000*%
%ADD11C,0.000000*%
%ADD12O,3.149600X1.625600*%
%ADD13RoundRect,0.050800X-0.215000X0.140000X-0.215000X-0.140000X0.215000X-0.140000X0.215000X0.140000X0*%
%ADD14RoundRect,0.050800X-0.098995X-0.254558X0.254558X0.098995X0.098995X0.254558X-0.254558X-0.098995X0*%
%ADD15RoundRect,0.050800X0.254558X-0.098995X-0.098995X0.254558X-0.254558X0.098995X0.098995X-0.254558X0*%
%ADD16RoundRect,0.050800X0.000000X-1.088944X1.088944X0.000000X0.000000X1.088944X-1.088944X0.000000X0*%
%ADD17RoundRect,0.050800X0.450000X-0.350000X0.450000X0.350000X-0.450000X0.350000X-0.450000X-0.350000X0*%
%ADD18RoundRect,0.050800X-0.212132X-0.035355X-0.035355X-0.212132X0.212132X0.035355X0.035355X0.212132X0*%
%ADD19RoundRect,0.050800X0.161645X0.700460X-0.700460X-0.161645X-0.161645X-0.700460X0.700460X0.161645X0*%
%ADD20RoundRect,0.050800X-0.140000X-0.215000X0.140000X-0.215000X0.140000X0.215000X-0.140000X0.215000X0*%
%ADD21RoundRect,0.050800X-0.450000X0.350000X-0.450000X-0.350000X0.450000X-0.350000X0.450000X0.350000X0*%
%ADD22RoundRect,0.050800X0.053882X-0.305329X0.305329X-0.053882X-0.053882X0.305329X-0.305329X0.053882X0*%
%ADD23RoundRect,0.050800X-0.305329X-0.053882X-0.053882X-0.305329X0.305329X0.053882X0.053882X0.305329X0*%
%ADD24RoundRect,0.050800X2.334867X0.000000X0.000000X2.334867X-2.334867X0.000000X0.000000X-2.334867X0*%
%ADD25RoundRect,0.050800X0.212132X0.035355X0.035355X0.212132X-0.212132X-0.035355X-0.035355X-0.212132X0*%
%ADD26RoundRect,0.330300X0.000000X-0.000014X0.000014X0.000000X0.000000X0.000014X-0.000014X0.000000X0*%
%ADD27C,1.892600*%
%ADD28RoundRect,0.050800X0.035355X-0.212132X0.212132X-0.035355X-0.035355X0.212132X-0.212132X0.035355X0*%
%ADD29RoundRect,0.050800X-0.035355X0.212132X-0.212132X0.035355X0.035355X-0.212132X0.212132X-0.035355X0*%
%ADD30RoundRect,0.050800X0.140000X0.215000X-0.140000X0.215000X-0.140000X-0.215000X0.140000X-0.215000X0*%
%ADD31RoundRect,0.050800X0.700000X0.225000X-0.700000X0.225000X-0.700000X-0.225000X0.700000X-0.225000X0*%
%ADD32RoundRect,0.050800X-0.750000X0.650000X-0.750000X-0.650000X0.750000X-0.650000X0.750000X0.650000X0*%
%ADD33RoundRect,0.050800X-0.175000X0.125000X-0.175000X-0.125000X0.175000X-0.125000X0.175000X0.125000X0*%
%ADD34RoundRect,0.050800X-0.800000X-0.900000X0.800000X-0.900000X0.800000X0.900000X-0.800000X0.900000X0*%
%ADD35RoundRect,0.050800X-0.125000X-0.175000X0.125000X-0.175000X0.125000X0.175000X-0.125000X0.175000X0*%
%ADD36RoundRect,0.050800X0.215000X-0.140000X0.215000X0.140000X-0.215000X0.140000X-0.215000X-0.140000X0*%
%ADD37RoundRect,0.050800X0.175000X-0.125000X0.175000X0.125000X-0.175000X0.125000X-0.175000X-0.125000X0*%
%ADD38RoundRect,0.050800X0.125000X0.175000X-0.125000X0.175000X-0.125000X-0.175000X0.125000X-0.175000X0*%
%ADD39RoundRect,0.050800X0.500000X-0.450000X0.500000X0.450000X-0.500000X0.450000X-0.500000X-0.450000X0*%
%ADD40C,3.200000*%
%ADD41RoundRect,0.050800X0.098995X0.254558X-0.254558X-0.098995X-0.098995X-0.254558X0.254558X0.098995X0*%
%ADD42RoundRect,0.050800X-0.254558X0.098995X0.098995X-0.254558X0.254558X-0.098995X-0.098995X0.254558X0*%
%ADD43RoundRect,0.050800X0.000000X1.088944X-1.088944X0.000000X0.000000X-1.088944X1.088944X0.000000X0*%
%ADD44O,3.101600X1.601600*%
%ADD45O,1.601600X3.101600*%
%ADD46RoundRect,0.050800X0.700460X-0.161645X-0.161645X0.700460X-0.700460X0.161645X0.161645X-0.700460X0*%
%ADD47RoundRect,0.050800X-0.900000X0.800000X-0.900000X-0.800000X0.900000X-0.800000X0.900000X0.800000X0*%
%ADD48RoundRect,0.050800X-0.053882X0.305329X-0.305329X0.053882X0.053882X-0.305329X0.305329X-0.053882X0*%
%ADD49RoundRect,0.050800X0.000000X-2.334867X2.334867X0.000000X0.000000X2.334867X-2.334867X0.000000X0*%
%ADD50RoundRect,0.050800X-0.110000X0.250000X-0.110000X-0.250000X0.110000X-0.250000X0.110000X0.250000X0*%
%ADD51RoundRect,0.050800X-0.250000X-0.110000X0.250000X-0.110000X0.250000X0.110000X-0.250000X0.110000X0*%
%ADD52RoundRect,0.050800X-0.770000X0.770000X-0.770000X-0.770000X0.770000X-0.770000X0.770000X0.770000X0*%
%ADD53O,1.625600X3.149600*%
%ADD54FreePoly0,90.000000*%
%ADD55RoundRect,0.050800X-0.350000X-0.450000X0.350000X-0.450000X0.350000X0.450000X-0.350000X0.450000X0*%
%ADD56C,0.900000*%
%ADD57RoundRect,0.050800X-1.550000X-0.250000X1.550000X-0.250000X1.550000X0.250000X-1.550000X0.250000X0*%
%ADD58RoundRect,0.050800X-1.250000X-1.000000X1.250000X-1.000000X1.250000X1.000000X-1.250000X1.000000X0*%
%ADD59RoundRect,0.050800X-1.650000X-1.000000X1.650000X-1.000000X1.650000X1.000000X-1.650000X1.000000X0*%
%ADD60RoundRect,0.050800X-0.900000X-2.000000X0.900000X-2.000000X0.900000X2.000000X-0.900000X2.000000X0*%
%ADD61RoundRect,0.177800X0.279400X0.000010X-0.279400X0.000010X-0.279400X-0.000010X0.279400X-0.000010X0*%
%ADD62RoundRect,0.177800X0.000010X-0.279400X0.000010X0.279400X-0.000010X0.279400X-0.000010X-0.279400X0*%
%ADD63C,1.101600*%
%ADD64C,1.466600*%
%ADD65RoundRect,0.050800X-0.838200X-0.177800X0.838200X-0.177800X0.838200X0.177800X-0.838200X0.177800X0*%
%ADD66RoundRect,0.165240X-0.385560X-0.385560X0.385560X-0.385560X0.385560X0.385560X-0.385560X0.385560X0*%
%ADD67RoundRect,0.050800X-0.425000X0.140000X-0.425000X-0.140000X0.425000X-0.140000X0.425000X0.140000X0*%
%ADD68RoundRect,0.050800X0.140000X0.425000X-0.140000X0.425000X-0.140000X-0.425000X0.140000X-0.425000X0*%
%ADD69RoundRect,0.050800X-1.350000X-1.350000X1.350000X-1.350000X1.350000X1.350000X-1.350000X1.350000X0*%
%ADD70C,0.609600*%
%ADD71RoundRect,0.050800X-0.161645X-0.700460X0.700460X0.161645X0.161645X0.700460X-0.700460X-0.161645X0*%
%ADD72RoundRect,0.050800X0.736600X-0.139700X0.736600X0.139700X-0.736600X0.139700X-0.736600X-0.139700X0*%
%ADD73RoundRect,0.050800X-0.139700X-0.736600X0.139700X-0.736600X0.139700X0.736600X-0.139700X0.736600X0*%
%ADD74RoundRect,0.050800X0.305329X0.053882X0.053882X0.305329X-0.305329X-0.053882X-0.053882X-0.305329X0*%
%ADD75RoundRect,0.050800X-2.334867X0.000000X0.000000X-2.334867X2.334867X0.000000X0.000000X2.334867X0*%
%ADD76RoundRect,0.050800X0.124600X0.402400X-0.124600X0.402400X-0.124600X-0.402400X0.124600X-0.402400X0*%
%ADD77RoundRect,0.050800X0.402400X-0.124600X0.402400X0.124600X-0.402400X0.124600X-0.402400X-0.124600X0*%
%ADD78RoundRect,0.050800X-2.500000X2.500000X-2.500000X-2.500000X2.500000X-2.500000X2.500000X2.500000X0*%
%ADD79RoundRect,0.050800X0.900000X2.000000X-0.900000X2.000000X-0.900000X-2.000000X0.900000X-2.000000X0*%
%ADD80RoundRect,0.330300X-0.000010X-0.000010X0.000010X-0.000010X0.000010X0.000010X-0.000010X0.000010X0*%
%ADD81RoundRect,0.050800X-0.084650X-0.084650X0.084650X-0.084650X0.084650X0.084650X-0.084650X0.084650X0*%
%ADD82RoundRect,0.050800X-0.700000X-0.225000X0.700000X-0.225000X0.700000X0.225000X-0.700000X0.225000X0*%
%ADD83RoundRect,0.050800X0.350000X0.450000X-0.350000X0.450000X-0.350000X-0.450000X0.350000X-0.450000X0*%
%ADD84RoundRect,0.050800X0.650000X0.750000X-0.650000X0.750000X-0.650000X-0.750000X0.650000X-0.750000X0*%
%ADD85RoundRect,0.050800X0.177800X-0.838200X0.177800X0.838200X-0.177800X0.838200X-0.177800X-0.838200X0*%
%ADD86RoundRect,0.050800X-1.088944X0.000000X0.000000X-1.088944X1.088944X0.000000X0.000000X1.088944X0*%
%ADD87RoundRect,0.050800X-0.406400X0.101600X-0.406400X-0.101600X0.406400X-0.101600X0.406400X0.101600X0*%
%ADD88RoundRect,0.050800X0.101600X0.406400X-0.101600X0.406400X-0.101600X-0.406400X0.101600X-0.406400X0*%
%ADD89RoundRect,0.050800X-3.035300X-3.276600X3.035300X-3.276600X3.035300X3.276600X-3.035300X3.276600X0*%
%ADD90RoundRect,0.330300X0.000014X0.000000X0.000000X0.000014X-0.000014X0.000000X0.000000X-0.000014X0*%
%ADD91RoundRect,0.050800X0.350000X-0.300000X0.350000X0.300000X-0.350000X0.300000X-0.350000X-0.300000X0*%
%ADD92RoundRect,0.330300X0.000000X0.000014X-0.000014X0.000000X0.000000X-0.000014X0.000014X0.000000X0*%
%ADD93RoundRect,0.050800X0.355600X-0.088900X0.355600X0.088900X-0.355600X0.088900X-0.355600X-0.088900X0*%
%ADD94RoundRect,0.050800X-0.088900X-0.355600X0.088900X-0.355600X0.088900X0.355600X-0.088900X0.355600X0*%
%ADD95RoundRect,0.050800X1.803400X1.803400X-1.803400X1.803400X-1.803400X-1.803400X1.803400X-1.803400X0*%
%ADD96RoundRect,0.050800X-0.700460X0.161645X0.161645X-0.700460X0.700460X-0.161645X-0.161645X0.700460X0*%
%ADD97RoundRect,0.050800X-2.120900X-1.625600X2.120900X-1.625600X2.120900X1.625600X-2.120900X1.625600X0*%
%ADD98RoundRect,0.050800X-0.127000X-0.127000X0.127000X-0.127000X0.127000X0.127000X-0.127000X0.127000X0*%
%ADD99RoundRect,0.050800X-0.350000X0.300000X-0.350000X-0.300000X0.350000X-0.300000X0.350000X0.300000X0*%
%ADD100RoundRect,0.050800X-0.127000X-0.406400X0.127000X-0.406400X0.127000X0.406400X-0.127000X0.406400X0*%
%ADD101RoundRect,0.050800X-0.406400X0.127000X-0.406400X-0.127000X0.406400X-0.127000X0.406400X0.127000X0*%
%ADD102RoundRect,0.050800X0.825500X-0.825500X0.825500X0.825500X-0.825500X0.825500X-0.825500X-0.825500X0*%
%ADD103RoundRect,0.050800X0.000000X2.334867X-2.334867X0.000000X0.000000X-2.334867X2.334867X0.000000X0*%
%ADD104FreePoly0,180.000000*%
%ADD105RoundRect,0.050800X-1.193800X0.647700X-1.193800X-0.647700X1.193800X-0.647700X1.193800X0.647700X0*%
%ADD106RoundRect,0.050800X1.088944X0.000000X0.000000X1.088944X-1.088944X0.000000X0.000000X-1.088944X0*%
%ADD107RoundRect,0.050800X0.279400X-0.990600X0.279400X0.990600X-0.279400X0.990600X-0.279400X-0.990600X0*%
%ADD108RoundRect,0.050800X0.800100X-0.584200X0.800100X0.584200X-0.800100X0.584200X-0.800100X-0.584200X0*%
%ADD109RoundRect,0.050800X2.120900X1.625600X-2.120900X1.625600X-2.120900X-1.625600X2.120900X-1.625600X0*%
%ADD110RoundRect,0.050800X0.127000X0.127000X-0.127000X0.127000X-0.127000X-0.127000X0.127000X-0.127000X0*%
%ADD111RoundRect,0.177800X-0.279400X-0.000010X0.279400X-0.000010X0.279400X0.000010X-0.279400X0.000010X0*%
%ADD112RoundRect,0.177800X-0.000010X0.279400X-0.000010X-0.279400X0.000010X-0.279400X0.000010X0.279400X0*%
%ADD113RoundRect,0.050800X-0.381000X0.609600X-0.381000X-0.609600X0.381000X-0.609600X0.381000X0.609600X0*%
%ADD114RoundRect,0.050800X-0.650000X-0.750000X0.650000X-0.750000X0.650000X0.750000X-0.650000X0.750000X0*%
%ADD115RoundRect,0.215900X0.000010X0.000010X-0.000010X0.000010X-0.000010X-0.000010X0.000010X-0.000010X0*%
%ADD116RoundRect,0.275800X-0.000010X-0.000010X0.000010X-0.000010X0.000010X0.000010X-0.000010X0.000010X0*%
%ADD117RoundRect,0.050800X0.084650X0.084650X-0.084650X0.084650X-0.084650X-0.084650X0.084650X-0.084650X0*%
%ADD118RoundRect,0.050800X-0.300000X-0.350000X0.300000X-0.350000X0.300000X0.350000X-0.300000X0.350000X0*%
%ADD119RoundRect,0.050800X0.900000X-0.800000X0.900000X0.800000X-0.900000X0.800000X-0.900000X-0.800000X0*%
%ADD120FreePoly0,270.000000*%
%ADD121RoundRect,0.050800X0.300000X0.350000X-0.300000X0.350000X-0.300000X-0.350000X0.300000X-0.350000X0*%
%ADD122RoundRect,0.050800X-0.177800X0.838200X-0.177800X-0.838200X0.177800X-0.838200X0.177800X0.838200X0*%
G04 APERTURE END LIST*
D10*
X238281100Y-32816322D02*
X238281100Y-34176841D01*
X250751100Y-34186841D02*
G75*
G02*
X250289031Y-35302291I-1577500J41D01*
G01*
X249135537Y-41189163D02*
X248491100Y-41833600D01*
X164415537Y-107018038D02*
G75*
G02*
X164678608Y-107653244I-635237J-635162D01*
G01*
X172521100Y-32023600D02*
G75*
G02*
X172363533Y-31643244I380400J380400D01*
G01*
X249391100Y-109405194D02*
G75*
G02*
X249081102Y-110153602I-1058400J-6D01*
G01*
X176682868Y-30120694D02*
X175267087Y-31536475D01*
X160329331Y-106130694D02*
X161745112Y-107546475D01*
X164289053Y-34401554D02*
X164031100Y-34143600D01*
X173281100Y-40793600D02*
G75*
G02*
X173125531Y-41169157I-531100J0D01*
G01*
X163876662Y-32658038D02*
X164521100Y-32013600D01*
X173165536Y-32668038D02*
G75*
G02*
X173321106Y-33043600I-375536J-375562D01*
G01*
X165491100Y-113933600D02*
X164247203Y-113933600D01*
X164249053Y-115435647D02*
G75*
G02*
X165461100Y-114933602I1212047J-1212053D01*
G01*
X168501100Y-58403600D02*
X168501100Y-39903600D01*
X174676671Y-120498028D02*
G75*
G02*
X173923605Y-120186082I29J1065028D01*
G01*
X174741100Y-34166841D02*
G75*
G02*
X174279031Y-35282291I-1577500J41D01*
G01*
X249331100Y-33425194D02*
X249331100Y-33063600D01*
X250033593Y-105671107D02*
G75*
G02*
X250786671Y-105359156I753107J-753093D01*
G01*
X172713146Y-39425647D02*
X172971100Y-39683600D01*
X241571100Y-110903600D02*
G75*
G02*
X240359052Y-110401555I0J1714100D01*
G01*
X213330100Y-63463600D02*
X239521100Y-63463600D01*
X250289056Y-35302316D02*
G75*
G02*
X248764996Y-35933583I-1524056J1524116D01*
G01*
X164257203Y-35903600D02*
G75*
G02*
X162733152Y-35272307I-3J2155300D01*
G01*
X163681100Y-116442007D02*
X163681100Y-116803600D01*
X173165537Y-108688038D02*
X172521100Y-108043600D01*
X161708190Y-104751835D02*
X162325528Y-105369172D01*
X251344009Y-28761835D02*
X250726671Y-29379172D01*
X252752868Y-106120694D02*
X251337087Y-107536475D01*
X239886662Y-32678038D02*
X240531100Y-32033600D01*
X176682868Y-106140694D02*
X175267087Y-107556475D01*
X240425537Y-31018038D02*
G75*
G02*
X240688608Y-31653244I-635237J-635162D01*
G01*
X240748645Y-107633244D02*
G75*
G02*
X240591085Y-108013585I-537945J44D01*
G01*
X248433553Y-107643244D02*
G75*
G02*
X248696635Y-107008011I898347J44D01*
G01*
X207513100Y-77384700D02*
X207513100Y-81536600D01*
X161745112Y-31526475D02*
G75*
G02*
X162271095Y-32796322I-1269812J-1269825D01*
G01*
X238803143Y-111272316D02*
G75*
G02*
X238341064Y-110156841I1115457J1115516D01*
G01*
X172363553Y-107663244D02*
G75*
G02*
X172626635Y-107028011I898347J44D01*
G01*
X236329331Y-43726507D02*
X237745112Y-42310725D01*
X161668190Y-121105366D02*
X162285528Y-120488029D01*
X173165537Y-32668038D02*
X172521100Y-32023600D01*
X240485537Y-106998038D02*
X239148606Y-105661107D01*
X171501100Y-37923600D02*
X172744996Y-37923600D01*
X172971100Y-39683600D02*
G75*
G02*
X173281097Y-40432008I-748400J-748400D01*
G01*
X250741100Y-41050879D02*
X250741100Y-39690360D01*
X163681100Y-40422007D02*
G75*
G02*
X163991098Y-39673598I1058400J7D01*
G01*
X240425537Y-31018038D02*
X239088606Y-29681107D01*
X160319331Y-119726507D02*
X161735112Y-118310725D01*
X164415537Y-107018038D02*
X163078606Y-105681107D01*
X164678645Y-31633244D02*
G75*
G02*
X164521085Y-32013585I-537945J44D01*
G01*
X171511100Y-35913600D02*
X172754996Y-35913600D01*
X162733143Y-111292316D02*
G75*
G02*
X162271064Y-110176841I1115457J1115516D01*
G01*
X240319053Y-115415647D02*
G75*
G02*
X241531100Y-114913602I1212047J-1212053D01*
G01*
X162325528Y-105369172D02*
G75*
G02*
X163078595Y-105681118I-28J-1065028D01*
G01*
X239946662Y-108658038D02*
X240591100Y-108013600D01*
X238331100Y-115660360D02*
G75*
G02*
X238793168Y-114544910I1577500J-40D01*
G01*
X240551100Y-117803600D02*
G75*
G02*
X240708667Y-118183957I-380400J-380400D01*
G01*
X200592100Y-63403600D02*
G75*
G02*
X205489100Y-68300600I0J-4897000D01*
G01*
X249235536Y-108668038D02*
G75*
G02*
X249391106Y-109043600I-375536J-375562D01*
G01*
X250811100Y-110166841D02*
G75*
G02*
X250349031Y-111282291I-1577500J41D01*
G01*
X173165536Y-108688038D02*
G75*
G02*
X173321106Y-109063600I-375536J-375562D01*
G01*
X199692100Y-86463600D02*
X173501100Y-86463600D01*
X252742868Y-119716507D02*
X251327087Y-118300725D01*
X173281100Y-116452007D02*
X173281100Y-116813600D01*
X174676671Y-44478028D02*
G75*
G02*
X173923605Y-44166082I29J1065028D01*
G01*
X174269056Y-114574885D02*
G75*
G02*
X174731135Y-115690360I-1115456J-1115515D01*
G01*
X249175536Y-32688038D02*
G75*
G02*
X249331106Y-33063600I-375536J-375562D01*
G01*
X162261099Y-41020879D02*
G75*
G02*
X161735115Y-42290728I-1795799J-21D01*
G01*
X129520621Y-42766047D02*
G75*
G02*
X134520553Y-47766047I-21J-4999953D01*
G01*
X163836661Y-41159163D02*
G75*
G02*
X163681091Y-40783600I375539J375563D01*
G01*
X172586662Y-118849163D02*
G75*
G02*
X172323591Y-118213957I635238J635163D01*
G01*
X247581100Y-111913600D02*
X248824996Y-111913600D01*
X136081100Y-75113600D02*
X202081100Y-75113600D01*
X173963593Y-29671107D02*
G75*
G02*
X174716671Y-29359156I753107J-753093D01*
G01*
X174279056Y-111302316D02*
G75*
G02*
X172754996Y-111933583I-1524056J1524116D01*
G01*
X163836662Y-41159163D02*
X164481100Y-41803600D01*
X241511100Y-34923600D02*
G75*
G02*
X240299052Y-34421555I0J1714100D01*
G01*
X247521100Y-35933600D02*
X248764996Y-35933600D01*
X238395528Y-105349172D02*
G75*
G02*
X239148595Y-105661118I-28J-1065028D01*
G01*
X168501100Y-91463600D02*
G75*
G02*
X173501100Y-86463600I5000000J0D01*
G01*
X164638646Y-42183957D02*
G75*
G02*
X164375564Y-42819190I-898346J-43D01*
G01*
X252692868Y-30140694D02*
X251277087Y-31556475D01*
X238271100Y-39680360D02*
G75*
G02*
X238733168Y-38564910I1577500J-40D01*
G01*
X172363553Y-31643244D02*
G75*
G02*
X172626635Y-31008011I898347J44D01*
G01*
X172753145Y-34411554D02*
G75*
G02*
X171541100Y-34913597I-1212045J1212054D01*
G01*
X250686671Y-44498028D02*
G75*
G02*
X249933605Y-44186082I29J1065028D01*
G01*
X162325528Y-29349172D02*
G75*
G02*
X163078595Y-29661118I-28J-1065028D01*
G01*
X173501100Y-63403600D02*
G75*
G02*
X168501100Y-58403600I0J5000000D01*
G01*
X239846662Y-41179163D02*
X240491100Y-41823600D01*
X173281100Y-40432007D02*
X173281100Y-40793600D01*
X249291100Y-40452007D02*
X249291100Y-40813600D01*
X171501100Y-113943600D02*
X172744996Y-113943600D01*
X164415537Y-30998038D02*
X163078606Y-29661107D01*
X134435550Y-72833600D02*
X134435550Y-47637457D01*
X172586662Y-42829163D02*
G75*
G02*
X172323591Y-42193957I635238J635163D01*
G01*
X249235537Y-108668038D02*
X248591100Y-108023600D01*
X120146218Y-42808472D02*
X130096493Y-42808472D01*
X163038606Y-120176094D02*
G75*
G02*
X162285528Y-120488044I-753106J753094D01*
G01*
X248981100Y-39703600D02*
G75*
G02*
X249291097Y-40452008I-748400J-748400D01*
G01*
X173321100Y-33405194D02*
G75*
G02*
X173011102Y-34153602I-1058400J-6D01*
G01*
X163836662Y-117179163D02*
X164481100Y-117823600D01*
X175334009Y-28741835D02*
X174716671Y-29359172D01*
X163721100Y-109415194D02*
X163721100Y-109053600D01*
X239906661Y-117159163D02*
G75*
G02*
X239751091Y-116783600I375539J375563D01*
G01*
X247511100Y-38943600D02*
G75*
G02*
X248723148Y-39445644I0J-1714100D01*
G01*
X172521100Y-108043600D02*
G75*
G02*
X172363533Y-107663244I380400J380400D01*
G01*
X164257203Y-111923600D02*
G75*
G02*
X162733152Y-111292307I-3J2155300D01*
G01*
X164481100Y-41803600D02*
G75*
G02*
X164638667Y-42183957I-380400J-380400D01*
G01*
X175334009Y-104761835D02*
X174716671Y-105379172D01*
X239906662Y-117159163D02*
X240551100Y-117803600D01*
X239846661Y-41179163D02*
G75*
G02*
X239691091Y-40803600I375539J375563D01*
G01*
X164249053Y-115435647D02*
X163991100Y-115693600D01*
X247571100Y-114923600D02*
G75*
G02*
X248783148Y-115425644I0J-1714100D01*
G01*
X164481100Y-117823600D02*
G75*
G02*
X164638667Y-118203957I-380400J-380400D01*
G01*
X172586662Y-42829163D02*
X173923593Y-44166094D01*
X248754996Y-37943600D02*
G75*
G02*
X250279048Y-38574893I4J-2155300D01*
G01*
X238335528Y-29369172D02*
G75*
G02*
X239088595Y-29681118I-28J-1065028D01*
G01*
X174731100Y-41030879D02*
X174731100Y-39670360D01*
X175294009Y-121115366D02*
X174676671Y-120498029D01*
X163721100Y-33033600D02*
G75*
G02*
X163876668Y-32658044I531100J0D01*
G01*
X249195537Y-117169163D02*
X248551100Y-117813600D01*
X238733143Y-38564885D02*
G75*
G02*
X240257203Y-37933617I1524057J-1524115D01*
G01*
X251364009Y-121095366D02*
X250746671Y-120478029D01*
X240101100Y-110143600D02*
G75*
G02*
X239791103Y-109395195I748400J748400D01*
G01*
X173963593Y-105691107D02*
G75*
G02*
X174716671Y-105379156I753107J-753093D01*
G01*
X164375537Y-42819163D02*
X163038606Y-44156094D01*
X237815112Y-107526475D02*
G75*
G02*
X238341095Y-108796322I-1269812J-1269825D01*
G01*
X165501100Y-35903600D02*
X164257203Y-35903600D01*
X240385537Y-42839163D02*
X239048606Y-44176094D01*
X164289053Y-110421554D02*
X164031100Y-110163600D01*
X237678190Y-45105366D02*
X238295528Y-44488029D01*
X162271100Y-108816322D02*
X162271100Y-110176841D01*
X176672868Y-43716507D02*
X175257087Y-42300725D01*
X248763145Y-34431554D02*
G75*
G02*
X247551100Y-34933597I-1212045J1212054D01*
G01*
X164415537Y-30998038D02*
G75*
G02*
X164678608Y-31633244I-635237J-635162D01*
G01*
X240319053Y-115415647D02*
X240061100Y-115673600D01*
X236389331Y-119706507D02*
X237805112Y-118290725D01*
X212410100Y-86433600D02*
G75*
G02*
X207513100Y-81536600I0J4897000D01*
G01*
X160319331Y-43706507D02*
X161735112Y-42290725D01*
X165491100Y-37913600D02*
X164247203Y-37913600D01*
X174741100Y-110186841D02*
G75*
G02*
X174279031Y-111302291I-1577500J41D01*
G01*
X252682868Y-43736507D02*
X251267087Y-42320725D01*
X164031100Y-34143600D02*
G75*
G02*
X163721103Y-33395195I748400J748400D01*
G01*
X163721100Y-109053600D02*
G75*
G02*
X163876668Y-108678044I531100J0D01*
G01*
X240445537Y-118819163D02*
X239108606Y-120156094D01*
X237778190Y-104731835D02*
X238395528Y-105349172D01*
X240688645Y-31653244D02*
G75*
G02*
X240531085Y-32033585I-537945J44D01*
G01*
X163721100Y-33395194D02*
X163721100Y-33033600D01*
X239751100Y-116422007D02*
G75*
G02*
X240061098Y-115673598I1058400J7D01*
G01*
X134435550Y-103333600D02*
G75*
G02*
X129435550Y-108333550I-4999950J0D01*
G01*
X173281100Y-116813600D02*
G75*
G02*
X173125531Y-117189157I-531100J0D01*
G01*
X162261100Y-117040879D02*
X162261100Y-115680360D01*
X248814996Y-113923600D02*
G75*
G02*
X250339048Y-114554893I4J-2155300D01*
G01*
X174741100Y-32806322D02*
X174741100Y-34166841D01*
X175294009Y-45095366D02*
X174676671Y-44478029D01*
X248723146Y-39445647D02*
X248981100Y-39703600D01*
X240648646Y-42203957D02*
G75*
G02*
X240385564Y-42839190I-898346J-43D01*
G01*
X249351100Y-116432007D02*
X249351100Y-116793600D01*
X172744996Y-37923600D02*
G75*
G02*
X174269048Y-38554893I4J-2155300D01*
G01*
X249291100Y-40813600D02*
G75*
G02*
X249135531Y-41189157I-531100J0D01*
G01*
X240327203Y-111903600D02*
G75*
G02*
X238803152Y-111272307I-3J2155300D01*
G01*
X240299053Y-34421554D02*
X240041100Y-34163600D01*
X172626662Y-107028038D02*
X173963593Y-105691107D01*
X248763146Y-34431554D02*
X249021100Y-34173600D01*
X173321100Y-33405194D02*
X173321100Y-33043600D01*
X164638646Y-118203957D02*
G75*
G02*
X164375564Y-118839190I-898346J-43D01*
G01*
X172971100Y-115703600D02*
G75*
G02*
X173281097Y-116452008I-748400J-748400D01*
G01*
X174741100Y-108826322D02*
G75*
G02*
X175267084Y-107556472I1795800J22D01*
G01*
X251304009Y-45115366D02*
X250686671Y-44498029D01*
X173321100Y-109425194D02*
G75*
G02*
X173011102Y-110173602I-1058400J-6D01*
G01*
X164249053Y-39415647D02*
G75*
G02*
X165461100Y-38913602I1212047J-1212053D01*
G01*
X239691100Y-40442007D02*
G75*
G02*
X240001098Y-39693598I1058400J7D01*
G01*
X134435550Y-103333600D02*
X134435550Y-78137457D01*
X165501100Y-111923600D02*
X164257203Y-111923600D01*
X249973593Y-29691107D02*
G75*
G02*
X250726671Y-29379156I753107J-753093D01*
G01*
X163836661Y-117179163D02*
G75*
G02*
X163681091Y-116803600I375539J375563D01*
G01*
X249041100Y-115683600D02*
G75*
G02*
X249351097Y-116432008I-748400J-748400D01*
G01*
X172753145Y-110431554D02*
G75*
G02*
X171541100Y-110933597I-1212045J1212054D01*
G01*
X205489100Y-77414700D02*
X205489100Y-80666600D01*
X164249053Y-39415647D02*
X163991100Y-39673600D01*
X174741100Y-32806322D02*
G75*
G02*
X175267084Y-31536472I1795800J22D01*
G01*
X251404009Y-104741835D02*
X250786671Y-105359172D01*
X162733143Y-35272316D02*
G75*
G02*
X162271064Y-34156841I1115457J1115516D01*
G01*
X250751100Y-32826322D02*
X250751100Y-34186841D01*
X162271100Y-32796322D02*
X162271100Y-34156841D01*
X172323553Y-42193957D02*
G75*
G02*
X172481114Y-41813614I537947J-43D01*
G01*
X248636662Y-31028038D02*
X249973593Y-29691107D01*
X165501100Y-110923600D02*
G75*
G02*
X164289052Y-110421555I0J1714100D01*
G01*
X207533100Y-72512500D02*
X207533100Y-69260600D01*
X207533100Y-69260600D02*
G75*
G02*
X213330100Y-63463600I5797000J0D01*
G01*
X162261099Y-117040879D02*
G75*
G02*
X161735115Y-118310728I-1795799J-21D01*
G01*
X247571100Y-113923600D02*
X248814996Y-113923600D01*
X172713146Y-115445647D02*
X172971100Y-115703600D01*
X247511100Y-37943600D02*
X248754996Y-37943600D01*
X248333553Y-42213957D02*
G75*
G02*
X248491114Y-41833614I537947J-43D01*
G01*
X248373553Y-31663244D02*
G75*
G02*
X248636635Y-31028011I898347J44D01*
G01*
X240259053Y-39435647D02*
X240001100Y-39693600D01*
X205489100Y-72452500D02*
X205489100Y-68300600D01*
X239108606Y-120156094D02*
G75*
G02*
X238355528Y-120468044I-753106J753094D01*
G01*
X250801100Y-117030879D02*
X250801100Y-115670360D01*
X168501100Y-91463600D02*
X168501100Y-109963600D01*
X250349056Y-111282316D02*
G75*
G02*
X248824996Y-111913583I-1524056J1524116D01*
G01*
X163681100Y-40422007D02*
X163681100Y-40783600D01*
X238793143Y-114544885D02*
G75*
G02*
X240317203Y-113913617I1524057J-1524115D01*
G01*
X160329331Y-30110694D02*
X161745112Y-31526475D01*
X240259053Y-39435647D02*
G75*
G02*
X241471100Y-38933602I1212047J-1212053D01*
G01*
X248783146Y-115425647D02*
X249041100Y-115683600D01*
X240485537Y-106998038D02*
G75*
G02*
X240748608Y-107633244I-635237J-635162D01*
G01*
X248823146Y-110411554D02*
X249081100Y-110153600D01*
X162723143Y-114564885D02*
G75*
G02*
X164247203Y-113933617I1524057J-1524115D01*
G01*
X248591100Y-108023600D02*
G75*
G02*
X248433533Y-107643244I380400J380400D01*
G01*
X172753146Y-110431554D02*
X173011100Y-110173600D01*
X175257087Y-118320725D02*
G75*
G02*
X174731105Y-117050879I1269813J1269825D01*
G01*
X238331100Y-117020879D02*
X238331100Y-115660360D01*
X202081100Y-75113600D02*
X202081100Y-75143600D01*
X163038606Y-44156094D02*
G75*
G02*
X162285528Y-44468044I-753106J753094D01*
G01*
X173125537Y-41169163D02*
X172481100Y-41813600D01*
X248596662Y-42849163D02*
X249933593Y-44186094D01*
X241501100Y-37933600D02*
X240257203Y-37933600D01*
X171501100Y-114943600D02*
G75*
G02*
X172713148Y-115445644I0J-1714100D01*
G01*
X248596662Y-42849163D02*
G75*
G02*
X248333591Y-42213957I635238J635163D01*
G01*
X239791100Y-109395194D02*
X239791100Y-109033600D01*
X240491100Y-41823600D02*
G75*
G02*
X240648667Y-42203957I-380400J-380400D01*
G01*
X251327087Y-118300725D02*
G75*
G02*
X250801105Y-117030879I1269813J1269825D01*
G01*
X237755112Y-31546475D02*
G75*
G02*
X238281095Y-32816322I-1269812J-1269825D01*
G01*
X237738190Y-121085366D02*
X238355528Y-120468029D01*
X237718190Y-28751835D02*
X238335528Y-29369172D01*
X239731100Y-33415194D02*
X239731100Y-33053600D01*
X244521100Y-58463600D02*
X244521100Y-39963600D01*
X238271100Y-41040879D02*
X238271100Y-39680360D01*
X171511100Y-111933600D02*
X172754996Y-111933600D01*
X236399331Y-106110694D02*
X237815112Y-107526475D01*
X161745112Y-107546475D02*
G75*
G02*
X162271095Y-108816322I-1269812J-1269825D01*
G01*
X174269056Y-38554885D02*
G75*
G02*
X174731135Y-39670360I-1115456J-1115515D01*
G01*
X241561100Y-113913600D02*
X240317203Y-113913600D01*
X239501100Y-86433600D02*
X212410100Y-86433600D01*
X239501100Y-86433600D02*
G75*
G02*
X244501100Y-91433600I0J-5000000D01*
G01*
X250279056Y-38574885D02*
G75*
G02*
X250741135Y-39690360I-1115456J-1115515D01*
G01*
X119636100Y-108333600D02*
X129435550Y-108333600D01*
X249331100Y-33425194D02*
G75*
G02*
X249021102Y-34173602I-1058400J-6D01*
G01*
X250746671Y-120478028D02*
G75*
G02*
X249993605Y-120166082I29J1065028D01*
G01*
X248823145Y-110411554D02*
G75*
G02*
X247611100Y-110913597I-1212045J1212054D01*
G01*
X172753146Y-34411554D02*
X173011100Y-34153600D01*
X250811100Y-108806322D02*
X250811100Y-110166841D01*
X241511100Y-35923600D02*
X240267203Y-35923600D01*
X172323553Y-118213957D02*
G75*
G02*
X172481114Y-117833614I537947J-43D01*
G01*
X249175537Y-32688038D02*
X248531100Y-32043600D01*
X240708646Y-118183957D02*
G75*
G02*
X240445564Y-118819190I-898346J-43D01*
G01*
X162261100Y-115680360D02*
G75*
G02*
X162723168Y-114564910I1577500J-40D01*
G01*
X172626662Y-31008038D02*
X173963593Y-29671107D01*
X240267203Y-35923600D02*
G75*
G02*
X238743152Y-35292307I-3J2155300D01*
G01*
X248696662Y-107008038D02*
X250033593Y-105671107D01*
X248656662Y-118829163D02*
G75*
G02*
X248393591Y-118193957I635238J635163D01*
G01*
X174731100Y-117050879D02*
X174731100Y-115690360D01*
X238331099Y-117020879D02*
G75*
G02*
X237805115Y-118290728I-1795799J-21D01*
G01*
X162261100Y-41020879D02*
X162261100Y-39660360D01*
X173501100Y-63403600D02*
X200592100Y-63403600D01*
X249351100Y-116793600D02*
G75*
G02*
X249195531Y-117169157I-531100J0D01*
G01*
X161668190Y-45085366D02*
X162285528Y-44468029D01*
X164031100Y-110163600D02*
G75*
G02*
X163721103Y-109415195I748400J748400D01*
G01*
X240041100Y-34163600D02*
G75*
G02*
X239731103Y-33415195I748400J748400D01*
G01*
X238743143Y-35292316D02*
G75*
G02*
X238281064Y-34176841I1115457J1115516D01*
G01*
X161708190Y-28731835D02*
X162325528Y-29349172D01*
X174279056Y-35282316D02*
G75*
G02*
X172754996Y-35913583I-1524056J1524116D01*
G01*
X244501100Y-91433600D02*
X244501100Y-109933600D01*
X250339056Y-114554885D02*
G75*
G02*
X250801135Y-115670360I-1115456J-1115515D01*
G01*
X239751100Y-116422007D02*
X239751100Y-116783600D01*
X162723143Y-38544885D02*
G75*
G02*
X164247203Y-37913617I1524057J-1524115D01*
G01*
X164375537Y-118839163D02*
X163038606Y-120176094D01*
X251267087Y-42320725D02*
G75*
G02*
X250741105Y-41050879I1269813J1269825D01*
G01*
X250751100Y-32826322D02*
G75*
G02*
X251277084Y-31556472I1795800J22D01*
G01*
X239731100Y-33053600D02*
G75*
G02*
X239886668Y-32678044I531100J0D01*
G01*
X240359053Y-110401554D02*
X240101100Y-110143600D01*
X176672868Y-119736507D02*
X175257087Y-118320725D01*
X239048606Y-44176094D02*
G75*
G02*
X238295528Y-44488044I-753106J753094D01*
G01*
X236339331Y-30130694D02*
X237755112Y-31546475D01*
X162261100Y-39660360D02*
G75*
G02*
X162723168Y-38544910I1577500J-40D01*
G01*
X172586662Y-118849163D02*
X173923593Y-120186094D01*
X163681100Y-116442007D02*
G75*
G02*
X163991098Y-115693598I1058400J7D01*
G01*
X249391100Y-109405194D02*
X249391100Y-109043600D01*
X238271099Y-41040879D02*
G75*
G02*
X237745115Y-42310728I-1795799J-21D01*
G01*
X248393553Y-118193957D02*
G75*
G02*
X248551114Y-117813614I537947J-43D01*
G01*
X238341100Y-108796322D02*
X238341100Y-110156841D01*
X239791100Y-109033600D02*
G75*
G02*
X239946668Y-108658044I531100J0D01*
G01*
X174741100Y-108826322D02*
X174741100Y-110186841D01*
X241571100Y-111903600D02*
X240327203Y-111903600D01*
X239691100Y-40442007D02*
X239691100Y-40803600D01*
X175257087Y-42300725D02*
G75*
G02*
X174731105Y-41030879I1269813J1269825D01*
G01*
X248531100Y-32043600D02*
G75*
G02*
X248373533Y-31663244I380400J380400D01*
G01*
X172744996Y-113943600D02*
G75*
G02*
X174269048Y-114574893I4J-2155300D01*
G01*
X171501100Y-38923600D02*
G75*
G02*
X172713148Y-39425644I0J-1714100D01*
G01*
X248656662Y-118829163D02*
X249993593Y-120166094D01*
X244521100Y-58463600D02*
G75*
G02*
X239521100Y-63463600I-5000000J0D01*
G01*
X173125537Y-117189163D02*
X172481100Y-117833600D01*
X250811100Y-108806322D02*
G75*
G02*
X251337084Y-107536472I1795800J22D01*
G01*
X164678645Y-107653244D02*
G75*
G02*
X164521085Y-108033585I-537945J44D01*
G01*
X205489100Y-80666600D02*
G75*
G02*
X199692100Y-86463600I-5797000J0D01*
G01*
X173321100Y-109425194D02*
X173321100Y-109063600D01*
X165501100Y-34903600D02*
G75*
G02*
X164289052Y-34401555I0J1714100D01*
G01*
X163876662Y-108678038D02*
X164521100Y-108033600D01*
D11*
%TO.C,U13*%
G36*
X101654800Y-110692900D02*
G01*
X100867400Y-110692900D01*
X100867400Y-110464300D01*
X101654800Y-110464300D01*
X101654800Y-110692900D01*
G37*
%TO.C,U69*%
G36*
X65383397Y-232535897D02*
G01*
X64368804Y-232535897D01*
X64368804Y-232091304D01*
X65383397Y-232091304D01*
X65383397Y-232535897D01*
G37*
G36*
X65383397Y-233035894D02*
G01*
X64368804Y-233035894D01*
X64368804Y-232591304D01*
X65383397Y-232591304D01*
X65383397Y-233035894D01*
G37*
G36*
X65383397Y-233535897D02*
G01*
X64368804Y-233535897D01*
X64368804Y-233091307D01*
X65383397Y-233091307D01*
X65383397Y-233535897D01*
G37*
G36*
X65383397Y-234035893D02*
G01*
X64368804Y-234035893D01*
X64368804Y-233591303D01*
X65383397Y-233591303D01*
X65383397Y-234035893D01*
G37*
G36*
X65383397Y-234535896D02*
G01*
X64368804Y-234535896D01*
X64368804Y-234091303D01*
X65383397Y-234091303D01*
X65383397Y-234535896D01*
G37*
G36*
X65383397Y-235035896D02*
G01*
X64368804Y-235035896D01*
X64368804Y-234591303D01*
X65383397Y-234591303D01*
X65383397Y-235035896D01*
G37*
G36*
X65823082Y-232095897D02*
G01*
X65378491Y-232095897D01*
X65378491Y-231081304D01*
X65823082Y-231081304D01*
X65823082Y-232095897D01*
G37*
G36*
X65823082Y-236045896D02*
G01*
X65378491Y-236045896D01*
X65378491Y-235031303D01*
X65823082Y-235031303D01*
X65823082Y-236045896D01*
G37*
G36*
X65876400Y-234989800D02*
G01*
X65424900Y-234989800D01*
X65424900Y-232137400D01*
X65876400Y-232137400D01*
X65876400Y-234989800D01*
G37*
G36*
X66323207Y-232095897D02*
G01*
X65878616Y-232095897D01*
X65878616Y-231081304D01*
X66323207Y-231081304D01*
X66323207Y-232095897D01*
G37*
G36*
X66323207Y-236045896D02*
G01*
X65878616Y-236045896D01*
X65878616Y-235031303D01*
X66323207Y-235031303D01*
X66323207Y-236045896D01*
G37*
G36*
X66663800Y-234989800D02*
G01*
X66251000Y-234989800D01*
X66251000Y-232137400D01*
X66663800Y-232137400D01*
X66663800Y-234989800D01*
G37*
G36*
X66823332Y-232095897D02*
G01*
X66378741Y-232095897D01*
X66378741Y-231081304D01*
X66823332Y-231081304D01*
X66823332Y-232095897D01*
G37*
G36*
X66823332Y-236045896D02*
G01*
X66378741Y-236045896D01*
X66378741Y-235031303D01*
X66823332Y-235031303D01*
X66823332Y-236045896D01*
G37*
G36*
X67323459Y-232095897D02*
G01*
X66878868Y-232095897D01*
X66878868Y-231081304D01*
X67323459Y-231081304D01*
X67323459Y-232095897D01*
G37*
G36*
X67323459Y-236045896D02*
G01*
X66878868Y-236045896D01*
X66878868Y-235031303D01*
X67323459Y-235031303D01*
X67323459Y-236045896D01*
G37*
G36*
X67451200Y-234989800D02*
G01*
X67038400Y-234989800D01*
X67038400Y-232137400D01*
X67451200Y-232137400D01*
X67451200Y-234989800D01*
G37*
G36*
X67823584Y-232095897D02*
G01*
X67378993Y-232095897D01*
X67378993Y-231081304D01*
X67823584Y-231081304D01*
X67823584Y-232095897D01*
G37*
G36*
X67823584Y-236045896D02*
G01*
X67378993Y-236045896D01*
X67378993Y-235031303D01*
X67823584Y-235031303D01*
X67823584Y-236045896D01*
G37*
G36*
X68277300Y-232588900D02*
G01*
X65424900Y-232588900D01*
X65424900Y-232137400D01*
X68277300Y-232137400D01*
X68277300Y-232588900D01*
G37*
G36*
X68277300Y-233376300D02*
G01*
X65424900Y-233376300D01*
X65424900Y-232963500D01*
X68277300Y-232963500D01*
X68277300Y-233376300D01*
G37*
G36*
X68277300Y-234163700D02*
G01*
X65424900Y-234163700D01*
X65424900Y-233750900D01*
X68277300Y-233750900D01*
X68277300Y-234163700D01*
G37*
G36*
X68277300Y-234989800D02*
G01*
X65424900Y-234989800D01*
X65424900Y-234538300D01*
X68277300Y-234538300D01*
X68277300Y-234989800D01*
G37*
G36*
X68277300Y-234989800D02*
G01*
X67825800Y-234989800D01*
X67825800Y-232137400D01*
X68277300Y-232137400D01*
X68277300Y-234989800D01*
G37*
G36*
X68323709Y-232095897D02*
G01*
X67879118Y-232095897D01*
X67879118Y-231081304D01*
X68323709Y-231081304D01*
X68323709Y-232095897D01*
G37*
G36*
X68323709Y-236045896D02*
G01*
X67879118Y-236045896D01*
X67879118Y-235031303D01*
X68323709Y-235031303D01*
X68323709Y-236045896D01*
G37*
G36*
X69333396Y-232535897D02*
G01*
X68318803Y-232535897D01*
X68318803Y-232091304D01*
X69333396Y-232091304D01*
X69333396Y-232535897D01*
G37*
G36*
X69333396Y-233035897D02*
G01*
X68318803Y-233035897D01*
X68318803Y-232591304D01*
X69333396Y-232591304D01*
X69333396Y-233035897D01*
G37*
G36*
X69333396Y-233535897D02*
G01*
X68318803Y-233535897D01*
X68318803Y-233091307D01*
X69333396Y-233091307D01*
X69333396Y-233535897D01*
G37*
G36*
X69333396Y-234035893D02*
G01*
X68318803Y-234035893D01*
X68318803Y-233591303D01*
X69333396Y-233591303D01*
X69333396Y-234035893D01*
G37*
G36*
X69333396Y-234535896D02*
G01*
X68318803Y-234535896D01*
X68318803Y-234091306D01*
X69333396Y-234091306D01*
X69333396Y-234535896D01*
G37*
G36*
X69333396Y-235035896D02*
G01*
X68318803Y-235035896D01*
X68318803Y-234591303D01*
X69333396Y-234591303D01*
X69333396Y-235035896D01*
G37*
%TO.C,U5*%
G36*
X101384800Y-40982900D02*
G01*
X100597400Y-40982900D01*
X100597400Y-40754300D01*
X101384800Y-40754300D01*
X101384800Y-40982900D01*
G37*
%TO.C,U7*%
G36*
X65693397Y-203435897D02*
G01*
X64678804Y-203435897D01*
X64678804Y-202991304D01*
X65693397Y-202991304D01*
X65693397Y-203435897D01*
G37*
G36*
X65693397Y-203935894D02*
G01*
X64678804Y-203935894D01*
X64678804Y-203491304D01*
X65693397Y-203491304D01*
X65693397Y-203935894D01*
G37*
G36*
X65693397Y-204435897D02*
G01*
X64678804Y-204435897D01*
X64678804Y-203991307D01*
X65693397Y-203991307D01*
X65693397Y-204435897D01*
G37*
G36*
X65693397Y-204935893D02*
G01*
X64678804Y-204935893D01*
X64678804Y-204491303D01*
X65693397Y-204491303D01*
X65693397Y-204935893D01*
G37*
G36*
X65693397Y-205435896D02*
G01*
X64678804Y-205435896D01*
X64678804Y-204991303D01*
X65693397Y-204991303D01*
X65693397Y-205435896D01*
G37*
G36*
X65693397Y-205935896D02*
G01*
X64678804Y-205935896D01*
X64678804Y-205491303D01*
X65693397Y-205491303D01*
X65693397Y-205935896D01*
G37*
G36*
X66133082Y-202995897D02*
G01*
X65688491Y-202995897D01*
X65688491Y-201981304D01*
X66133082Y-201981304D01*
X66133082Y-202995897D01*
G37*
G36*
X66133082Y-206945896D02*
G01*
X65688491Y-206945896D01*
X65688491Y-205931303D01*
X66133082Y-205931303D01*
X66133082Y-206945896D01*
G37*
G36*
X66186400Y-205889800D02*
G01*
X65734900Y-205889800D01*
X65734900Y-203037400D01*
X66186400Y-203037400D01*
X66186400Y-205889800D01*
G37*
G36*
X66633207Y-202995897D02*
G01*
X66188616Y-202995897D01*
X66188616Y-201981304D01*
X66633207Y-201981304D01*
X66633207Y-202995897D01*
G37*
G36*
X66633207Y-206945896D02*
G01*
X66188616Y-206945896D01*
X66188616Y-205931303D01*
X66633207Y-205931303D01*
X66633207Y-206945896D01*
G37*
G36*
X66973800Y-205889800D02*
G01*
X66561000Y-205889800D01*
X66561000Y-203037400D01*
X66973800Y-203037400D01*
X66973800Y-205889800D01*
G37*
G36*
X67133332Y-202995897D02*
G01*
X66688741Y-202995897D01*
X66688741Y-201981304D01*
X67133332Y-201981304D01*
X67133332Y-202995897D01*
G37*
G36*
X67133332Y-206945896D02*
G01*
X66688741Y-206945896D01*
X66688741Y-205931303D01*
X67133332Y-205931303D01*
X67133332Y-206945896D01*
G37*
G36*
X67633459Y-202995897D02*
G01*
X67188868Y-202995897D01*
X67188868Y-201981304D01*
X67633459Y-201981304D01*
X67633459Y-202995897D01*
G37*
G36*
X67633459Y-206945896D02*
G01*
X67188868Y-206945896D01*
X67188868Y-205931303D01*
X67633459Y-205931303D01*
X67633459Y-206945896D01*
G37*
G36*
X67761200Y-205889800D02*
G01*
X67348400Y-205889800D01*
X67348400Y-203037400D01*
X67761200Y-203037400D01*
X67761200Y-205889800D01*
G37*
G36*
X68133584Y-202995897D02*
G01*
X67688993Y-202995897D01*
X67688993Y-201981304D01*
X68133584Y-201981304D01*
X68133584Y-202995897D01*
G37*
G36*
X68133584Y-206945896D02*
G01*
X67688993Y-206945896D01*
X67688993Y-205931303D01*
X68133584Y-205931303D01*
X68133584Y-206945896D01*
G37*
G36*
X68587300Y-203488900D02*
G01*
X65734900Y-203488900D01*
X65734900Y-203037400D01*
X68587300Y-203037400D01*
X68587300Y-203488900D01*
G37*
G36*
X68587300Y-204276300D02*
G01*
X65734900Y-204276300D01*
X65734900Y-203863500D01*
X68587300Y-203863500D01*
X68587300Y-204276300D01*
G37*
G36*
X68587300Y-205063700D02*
G01*
X65734900Y-205063700D01*
X65734900Y-204650900D01*
X68587300Y-204650900D01*
X68587300Y-205063700D01*
G37*
G36*
X68587300Y-205889800D02*
G01*
X65734900Y-205889800D01*
X65734900Y-205438300D01*
X68587300Y-205438300D01*
X68587300Y-205889800D01*
G37*
G36*
X68587300Y-205889800D02*
G01*
X68135800Y-205889800D01*
X68135800Y-203037400D01*
X68587300Y-203037400D01*
X68587300Y-205889800D01*
G37*
G36*
X68633709Y-202995897D02*
G01*
X68189118Y-202995897D01*
X68189118Y-201981304D01*
X68633709Y-201981304D01*
X68633709Y-202995897D01*
G37*
G36*
X68633709Y-206945896D02*
G01*
X68189118Y-206945896D01*
X68189118Y-205931303D01*
X68633709Y-205931303D01*
X68633709Y-206945896D01*
G37*
G36*
X69643396Y-203435897D02*
G01*
X68628803Y-203435897D01*
X68628803Y-202991304D01*
X69643396Y-202991304D01*
X69643396Y-203435897D01*
G37*
G36*
X69643396Y-203935897D02*
G01*
X68628803Y-203935897D01*
X68628803Y-203491304D01*
X69643396Y-203491304D01*
X69643396Y-203935897D01*
G37*
G36*
X69643396Y-204435897D02*
G01*
X68628803Y-204435897D01*
X68628803Y-203991307D01*
X69643396Y-203991307D01*
X69643396Y-204435897D01*
G37*
G36*
X69643396Y-204935893D02*
G01*
X68628803Y-204935893D01*
X68628803Y-204491303D01*
X69643396Y-204491303D01*
X69643396Y-204935893D01*
G37*
G36*
X69643396Y-205435896D02*
G01*
X68628803Y-205435896D01*
X68628803Y-204991306D01*
X69643396Y-204991306D01*
X69643396Y-205435896D01*
G37*
G36*
X69643396Y-205935896D02*
G01*
X68628803Y-205935896D01*
X68628803Y-205491303D01*
X69643396Y-205491303D01*
X69643396Y-205935896D01*
G37*
%TD*%
D12*
%TO.C,JP6*%
X217371100Y-202593600D03*
X217371100Y-205133600D03*
X217371100Y-207673600D03*
%TD*%
D13*
%TO.C,R12*%
X78071100Y-76028600D03*
X78071100Y-76538600D03*
%TD*%
D14*
%TO.C,RF_SW_2*%
X180837891Y-49620290D03*
X181191445Y-49973844D03*
X181544998Y-50327397D03*
X181898552Y-50680951D03*
D15*
X182817790Y-50666809D03*
X183171344Y-50313255D03*
X183524897Y-49959702D03*
X183878451Y-49606148D03*
D14*
X183878451Y-48701052D03*
X183524897Y-48347498D03*
X183171344Y-47993945D03*
X182817790Y-47640391D03*
D15*
X181898552Y-47626249D03*
X181544998Y-47979803D03*
X181191445Y-48333356D03*
X180837891Y-48686910D03*
D16*
X182351100Y-49153600D03*
%TD*%
D17*
%TO.C,L7*%
X80861100Y-40463600D03*
X80861100Y-39163600D03*
%TD*%
D18*
%TO.C,C128*%
X157592904Y-52412936D03*
X157946458Y-52766490D03*
%TD*%
D13*
%TO.C,R94*%
X50341100Y-197808600D03*
X50341100Y-198318600D03*
%TD*%
D19*
%TO.C,U47*%
X222691934Y-94855597D03*
X220321146Y-97226385D03*
%TD*%
D17*
%TO.C,C348*%
X168159003Y-210638038D03*
X168159003Y-209338038D03*
%TD*%
D20*
%TO.C,R18*%
X74176100Y-110843600D03*
X74686100Y-110843600D03*
%TD*%
D21*
%TO.C,C321*%
X227631100Y35776400D03*
X227631100Y34476400D03*
%TD*%
D22*
%TO.C,ADTR1107_3*%
X159869715Y-30670312D03*
X160329334Y-30210692D03*
X160788954Y-29751073D03*
X161248573Y-29291454D03*
X161708192Y-28831834D03*
X162167812Y-28372215D03*
D23*
X162167812Y-27634985D03*
X161708192Y-27175366D03*
X161248573Y-26715746D03*
X160788954Y-26256127D03*
X160329334Y-25796508D03*
X159869715Y-25336888D03*
D22*
X159132485Y-25336888D03*
X158672866Y-25796508D03*
X158213246Y-26256127D03*
X157753627Y-26715746D03*
X157294008Y-27175366D03*
X156834388Y-27634985D03*
D23*
X156834388Y-28372215D03*
X157294008Y-28831834D03*
X157753627Y-29291454D03*
X158213246Y-29751073D03*
X158672866Y-30210692D03*
X159132485Y-30670312D03*
D24*
X159501100Y-28003600D03*
%TD*%
D25*
%TO.C,C168*%
X152797745Y-129344249D03*
X152444191Y-128990695D03*
%TD*%
D26*
%TO.C,J37*%
X252441100Y-56783600D03*
D27*
X248848998Y-56783600D03*
X252441100Y-60375702D03*
X256033202Y-56783600D03*
X252441100Y-53191498D03*
%TD*%
D28*
%TO.C,C255*%
X157494323Y-125460377D03*
X157847877Y-125106823D03*
%TD*%
D29*
%TO.C,C148*%
X228010852Y-23437852D03*
X227657298Y-23791406D03*
%TD*%
D26*
%TO.C,J32*%
X223651100Y-31593600D03*
D27*
X220058998Y-31593600D03*
X223651100Y-35185702D03*
X227243202Y-31593600D03*
X223651100Y-28001498D03*
%TD*%
D30*
%TO.C,R11*%
X65531100Y-82478600D03*
X65021100Y-82478600D03*
%TD*%
D31*
%TO.C,U77*%
X117556871Y-225944104D03*
X117556871Y-225294104D03*
X117556871Y-224644104D03*
X117556871Y-223994104D03*
X113156871Y-223994104D03*
X113156871Y-224644104D03*
X113156871Y-225294104D03*
X113156871Y-225944104D03*
%TD*%
D29*
%TO.C,C157*%
X56044348Y-59144127D03*
X55690794Y-59497681D03*
%TD*%
D30*
%TO.C,R132*%
X124285190Y-215476619D03*
X123775190Y-215476619D03*
%TD*%
D19*
%TO.C,U45*%
X222976034Y-21630731D03*
X220605246Y-24001519D03*
%TD*%
D21*
%TO.C,C335*%
X116431100Y-117773600D03*
X116431100Y-119073600D03*
%TD*%
D28*
%TO.C,C203*%
X260998738Y-126639612D03*
X261352292Y-126286058D03*
%TD*%
D32*
%TO.C,C330*%
X120081100Y-27813600D03*
X120081100Y-29713600D03*
%TD*%
D13*
%TO.C,R48*%
X246536100Y-41238600D03*
X246536100Y-41748600D03*
%TD*%
D26*
%TO.C,J52*%
X147201100Y-105863600D03*
D27*
X143608998Y-105863600D03*
X147201100Y-109455702D03*
X150793202Y-105863600D03*
X147201100Y-102271498D03*
%TD*%
D20*
%TO.C,R106*%
X79546100Y-228633600D03*
X80056100Y-228633600D03*
%TD*%
D25*
%TO.C,C251*%
X258108408Y-20574118D03*
X257754854Y-20220564D03*
%TD*%
D29*
%TO.C,C246*%
X155131623Y-98008533D03*
X154778069Y-98362087D03*
%TD*%
D33*
%TO.C,L8*%
X91811100Y-109508600D03*
X91811100Y-110058600D03*
%TD*%
D34*
%TO.C,C159*%
X18551100Y-324353600D03*
X21351100Y-324353600D03*
%TD*%
D35*
%TO.C,C177*%
X80896100Y-81418600D03*
X81396100Y-81418600D03*
%TD*%
D18*
%TO.C,C165*%
X233262460Y-52578936D03*
X233616014Y-52932490D03*
%TD*%
D36*
%TO.C,R27*%
X75741100Y-54098600D03*
X75741100Y-53588600D03*
%TD*%
D37*
%TO.C,C87*%
X244416100Y-32263600D03*
X244416100Y-31763600D03*
%TD*%
D38*
%TO.C,C263*%
X126881100Y-211793600D03*
X126381100Y-211793600D03*
%TD*%
D25*
%TO.C,C143*%
X179409423Y-21683843D03*
X179055869Y-21330289D03*
%TD*%
D35*
%TO.C,C62*%
X93801100Y-109443600D03*
X94301100Y-109443600D03*
%TD*%
D32*
%TO.C,C338*%
X175581100Y-215913600D03*
X175581100Y-217813600D03*
%TD*%
D33*
%TO.C,C127*%
X95731100Y-41033600D03*
X95731100Y-41533600D03*
%TD*%
D20*
%TO.C,R98*%
X49826100Y-198833600D03*
X50336100Y-198833600D03*
%TD*%
D26*
%TO.C,J33*%
X237151100Y-17993600D03*
D27*
X233558998Y-17993600D03*
X237151100Y-21585702D03*
X240743202Y-17993600D03*
X237151100Y-14401498D03*
%TD*%
D17*
%TO.C,C347*%
X188478812Y-210441735D03*
X188478812Y-209141735D03*
%TD*%
D39*
%TO.C,S1*%
X117711100Y-147103600D03*
X117711100Y-143003600D03*
X116111100Y-143003600D03*
X116111100Y-147103600D03*
%TD*%
D13*
%TO.C,R114*%
X90801100Y-138818600D03*
X90801100Y-139328600D03*
%TD*%
D40*
%TO.C,UNK_HOLE_3*%
X22501100Y40996400D03*
%TD*%
D41*
%TO.C,RF_SW_7*%
X232164309Y-24436910D03*
X231810755Y-24083356D03*
X231457202Y-23729803D03*
X231103648Y-23376249D03*
D42*
X230184410Y-23390391D03*
X229830856Y-23743945D03*
X229477303Y-24097498D03*
X229123749Y-24451052D03*
D41*
X229123749Y-25356148D03*
X229477303Y-25709702D03*
X229830856Y-26063255D03*
X230184410Y-26416809D03*
D42*
X231103648Y-26430951D03*
X231457202Y-26077397D03*
X231810755Y-25723844D03*
X232164309Y-25370290D03*
D43*
X230651100Y-24903600D03*
%TD*%
D28*
%TO.C,C172*%
X260561735Y-48671274D03*
X260915289Y-48317720D03*
%TD*%
D36*
%TO.C,R30*%
X79561100Y-54048600D03*
X79561100Y-53538600D03*
%TD*%
D35*
%TO.C,C269*%
X101921100Y-222663600D03*
X102421100Y-222663600D03*
%TD*%
D25*
%TO.C,C137*%
X154169517Y-51947612D03*
X153815963Y-51594058D03*
%TD*%
D33*
%TO.C,C20*%
X111231100Y-151523600D03*
X111231100Y-152023600D03*
%TD*%
D36*
%TO.C,R73*%
X242487459Y-123373313D03*
X242487459Y-122863313D03*
%TD*%
D18*
%TO.C,C139*%
X155342554Y-52969461D03*
X155696108Y-53323015D03*
%TD*%
D44*
%TO.C,X19*%
X23471100Y-206483600D03*
X23471100Y-209023600D03*
%TD*%
D45*
%TO.C,X5*%
X262441100Y23026400D03*
X259901100Y23026400D03*
%TD*%
D28*
%TO.C,C67*%
X153231394Y-22229877D03*
X153584948Y-21876323D03*
%TD*%
D29*
%TO.C,C154*%
X57868686Y-60954320D03*
X57515132Y-61307874D03*
%TD*%
D37*
%TO.C,C298*%
X217251100Y-200483600D03*
X217251100Y-199983600D03*
%TD*%
D21*
%TO.C,C259*%
X120986365Y-224180766D03*
X120986365Y-225480766D03*
%TD*%
D46*
%TO.C,U55*%
X186715525Y-92323973D03*
X184344737Y-89953185D03*
%TD*%
D36*
%TO.C,R124*%
X135951100Y-211988600D03*
X135951100Y-211478600D03*
%TD*%
D47*
%TO.C,C311*%
X30231100Y-97463600D03*
X30231100Y-100263600D03*
%TD*%
D20*
%TO.C,R144*%
X78316100Y-70923600D03*
X78826100Y-70923600D03*
%TD*%
D28*
%TO.C,C129*%
X157794323Y-49090377D03*
X158147877Y-48736823D03*
%TD*%
D37*
%TO.C,C93*%
X243966100Y-32768600D03*
X243966100Y-32268600D03*
%TD*%
D23*
%TO.C,ADTR1107_12*%
X250834388Y-104372215D03*
X251294008Y-104831834D03*
X251753627Y-105291454D03*
X252213246Y-105751073D03*
X252672866Y-106210692D03*
X253132485Y-106670312D03*
D48*
X253869715Y-106670312D03*
X254329334Y-106210692D03*
X254788954Y-105751073D03*
X255248573Y-105291454D03*
X255708192Y-104831834D03*
X256167812Y-104372215D03*
D23*
X256167812Y-103634985D03*
X255708192Y-103175366D03*
X255248573Y-102715746D03*
X254788954Y-102256127D03*
X254329334Y-101796508D03*
X253869715Y-101336888D03*
D48*
X253132485Y-101336888D03*
X252672866Y-101796508D03*
X252213246Y-102256127D03*
X251753627Y-102715746D03*
X251294008Y-103175366D03*
X250834388Y-103634985D03*
D49*
X253501100Y-104003600D03*
%TD*%
D29*
%TO.C,C158*%
X55598873Y-58670364D03*
X55245319Y-59023918D03*
%TD*%
D32*
%TO.C,C316*%
X189931100Y35136400D03*
X189931100Y33236400D03*
%TD*%
D12*
%TO.C,JP9*%
X77221100Y-174013600D03*
X77221100Y-176553600D03*
X77221100Y-179093600D03*
X77221100Y-181633600D03*
%TD*%
D38*
%TO.C,C293*%
X84601100Y-97103600D03*
X84101100Y-97103600D03*
%TD*%
D25*
%TO.C,C112*%
X80088086Y-60074796D03*
X79734532Y-59721242D03*
%TD*%
D13*
%TO.C,R42*%
X66861100Y-201088600D03*
X66861100Y-201598600D03*
%TD*%
D35*
%TO.C,C24*%
X105021100Y-145483600D03*
X105521100Y-145483600D03*
%TD*%
D18*
%TO.C,C103*%
X163102894Y-26735264D03*
X163456448Y-27088818D03*
%TD*%
D33*
%TO.C,C36*%
X83031100Y-96498600D03*
X83031100Y-96998600D03*
%TD*%
D50*
%TO.C,U$1*%
X135421100Y-74053600D03*
X134921100Y-74053600D03*
X134421100Y-74053600D03*
X133921100Y-74053600D03*
D51*
X133281100Y-74713600D03*
X133281100Y-75213600D03*
X133281100Y-75713600D03*
X133281100Y-76213600D03*
D50*
X133921100Y-76853600D03*
X134421100Y-76853600D03*
X134921100Y-76853600D03*
X135421100Y-76853600D03*
D51*
X136081100Y-76213600D03*
X136081100Y-75713600D03*
X136081100Y-75213600D03*
X136081100Y-74713600D03*
D52*
X134681100Y-75453600D03*
%TD*%
D25*
%TO.C,C114*%
X249821092Y-47270046D03*
X249467538Y-46916492D03*
%TD*%
D29*
%TO.C,C235*%
X260020977Y-51946930D03*
X259667423Y-52300484D03*
%TD*%
D53*
%TO.C,JP17*%
X86991100Y-129623600D03*
X84451100Y-129623600D03*
X81911100Y-129623600D03*
%TD*%
D54*
%TO.C,JP1*%
X123391100Y-162563600D03*
X120851100Y-162563600D03*
X123391100Y-160023600D03*
X120851100Y-160023600D03*
X123391100Y-157483600D03*
X120851100Y-157483600D03*
X123391100Y-154943600D03*
X120851100Y-154943600D03*
X123391100Y-152403600D03*
X120851100Y-152403600D03*
X123391100Y-149863600D03*
X120851100Y-149863600D03*
%TD*%
D26*
%TO.C,J24*%
X147692368Y-31452007D03*
D27*
X144100266Y-31452007D03*
X147692368Y-35044109D03*
X151284470Y-31452007D03*
X147692368Y-27859905D03*
%TD*%
D55*
%TO.C,C186*%
X24551100Y-329753600D03*
X25851100Y-329753600D03*
%TD*%
D45*
%TO.C,X21*%
X204751100Y-176233600D03*
X207291100Y-176233600D03*
%TD*%
D56*
%TO.C,X53*%
X23831100Y-145243600D03*
X23831100Y-149643600D03*
D57*
X26831100Y-145843600D03*
X26831100Y-146643600D03*
X26831100Y-147443600D03*
X26831100Y-148243600D03*
X26831100Y-149043600D03*
D58*
X20831100Y-151893600D03*
X20831100Y-142993600D03*
D59*
X26731100Y-142993600D03*
X26731100Y-151893600D03*
%TD*%
D60*
%TO.C,L19*%
X18951100Y-318353600D03*
X23951100Y-318353600D03*
%TD*%
D38*
%TO.C,C22*%
X80831100Y-160433600D03*
X80331100Y-160433600D03*
%TD*%
D33*
%TO.C,C299*%
X217481100Y-224123600D03*
X217481100Y-224623600D03*
%TD*%
D29*
%TO.C,C71*%
X153067583Y-26068083D03*
X152714029Y-26421637D03*
%TD*%
D37*
%TO.C,C52*%
X77561100Y-115963600D03*
X77561100Y-115463600D03*
%TD*%
D22*
%TO.C,ADTR1107_15*%
X159869715Y-106670312D03*
X160329334Y-106210692D03*
X160788954Y-105751073D03*
X161248573Y-105291454D03*
X161708192Y-104831834D03*
X162167812Y-104372215D03*
D23*
X162167812Y-103634985D03*
X161708192Y-103175366D03*
X161248573Y-102715746D03*
X160788954Y-102256127D03*
X160329334Y-101796508D03*
X159869715Y-101336888D03*
D22*
X159132485Y-101336888D03*
X158672866Y-101796508D03*
X158213246Y-102256127D03*
X157753627Y-102715746D03*
X157294008Y-103175366D03*
X156834388Y-103634985D03*
D23*
X156834388Y-104372215D03*
X157294008Y-104831834D03*
X157753627Y-105291454D03*
X158213246Y-105751073D03*
X158672866Y-106210692D03*
X159132485Y-106670312D03*
D24*
X159501100Y-104003600D03*
%TD*%
D36*
%TO.C,R26*%
X74441100Y-54118600D03*
X74441100Y-53608600D03*
%TD*%
D20*
%TO.C,R163*%
X105866100Y-68763600D03*
X106376100Y-68763600D03*
%TD*%
D61*
%TO.C,U13*%
X102708900Y-110953600D03*
X102708900Y-110453600D03*
X102708900Y-109953600D03*
D62*
X101761100Y-109501100D03*
X101261100Y-109501100D03*
X100761100Y-109501100D03*
D61*
X99813300Y-109953600D03*
X99813300Y-110453600D03*
X99813300Y-110953600D03*
D62*
X100761100Y-111406100D03*
X101261100Y-111406100D03*
X101761100Y-111406100D03*
%TD*%
D12*
%TO.C,JP20*%
X97001100Y-64773600D03*
X97001100Y-62233600D03*
%TD*%
D20*
%TO.C,R142*%
X55591100Y-67473600D03*
X56101100Y-67473600D03*
%TD*%
D44*
%TO.C,X54*%
X265301100Y-156773600D03*
X265301100Y-154233600D03*
%TD*%
D30*
%TO.C,R117*%
X88536100Y-42133600D03*
X88026100Y-42133600D03*
%TD*%
D26*
%TO.C,J28*%
X189311100Y-42543600D03*
D27*
X185718998Y-42543600D03*
X189311100Y-46135702D03*
X192903202Y-42543600D03*
X189311100Y-38951498D03*
%TD*%
D37*
%TO.C,C23*%
X84671100Y-140833600D03*
X84671100Y-140333600D03*
%TD*%
D44*
%TO.C,X18*%
X24021100Y-112173600D03*
X24021100Y-114713600D03*
%TD*%
D12*
%TO.C,JP10*%
X83421100Y-174053600D03*
X83421100Y-176593600D03*
X83421100Y-179133600D03*
%TD*%
D28*
%TO.C,C171*%
X257466038Y-51734437D03*
X257819592Y-51380883D03*
%TD*%
D60*
%TO.C,L17*%
X47011100Y-217523600D03*
X52011100Y-217523600D03*
%TD*%
D29*
%TO.C,C121*%
X179002389Y-107696148D03*
X178648835Y-108049702D03*
%TD*%
%TO.C,C117*%
X254912930Y-107688223D03*
X254559376Y-108041777D03*
%TD*%
D30*
%TO.C,R17*%
X77826100Y-106083600D03*
X77316100Y-106083600D03*
%TD*%
D29*
%TO.C,C219*%
X227961170Y-100959795D03*
X227607616Y-101313349D03*
%TD*%
%TO.C,C144*%
X179247877Y-24906823D03*
X178894323Y-25260377D03*
%TD*%
D13*
%TO.C,R52*%
X44611100Y-71628600D03*
X44611100Y-72138600D03*
%TD*%
D28*
%TO.C,C250*%
X152497604Y-97591274D03*
X152851158Y-97237720D03*
%TD*%
D25*
%TO.C,C212*%
X255917805Y-97140781D03*
X255564251Y-96787227D03*
%TD*%
D13*
%TO.C,R58*%
X167991100Y-117053600D03*
X167991100Y-117563600D03*
%TD*%
%TO.C,R166*%
X72551100Y-120718600D03*
X72551100Y-121228600D03*
%TD*%
D44*
%TO.C,X55*%
X23451100Y-194753600D03*
X23451100Y-197293600D03*
%TD*%
D45*
%TO.C,X44*%
X135891265Y-235079250D03*
X133351265Y-235079250D03*
X130811265Y-235079250D03*
%TD*%
D13*
%TO.C,R102*%
X80051100Y-227618600D03*
X80051100Y-228128600D03*
%TD*%
D18*
%TO.C,C225*%
X229714510Y-126371242D03*
X230068064Y-126724796D03*
%TD*%
D21*
%TO.C,C78*%
X128491100Y-215813600D03*
X128491100Y-217113600D03*
%TD*%
D35*
%TO.C,C61*%
X93811100Y-110073600D03*
X94311100Y-110073600D03*
%TD*%
D63*
%TO.C,J21*%
X95441100Y-98877369D03*
X95441100Y-97607369D03*
D64*
X94171100Y-99512369D03*
X94171100Y-96972369D03*
X96711100Y-99512369D03*
X96711100Y-96972369D03*
%TD*%
D20*
%TO.C,R164*%
X105866100Y-67863600D03*
X106376100Y-67863600D03*
%TD*%
D28*
%TO.C,C102*%
X158155707Y-42255159D03*
X158509261Y-41901605D03*
%TD*%
D35*
%TO.C,C64*%
X90861100Y-110113600D03*
X91361100Y-110113600D03*
%TD*%
D44*
%TO.C,X24*%
X23021100Y-166833600D03*
X23021100Y-169373600D03*
%TD*%
D20*
%TO.C,R51*%
X44421100Y-74513600D03*
X44931100Y-74513600D03*
%TD*%
D45*
%TO.C,X3*%
X130982403Y-200003472D03*
X133522403Y-200003472D03*
X136062403Y-200003472D03*
%TD*%
D29*
%TO.C,C209*%
X226816695Y-98285945D03*
X226463141Y-98639499D03*
%TD*%
D37*
%TO.C,C88*%
X169991100Y-32268600D03*
X169991100Y-31768600D03*
%TD*%
D65*
%TO.C,U88*%
X165668156Y-215610210D03*
X165668156Y-216260210D03*
X165668156Y-216910210D03*
X165668156Y-217560210D03*
X165668156Y-218210206D03*
X165668156Y-218860210D03*
X165668156Y-219510206D03*
X165668156Y-220160210D03*
X171306956Y-220160210D03*
X171306956Y-219510210D03*
X171306956Y-218860210D03*
X171306956Y-218210210D03*
X171306956Y-217560214D03*
X171306956Y-216910210D03*
X171306956Y-216260214D03*
X171306956Y-215610210D03*
%TD*%
D35*
%TO.C,L3*%
X92916100Y-110083600D03*
X93466100Y-110083600D03*
%TD*%
D18*
%TO.C,C74*%
X183274826Y-21733895D03*
X183628380Y-22087449D03*
%TD*%
D26*
%TO.C,J53*%
X159921100Y-93213600D03*
D27*
X156328998Y-93213600D03*
X159921100Y-96805702D03*
X163513202Y-93213600D03*
X159921100Y-89621498D03*
%TD*%
D20*
%TO.C,R151*%
X172716100Y-217573600D03*
X173226100Y-217573600D03*
%TD*%
D66*
%TO.C,D2*%
X92031100Y-137400600D03*
X92031100Y-135646600D03*
%TD*%
D28*
%TO.C,C66*%
X153688969Y-22687449D03*
X154042523Y-22333895D03*
%TD*%
D67*
%TO.C,U69*%
X64876100Y-232313600D03*
X64876100Y-232813600D03*
X64876100Y-233313600D03*
X64876100Y-233813600D03*
X64876100Y-234313600D03*
X64876100Y-234813600D03*
D68*
X65600785Y-235538600D03*
X66100913Y-235538600D03*
X66601038Y-235538600D03*
X67101162Y-235538600D03*
X67601287Y-235538600D03*
X68101415Y-235538600D03*
D67*
X68826100Y-234813600D03*
X68826100Y-234313600D03*
X68826100Y-233813600D03*
X68826100Y-233313600D03*
X68826100Y-232813600D03*
X68826100Y-232313600D03*
D68*
X68101415Y-231588600D03*
X67601287Y-231588600D03*
X67101162Y-231588600D03*
X66601038Y-231588600D03*
X66100913Y-231588600D03*
X65600785Y-231588600D03*
D69*
X66851100Y-233563600D03*
D70*
X66063700Y-234351000D03*
X66063700Y-233563600D03*
X66063700Y-232776200D03*
X66851100Y-234351000D03*
X66851100Y-233563600D03*
X66851100Y-232776200D03*
X67638500Y-234351000D03*
X67638500Y-233563600D03*
X67638500Y-232776200D03*
%TD*%
D71*
%TO.C,U66*%
X260435681Y-58057041D03*
X262806469Y-55686253D03*
%TD*%
D30*
%TO.C,R62*%
X26966100Y-71743600D03*
X26456100Y-71743600D03*
%TD*%
D36*
%TO.C,R173*%
X82001100Y-98508600D03*
X82001100Y-97998600D03*
%TD*%
D71*
%TO.C,U41*%
X183978087Y-57124551D03*
X186348875Y-54753763D03*
%TD*%
D36*
%TO.C,R127*%
X106001100Y-211888600D03*
X106001100Y-211378600D03*
%TD*%
D37*
%TO.C,C164*%
X113641100Y-147783600D03*
X113641100Y-147283600D03*
%TD*%
%TO.C,C50*%
X36131100Y-72758600D03*
X36131100Y-72258600D03*
%TD*%
D25*
%TO.C,C197*%
X258926777Y-24294346D03*
X258573223Y-23940792D03*
%TD*%
D20*
%TO.C,R162*%
X105866100Y-69663600D03*
X106376100Y-69663600D03*
%TD*%
D72*
%TO.C,U2*%
X103629900Y-161523600D03*
X103629900Y-161023600D03*
X103629900Y-160523600D03*
X103629900Y-160023600D03*
X103629900Y-159523600D03*
X103629900Y-159023600D03*
X103629900Y-158523600D03*
X103629900Y-158023600D03*
X103629900Y-157523600D03*
X103629900Y-157023600D03*
X103629900Y-156523600D03*
X103629900Y-156023600D03*
X103629900Y-155523600D03*
X103629900Y-155023600D03*
X103629900Y-154523600D03*
X103629900Y-154023600D03*
X103629900Y-153523600D03*
X103629900Y-153023600D03*
X103629900Y-152523600D03*
X103629900Y-152023600D03*
X103629900Y-151523600D03*
X103629900Y-151023600D03*
X103629900Y-150523600D03*
X103629900Y-150023600D03*
X103629900Y-149523600D03*
X103629900Y-149023600D03*
X103629900Y-148523600D03*
X103629900Y-148023600D03*
X103629900Y-147523600D03*
X103629900Y-147023600D03*
X103629900Y-146523600D03*
X103629900Y-146023600D03*
X103629900Y-145523600D03*
X103629900Y-145023600D03*
X103629900Y-144523600D03*
X103629900Y-144023600D03*
D73*
X101661100Y-142054800D03*
X101161100Y-142054800D03*
X100661100Y-142054800D03*
X100161100Y-142054800D03*
X99661100Y-142054800D03*
X99161100Y-142054800D03*
X98661100Y-142054800D03*
X98161100Y-142054800D03*
X97661100Y-142054800D03*
X97161100Y-142054800D03*
X96661100Y-142054800D03*
X96161100Y-142054800D03*
X95661100Y-142054800D03*
X95161100Y-142054800D03*
X94661100Y-142054800D03*
X94161100Y-142054800D03*
X93661100Y-142054800D03*
X93161100Y-142054800D03*
X92661100Y-142054800D03*
X92161100Y-142054800D03*
X91661100Y-142054800D03*
X91161100Y-142054800D03*
X90661100Y-142054800D03*
X90161100Y-142054800D03*
X89661100Y-142054800D03*
X89161100Y-142054800D03*
X88661100Y-142054800D03*
X88161100Y-142054800D03*
X87661100Y-142054800D03*
X87161100Y-142054800D03*
X86661100Y-142054800D03*
X86161100Y-142054800D03*
X85661100Y-142054800D03*
X85161100Y-142054800D03*
X84661100Y-142054800D03*
X84161100Y-142054800D03*
D72*
X82192300Y-144023600D03*
X82192300Y-144523600D03*
X82192300Y-145023600D03*
X82192300Y-145523600D03*
X82192300Y-146023600D03*
X82192300Y-146523600D03*
X82192300Y-147023600D03*
X82192300Y-147523600D03*
X82192300Y-148023600D03*
X82192300Y-148523600D03*
X82192300Y-149023600D03*
X82192300Y-149523600D03*
X82192300Y-150023600D03*
X82192300Y-150523600D03*
X82192300Y-151023600D03*
X82192300Y-151523600D03*
X82192300Y-152023600D03*
X82192300Y-152523600D03*
X82192300Y-153023600D03*
X82192300Y-153523600D03*
X82192300Y-154023600D03*
X82192300Y-154523600D03*
X82192300Y-155023600D03*
X82192300Y-155523600D03*
X82192300Y-156023600D03*
X82192300Y-156523600D03*
X82192300Y-157023600D03*
X82192300Y-157523600D03*
X82192300Y-158023600D03*
X82192300Y-158523600D03*
X82192300Y-159023600D03*
X82192300Y-159523600D03*
X82192300Y-160023600D03*
X82192300Y-160523600D03*
X82192300Y-161023600D03*
X82192300Y-161523600D03*
D73*
X84161100Y-163492400D03*
X84661100Y-163492400D03*
X85161100Y-163492400D03*
X85661100Y-163492400D03*
X86161100Y-163492400D03*
X86661100Y-163492400D03*
X87161100Y-163492400D03*
X87661100Y-163492400D03*
X88161100Y-163492400D03*
X88661100Y-163492400D03*
X89161100Y-163492400D03*
X89661100Y-163492400D03*
X90161100Y-163492400D03*
X90661100Y-163492400D03*
X91161100Y-163492400D03*
X91661100Y-163492400D03*
X92161100Y-163492400D03*
X92661100Y-163492400D03*
X93161100Y-163492400D03*
X93661100Y-163492400D03*
X94161100Y-163492400D03*
X94661100Y-163492400D03*
X95161100Y-163492400D03*
X95661100Y-163492400D03*
X96161100Y-163492400D03*
X96661100Y-163492400D03*
X97161100Y-163492400D03*
X97661100Y-163492400D03*
X98161100Y-163492400D03*
X98661100Y-163492400D03*
X99161100Y-163492400D03*
X99661100Y-163492400D03*
X100161100Y-163492400D03*
X100661100Y-163492400D03*
X101161100Y-163492400D03*
X101661100Y-163492400D03*
%TD*%
D20*
%TO.C,R60*%
X18346100Y-287303600D03*
X18856100Y-287303600D03*
%TD*%
D48*
%TO.C,ADTR1107_2*%
X177132485Y-43336888D03*
X176672866Y-43796508D03*
X176213246Y-44256127D03*
X175753627Y-44715746D03*
X175294008Y-45175366D03*
X174834388Y-45634985D03*
D74*
X174834388Y-46372215D03*
X175294008Y-46831834D03*
X175753627Y-47291454D03*
X176213246Y-47751073D03*
X176672866Y-48210692D03*
X177132485Y-48670312D03*
D48*
X177869715Y-48670312D03*
X178329334Y-48210692D03*
X178788954Y-47751073D03*
X179248573Y-47291454D03*
X179708192Y-46831834D03*
X180167812Y-46372215D03*
D74*
X180167812Y-45634985D03*
X179708192Y-45175366D03*
X179248573Y-44715746D03*
X178788954Y-44256127D03*
X178329334Y-43796508D03*
X177869715Y-43336888D03*
D75*
X177501100Y-46003600D03*
%TD*%
D21*
%TO.C,C76*%
X62676100Y-216579032D03*
X62676100Y-217879032D03*
%TD*%
D45*
%TO.C,X7*%
X140281100Y-163033600D03*
X142821100Y-163033600D03*
%TD*%
D28*
%TO.C,C227*%
X233344323Y-125560377D03*
X233697877Y-125206823D03*
%TD*%
D25*
%TO.C,C116*%
X249901348Y-123350302D03*
X249547794Y-122996748D03*
%TD*%
D45*
%TO.C,X_6*%
X57731100Y-225503600D03*
X60271100Y-225503600D03*
%TD*%
D66*
%TO.C,D5*%
X95181100Y-137430600D03*
X95181100Y-135676600D03*
%TD*%
D36*
%TO.C,R152*%
X221421100Y-225038600D03*
X221421100Y-224528600D03*
%TD*%
D31*
%TO.C,U87*%
X188677959Y-226049410D03*
X188677959Y-225399410D03*
X188677959Y-224749410D03*
X188677959Y-224099410D03*
X184277959Y-224099410D03*
X184277959Y-224749410D03*
X184277959Y-225399410D03*
X184277959Y-226049410D03*
%TD*%
D71*
%TO.C,U51*%
X265607702Y-129454166D03*
X267978490Y-127083378D03*
%TD*%
D20*
%TO.C,R158*%
X105866100Y-73413600D03*
X106376100Y-73413600D03*
%TD*%
D31*
%TO.C,U86*%
X177759362Y-225910819D03*
X177759362Y-225260819D03*
X177759362Y-224610819D03*
X177759362Y-223960819D03*
X173359362Y-223960819D03*
X173359362Y-224610819D03*
X173359362Y-225260819D03*
X173359362Y-225910819D03*
%TD*%
D48*
%TO.C,ADTR1107_14*%
X177132485Y-119336888D03*
X176672866Y-119796508D03*
X176213246Y-120256127D03*
X175753627Y-120715746D03*
X175294008Y-121175366D03*
X174834388Y-121634985D03*
D74*
X174834388Y-122372215D03*
X175294008Y-122831834D03*
X175753627Y-123291454D03*
X176213246Y-123751073D03*
X176672866Y-124210692D03*
X177132485Y-124670312D03*
D48*
X177869715Y-124670312D03*
X178329334Y-124210692D03*
X178788954Y-123751073D03*
X179248573Y-123291454D03*
X179708192Y-122831834D03*
X180167812Y-122372215D03*
D74*
X180167812Y-121634985D03*
X179708192Y-121175366D03*
X179248573Y-120715746D03*
X178788954Y-120256127D03*
X178329334Y-119796508D03*
X177869715Y-119336888D03*
D75*
X177501100Y-122003600D03*
%TD*%
D13*
%TO.C,R40*%
X68741100Y-207268600D03*
X68741100Y-207778600D03*
%TD*%
%TO.C,R93*%
X53091100Y-197688600D03*
X53091100Y-198198600D03*
%TD*%
%TO.C,R45*%
X170461100Y-41003600D03*
X170461100Y-41513600D03*
%TD*%
D76*
%TO.C,U1*%
X80351100Y-91851200D03*
X79851100Y-91851200D03*
X79351100Y-91851200D03*
X78851100Y-91851200D03*
X78351100Y-91851200D03*
X77851100Y-91851200D03*
X77351100Y-91851200D03*
X76851100Y-91851200D03*
X76351100Y-91851200D03*
X75851100Y-91851200D03*
X75351100Y-91851200D03*
X74851100Y-91851200D03*
X74351100Y-91851200D03*
X73851100Y-91851200D03*
D77*
X73198700Y-92503600D03*
X73198700Y-93003600D03*
X73198700Y-93503600D03*
X73198700Y-94003600D03*
X73198700Y-94503600D03*
X73198700Y-95003600D03*
X73198700Y-95503600D03*
X73198700Y-96003600D03*
X73198700Y-96503600D03*
X73198700Y-97003600D03*
X73198700Y-97503600D03*
X73198700Y-98003600D03*
X73198700Y-98503600D03*
X73198700Y-99003600D03*
D76*
X73851100Y-99656000D03*
X74351100Y-99656000D03*
X74851100Y-99656000D03*
X75351100Y-99656000D03*
X75851100Y-99656000D03*
X76351100Y-99656000D03*
X76851100Y-99656000D03*
X77351100Y-99656000D03*
X77851100Y-99656000D03*
X78351100Y-99656000D03*
X78851100Y-99656000D03*
X79351100Y-99656000D03*
X79851100Y-99656000D03*
X80351100Y-99656000D03*
D77*
X81003500Y-99003600D03*
X81003500Y-98503600D03*
X81003500Y-98003600D03*
X81003500Y-97503600D03*
X81003500Y-97003600D03*
X81003500Y-96503600D03*
X81003500Y-96003600D03*
X81003500Y-95503600D03*
X81003500Y-95003600D03*
X81003500Y-94503600D03*
X81003500Y-94003600D03*
X81003500Y-93503600D03*
X81003500Y-93003600D03*
X81003500Y-92503600D03*
D78*
X77101100Y-95753600D03*
%TD*%
D19*
%TO.C,U37*%
X153516494Y-16478206D03*
X151145706Y-18848994D03*
%TD*%
D25*
%TO.C,C17*%
X77789989Y-62394109D03*
X77436435Y-62040555D03*
%TD*%
D12*
%TO.C,JP4*%
X88971100Y-174123600D03*
X88971100Y-176663600D03*
X88971100Y-179203600D03*
%TD*%
D37*
%TO.C,C32*%
X79839921Y-149542572D03*
X79839921Y-149042572D03*
%TD*%
D13*
%TO.C,R137*%
X152981100Y-222968600D03*
X152981100Y-223478600D03*
%TD*%
%TO.C,R53*%
X36011100Y-70498600D03*
X36011100Y-71008600D03*
%TD*%
D45*
%TO.C,X48*%
X150900256Y-200014138D03*
X153440256Y-200014138D03*
X155980256Y-200014138D03*
%TD*%
D79*
%TO.C,L15*%
X128536100Y-28858600D03*
X123536100Y-28858600D03*
%TD*%
D25*
%TO.C,C111*%
X79614323Y-60555631D03*
X79260769Y-60202077D03*
%TD*%
D37*
%TO.C,C51*%
X76891100Y-115993600D03*
X76891100Y-115493600D03*
%TD*%
D18*
%TO.C,C217*%
X230204576Y-130540727D03*
X230558130Y-130894281D03*
%TD*%
D35*
%TO.C,C291*%
X56351100Y-79403600D03*
X56851100Y-79403600D03*
%TD*%
D37*
%TO.C,C13*%
X82321100Y-99783600D03*
X82321100Y-99283600D03*
%TD*%
D17*
%TO.C,C260*%
X118102087Y-210302444D03*
X118102087Y-209002444D03*
%TD*%
D44*
%TO.C,X4*%
X265031100Y-194553600D03*
X265031100Y-192013600D03*
%TD*%
D25*
%TO.C,C113*%
X80544170Y-59611643D03*
X80190616Y-59258089D03*
%TD*%
D45*
%TO.C,X40*%
X100835990Y-199920391D03*
X103375990Y-199920391D03*
X105915990Y-199920391D03*
%TD*%
D37*
%TO.C,C31*%
X84164365Y-139988863D03*
X84164365Y-139488863D03*
%TD*%
D46*
%TO.C,U39*%
X188851140Y-21810210D03*
X186480352Y-19439422D03*
%TD*%
D37*
%TO.C,C27*%
X105598812Y-147016160D03*
X105598812Y-146516160D03*
%TD*%
D29*
%TO.C,C202*%
X227336439Y-98766202D03*
X226982885Y-99119756D03*
%TD*%
D80*
%TO.C,J18*%
X85511100Y-59763600D03*
D27*
X82971100Y-57223600D03*
X82971100Y-62303600D03*
X88051100Y-62303600D03*
X88051100Y-57223600D03*
%TD*%
D18*
%TO.C,C214*%
X259293316Y-97597877D03*
X259646870Y-97951431D03*
%TD*%
D33*
%TO.C,C97*%
X244211100Y-118718600D03*
X244211100Y-119218600D03*
%TD*%
D35*
%TO.C,C278*%
X122771100Y-218723600D03*
X123271100Y-218723600D03*
%TD*%
D23*
%TO.C,ADTR1107_4*%
X174834388Y-28372215D03*
X175294008Y-28831834D03*
X175753627Y-29291454D03*
X176213246Y-29751073D03*
X176672866Y-30210692D03*
X177132485Y-30670312D03*
D48*
X177869715Y-30670312D03*
X178329334Y-30210692D03*
X178788954Y-29751073D03*
X179248573Y-29291454D03*
X179708192Y-28831834D03*
X180167812Y-28372215D03*
D23*
X180167812Y-27634985D03*
X179708192Y-27175366D03*
X179248573Y-26715746D03*
X178788954Y-26256127D03*
X178329334Y-25796508D03*
X177869715Y-25336888D03*
D48*
X177132485Y-25336888D03*
X176672866Y-25796508D03*
X176213246Y-26256127D03*
X175753627Y-26715746D03*
X175294008Y-27175366D03*
X174834388Y-27634985D03*
D49*
X177501100Y-28003600D03*
%TD*%
D25*
%TO.C,C211*%
X259000002Y-100228534D03*
X258646448Y-99874980D03*
%TD*%
D35*
%TO.C,C294*%
X183021100Y-222963600D03*
X183521100Y-222963600D03*
%TD*%
D30*
%TO.C,R91*%
X83376100Y-198773600D03*
X82866100Y-198773600D03*
%TD*%
D81*
%TO.C,U$3*%
X101221100Y-107933600D03*
X119636100Y-107933600D03*
%TD*%
D21*
%TO.C,C320*%
X225741100Y35766400D03*
X225741100Y34466400D03*
%TD*%
D12*
%TO.C,JP5*%
X222871100Y-202483600D03*
X222871100Y-205023600D03*
X222871100Y-207563600D03*
%TD*%
D30*
%TO.C,R139*%
X87786100Y-84508600D03*
X87276100Y-84508600D03*
%TD*%
D13*
%TO.C,R46*%
X170452753Y-29723813D03*
X170452753Y-30233813D03*
%TD*%
D37*
%TO.C,C272*%
X101001100Y-38903600D03*
X101001100Y-38403600D03*
%TD*%
D82*
%TO.C,U80*%
X181288903Y-208852491D03*
X181288903Y-209502491D03*
X181288903Y-210152491D03*
X181288903Y-210802491D03*
X185688903Y-210802491D03*
X185688903Y-210152491D03*
X185688903Y-209502491D03*
X185688903Y-208852491D03*
%TD*%
D20*
%TO.C,R120*%
X52906100Y-237083600D03*
X53416100Y-237083600D03*
%TD*%
D18*
%TO.C,C254*%
X156751935Y-129372558D03*
X157105489Y-129726112D03*
%TD*%
D36*
%TO.C,R115*%
X94861100Y-42078600D03*
X94861100Y-41568600D03*
%TD*%
D30*
%TO.C,R3*%
X76316100Y-81893600D03*
X75806100Y-81893600D03*
%TD*%
D35*
%TO.C,C176*%
X80896100Y-80133600D03*
X81396100Y-80133600D03*
%TD*%
D26*
%TO.C,J40*%
X263951100Y-120843600D03*
D27*
X260358998Y-120843600D03*
X263951100Y-124435702D03*
X267543202Y-120843600D03*
X263951100Y-117251498D03*
%TD*%
D25*
%TO.C,C223*%
X258679267Y-95979709D03*
X258325713Y-95626155D03*
%TD*%
D33*
%TO.C,C26*%
X105593275Y-153492985D03*
X105593275Y-153992985D03*
%TD*%
D26*
%TO.C,J54*%
X161201100Y-133833600D03*
D27*
X157608998Y-133833600D03*
X161201100Y-137425702D03*
X164793202Y-133833600D03*
X161201100Y-130241498D03*
%TD*%
D35*
%TO.C,L9*%
X89886100Y-110113600D03*
X90436100Y-110113600D03*
%TD*%
D45*
%TO.C,X13*%
X221831100Y22226400D03*
X219291100Y22226400D03*
%TD*%
D37*
%TO.C,C10*%
X78896100Y-101483600D03*
X78896100Y-100983600D03*
%TD*%
D45*
%TO.C,X46*%
X170872106Y-200050982D03*
X173412106Y-200050982D03*
X175952106Y-200050982D03*
%TD*%
D37*
%TO.C,C4*%
X74371100Y-101783600D03*
X74371100Y-101283600D03*
%TD*%
D83*
%TO.C,C341*%
X213376868Y-224275329D03*
X212076868Y-224275329D03*
%TD*%
D84*
%TO.C,C340*%
X213366184Y-222033857D03*
X211466184Y-222033857D03*
%TD*%
D29*
%TO.C,C160*%
X184571364Y-128377339D03*
X184217810Y-128730893D03*
%TD*%
D18*
%TO.C,C73*%
X182717254Y-22191470D03*
X183070808Y-22545024D03*
%TD*%
D85*
%TO.C,OPA_3*%
X79451100Y-235623000D03*
X80101100Y-235623000D03*
X80751100Y-235623000D03*
X81401100Y-235623000D03*
X82051100Y-235623000D03*
X82701100Y-235623000D03*
X83351100Y-235623000D03*
X83351100Y-229984200D03*
X82701100Y-229984200D03*
X82051100Y-229984200D03*
X81401100Y-229984200D03*
X80751100Y-229984200D03*
X80101100Y-229984200D03*
X79451100Y-229984200D03*
%TD*%
D30*
%TO.C,R105*%
X83286100Y-228673600D03*
X82776100Y-228673600D03*
%TD*%
D20*
%TO.C,R143*%
X78316100Y-71598600D03*
X78826100Y-71598600D03*
%TD*%
D25*
%TO.C,C229*%
X229976127Y-52010243D03*
X229622573Y-51656689D03*
%TD*%
D33*
%TO.C,C301*%
X218081100Y-224123600D03*
X218081100Y-224623600D03*
%TD*%
D21*
%TO.C,C266*%
X181291100Y-224443600D03*
X181291100Y-225743600D03*
%TD*%
D18*
%TO.C,C248*%
X155804323Y-101746823D03*
X156157877Y-102100377D03*
%TD*%
D28*
%TO.C,C204*%
X257313501Y-127605856D03*
X257667055Y-127252302D03*
%TD*%
D26*
%TO.C,J51*%
X188091100Y-104113600D03*
D27*
X184498998Y-104113600D03*
X188091100Y-107705702D03*
X191683202Y-104113600D03*
X188091100Y-100521498D03*
%TD*%
D42*
%TO.C,RF_SW_5*%
X231634410Y-49540391D03*
X231280856Y-49893945D03*
X230927303Y-50247498D03*
X230573749Y-50601052D03*
D14*
X230587891Y-51520290D03*
X230941445Y-51873844D03*
X231294998Y-52227397D03*
X231648552Y-52580951D03*
D42*
X232553648Y-52580951D03*
X232907202Y-52227397D03*
X233260755Y-51873844D03*
X233614309Y-51520290D03*
D14*
X233628451Y-50601052D03*
X233274897Y-50247498D03*
X232921344Y-49893945D03*
X232567790Y-49540391D03*
D86*
X232101100Y-51053600D03*
%TD*%
D26*
%TO.C,J44*%
X223551100Y-105293600D03*
D27*
X219958998Y-105293600D03*
X223551100Y-108885702D03*
X227143202Y-105293600D03*
X223551100Y-101701498D03*
%TD*%
D28*
%TO.C,C205*%
X260385594Y-124535890D03*
X260739148Y-124182336D03*
%TD*%
D26*
%TO.C,J35*%
X225251100Y-44443600D03*
D27*
X221658998Y-44443600D03*
X225251100Y-48035702D03*
X228843202Y-44443600D03*
X225251100Y-40851498D03*
%TD*%
D36*
%TO.C,R111*%
X113641100Y-146698600D03*
X113641100Y-146188600D03*
%TD*%
%TO.C,R135*%
X165821100Y-211888600D03*
X165821100Y-211378600D03*
%TD*%
D30*
%TO.C,R89*%
X80086100Y-207173600D03*
X79576100Y-207173600D03*
%TD*%
D82*
%TO.C,U83*%
X151176381Y-208964769D03*
X151176381Y-209614769D03*
X151176381Y-210264769D03*
X151176381Y-210914769D03*
X155576381Y-210914769D03*
X155576381Y-210264769D03*
X155576381Y-209614769D03*
X155576381Y-208964769D03*
%TD*%
D37*
%TO.C,C92*%
X243516100Y-32763600D03*
X243516100Y-32263600D03*
%TD*%
D29*
%TO.C,C247*%
X152038636Y-101100223D03*
X151685082Y-101453777D03*
%TD*%
D13*
%TO.C,R153*%
X218831100Y-224268600D03*
X218831100Y-224778600D03*
%TD*%
D35*
%TO.C,C181*%
X80876100Y-83338600D03*
X81376100Y-83338600D03*
%TD*%
D82*
%TO.C,U73*%
X121303703Y-208784241D03*
X121303703Y-209434241D03*
X121303703Y-210084241D03*
X121303703Y-210734241D03*
X125703703Y-210734241D03*
X125703703Y-210084241D03*
X125703703Y-209434241D03*
X125703703Y-208784241D03*
%TD*%
D45*
%TO.C,X_4*%
X60471100Y-210553600D03*
X57931100Y-210553600D03*
%TD*%
D87*
%TO.C,U6*%
X41356100Y-42403600D03*
X41356100Y-42803600D03*
X41356100Y-43203600D03*
X41356100Y-43603600D03*
X41356100Y-44003600D03*
X41356100Y-44403600D03*
X41356100Y-44803600D03*
X41356100Y-45203600D03*
X41356100Y-45603600D03*
X41356100Y-46003600D03*
X41356100Y-46403600D03*
X41356100Y-46803600D03*
X41356100Y-47203600D03*
X41356100Y-47603600D03*
X41356100Y-48003600D03*
X41356100Y-48403600D03*
X41356100Y-48803600D03*
X41356100Y-49203600D03*
X41356100Y-49603600D03*
D88*
X42201100Y-50448600D03*
X42601100Y-50448600D03*
X43001100Y-50448600D03*
X43401100Y-50448600D03*
X43801100Y-50448600D03*
X44201100Y-50448600D03*
X44601100Y-50448600D03*
X45001100Y-50448600D03*
X45401100Y-50448600D03*
X45801100Y-50448600D03*
X46201100Y-50448600D03*
X46601100Y-50448600D03*
X47001100Y-50448600D03*
X47401100Y-50448600D03*
X47801100Y-50448600D03*
X48201100Y-50448600D03*
X48601100Y-50448600D03*
X49001100Y-50448600D03*
X49401100Y-50448600D03*
D87*
X50246100Y-49603600D03*
X50246100Y-49203600D03*
X50246100Y-48803600D03*
X50246100Y-48403600D03*
X50246100Y-48003600D03*
X50246100Y-47603600D03*
X50246100Y-47203600D03*
X50246100Y-46803600D03*
X50246100Y-46403600D03*
X50246100Y-46003600D03*
X50246100Y-45603600D03*
X50246100Y-45203600D03*
X50246100Y-44803600D03*
X50246100Y-44403600D03*
X50246100Y-44003600D03*
X50246100Y-43603600D03*
X50246100Y-43203600D03*
X50246100Y-42803600D03*
X50246100Y-42403600D03*
D88*
X49401100Y-41558600D03*
X49001100Y-41558600D03*
X48601100Y-41558600D03*
X48201100Y-41558600D03*
X47801100Y-41558600D03*
X47401100Y-41558600D03*
X47001100Y-41558600D03*
X46601100Y-41558600D03*
X46201100Y-41558600D03*
X45801100Y-41558600D03*
X45401100Y-41558600D03*
X45001100Y-41558600D03*
X44601100Y-41558600D03*
X44201100Y-41558600D03*
X43801100Y-41558600D03*
X43401100Y-41558600D03*
X43001100Y-41558600D03*
X42601100Y-41558600D03*
X42201100Y-41558600D03*
D89*
X45801100Y-46003600D03*
%TD*%
D17*
%TO.C,C344*%
X138458231Y-210417854D03*
X138458231Y-209117854D03*
%TD*%
D13*
%TO.C,R131*%
X132931100Y-222968600D03*
X132931100Y-223478600D03*
%TD*%
D21*
%TO.C,C331*%
X118006009Y-27705225D03*
X118006009Y-29005225D03*
%TD*%
D36*
%TO.C,R169*%
X98221100Y-165188600D03*
X98221100Y-164678600D03*
%TD*%
D37*
%TO.C,C309*%
X94191100Y-40993600D03*
X94191100Y-40493600D03*
%TD*%
D13*
%TO.C,R41*%
X67441100Y-201088600D03*
X67441100Y-201598600D03*
%TD*%
%TO.C,R116*%
X94871100Y-40488600D03*
X94871100Y-40998600D03*
%TD*%
D33*
%TO.C,C18*%
X111331100Y-158873600D03*
X111331100Y-159373600D03*
%TD*%
D20*
%TO.C,R156*%
X47816100Y-89713600D03*
X48326100Y-89713600D03*
%TD*%
D36*
%TO.C,R170*%
X97671100Y-165188600D03*
X97671100Y-164678600D03*
%TD*%
D90*
%TO.C,J34*%
X237341100Y-56653600D03*
D27*
X237341100Y-60245702D03*
X240933202Y-56653600D03*
X237341100Y-53061498D03*
X233748998Y-56653600D03*
%TD*%
D53*
%TO.C,JP18*%
X55761100Y-168503600D03*
X53221100Y-168503600D03*
X50681100Y-168503600D03*
X48141100Y-168503600D03*
%TD*%
D65*
%TO.C,U10*%
X115726609Y-215475575D03*
X115726609Y-216125575D03*
X115726609Y-216775575D03*
X115726609Y-217425575D03*
X115726609Y-218075571D03*
X115726609Y-218725575D03*
X115726609Y-219375571D03*
X115726609Y-220025575D03*
X121365409Y-220025575D03*
X121365409Y-219375575D03*
X121365409Y-218725575D03*
X121365409Y-218075575D03*
X121365409Y-217425579D03*
X121365409Y-216775575D03*
X121365409Y-216125579D03*
X121365409Y-215475575D03*
%TD*%
D26*
%TO.C,J41*%
X252811100Y-132143600D03*
D27*
X249218998Y-132143600D03*
X252811100Y-135735702D03*
X256403202Y-132143600D03*
X252811100Y-128551498D03*
%TD*%
D37*
%TO.C,C306*%
X212101100Y-200233600D03*
X212101100Y-199733600D03*
%TD*%
D29*
%TO.C,C199*%
X255497877Y-24656823D03*
X255144323Y-25010377D03*
%TD*%
D37*
%TO.C,C7*%
X76121100Y-101433600D03*
X76121100Y-100933600D03*
%TD*%
D13*
%TO.C,R88*%
X80091100Y-197818600D03*
X80091100Y-198328600D03*
%TD*%
D37*
%TO.C,C302*%
X222851100Y-200533600D03*
X222851100Y-200033600D03*
%TD*%
D91*
%TO.C,R38*%
X73661100Y-104673600D03*
X73661100Y-103673600D03*
%TD*%
D37*
%TO.C,C86*%
X244866100Y-32258600D03*
X244866100Y-31758600D03*
%TD*%
D21*
%TO.C,C350*%
X150359140Y-224293272D03*
X150359140Y-225593272D03*
%TD*%
%TO.C,C324*%
X224091100Y-175713600D03*
X224091100Y-177013600D03*
%TD*%
%TO.C,C349*%
X171121100Y-224433600D03*
X171121100Y-225733600D03*
%TD*%
%TO.C,C325*%
X226131100Y-175673600D03*
X226131100Y-176973600D03*
%TD*%
D85*
%TO.C,OPA_2*%
X49751100Y-205873000D03*
X50401100Y-205873000D03*
X51051100Y-205873000D03*
X51701100Y-205873000D03*
X52351100Y-205873000D03*
X53001100Y-205873000D03*
X53651100Y-205873000D03*
X53651100Y-200234200D03*
X53001100Y-200234200D03*
X52351100Y-200234200D03*
X51701100Y-200234200D03*
X51051100Y-200234200D03*
X50401100Y-200234200D03*
X49751100Y-200234200D03*
%TD*%
D60*
%TO.C,L12*%
X214361100Y34226400D03*
X219361100Y34226400D03*
%TD*%
D42*
%TO.C,RF_SW_9*%
X231134410Y-126390391D03*
X230780856Y-126743945D03*
X230427303Y-127097498D03*
X230073749Y-127451052D03*
D14*
X230087891Y-128370290D03*
X230441445Y-128723844D03*
X230794998Y-129077397D03*
X231148552Y-129430951D03*
D42*
X232053648Y-129430951D03*
X232407202Y-129077397D03*
X232760755Y-128723844D03*
X233114309Y-128370290D03*
D14*
X233128451Y-127451052D03*
X232774897Y-127097498D03*
X232421344Y-126743945D03*
X232067790Y-126390391D03*
D86*
X231601100Y-127903600D03*
%TD*%
D92*
%TO.C,J27*%
X149541100Y-44313600D03*
D27*
X153133202Y-44313600D03*
X149541100Y-40721498D03*
X145948998Y-44313600D03*
X149541100Y-47905702D03*
%TD*%
D55*
%TO.C,L5*%
X107185500Y-145983257D03*
X108485500Y-145983257D03*
%TD*%
D60*
%TO.C,L1*%
X33691100Y-97273600D03*
X38691100Y-97273600D03*
%TD*%
D35*
%TO.C,C29*%
X94199671Y-139960788D03*
X94699671Y-139960788D03*
%TD*%
D37*
%TO.C,C89*%
X169466100Y-32273600D03*
X169466100Y-31773600D03*
%TD*%
D80*
%TO.C,J1*%
X85501100Y-69103600D03*
D27*
X82961100Y-66563600D03*
X82961100Y-71643600D03*
X88041100Y-71643600D03*
X88041100Y-66563600D03*
%TD*%
D93*
%TO.C,U16*%
X208702200Y-76781600D03*
X208702200Y-76273600D03*
X208702200Y-75765600D03*
X208702200Y-75257600D03*
X208702200Y-74749600D03*
X208702200Y-74241600D03*
X208702200Y-73733600D03*
X208702200Y-73225600D03*
D94*
X208029100Y-72552500D03*
X207521100Y-72552500D03*
X207013100Y-72552500D03*
X206505100Y-72552500D03*
X205997100Y-72552500D03*
X205489100Y-72552500D03*
X204981100Y-72552500D03*
X204473100Y-72552500D03*
D93*
X203800000Y-73225600D03*
X203800000Y-73733600D03*
X203800000Y-74241600D03*
X203800000Y-74749600D03*
X203800000Y-75257600D03*
X203800000Y-75765600D03*
X203800000Y-76273600D03*
X203800000Y-76781600D03*
D94*
X204473100Y-77454700D03*
X204981100Y-77454700D03*
X205489100Y-77454700D03*
X205997100Y-77454700D03*
X206505100Y-77454700D03*
X207013100Y-77454700D03*
X207521100Y-77454700D03*
X208029100Y-77454700D03*
D95*
X206251100Y-75003600D03*
%TD*%
D13*
%TO.C,R87*%
X82891100Y-197698600D03*
X82891100Y-198208600D03*
%TD*%
D63*
%TO.C,J19*%
X93701100Y-74548600D03*
X93701100Y-75818600D03*
D64*
X94971100Y-73913600D03*
X94971100Y-76453600D03*
X92431100Y-73913600D03*
X92431100Y-76453600D03*
%TD*%
D35*
%TO.C,C288*%
X151971100Y-222963600D03*
X152471100Y-222963600D03*
%TD*%
D40*
%TO.C,UNK_HOLE_6*%
X134501100Y-141003600D03*
%TD*%
D28*
%TO.C,C210*%
X261518482Y-127119868D03*
X261872036Y-126766314D03*
%TD*%
D37*
%TO.C,C257*%
X63959050Y-203755013D03*
X63959050Y-203255013D03*
%TD*%
D14*
%TO.C,RF_SW_10*%
X257337891Y-126170290D03*
X257691445Y-126523844D03*
X258044998Y-126877397D03*
X258398552Y-127230951D03*
D15*
X259317790Y-127216809D03*
X259671344Y-126863255D03*
X260024897Y-126509702D03*
X260378451Y-126156148D03*
D14*
X260378451Y-125251052D03*
X260024897Y-124897498D03*
X259671344Y-124543945D03*
X259317790Y-124190391D03*
D15*
X258398552Y-124176249D03*
X258044998Y-124529803D03*
X257691445Y-124883356D03*
X257337891Y-125236910D03*
D16*
X258851100Y-125703600D03*
%TD*%
D96*
%TO.C,U43*%
X152929509Y-58429947D03*
X155300297Y-60800735D03*
%TD*%
D21*
%TO.C,C332*%
X116287578Y-27705225D03*
X116287578Y-29005225D03*
%TD*%
D20*
%TO.C,R35*%
X79456100Y-119323600D03*
X79966100Y-119323600D03*
%TD*%
D35*
%TO.C,C277*%
X122771100Y-219403600D03*
X123271100Y-219403600D03*
%TD*%
D33*
%TO.C,L2*%
X94731100Y-109478600D03*
X94731100Y-110028600D03*
%TD*%
D36*
%TO.C,R136*%
X156021100Y-211938600D03*
X156021100Y-211428600D03*
%TD*%
D37*
%TO.C,C303*%
X227951100Y-200483600D03*
X227951100Y-199983600D03*
%TD*%
D13*
%TO.C,R108*%
X52901100Y-237618600D03*
X52901100Y-238128600D03*
%TD*%
D79*
%TO.C,L16*%
X128101100Y-117983600D03*
X123101100Y-117983600D03*
%TD*%
D28*
%TO.C,C233*%
X184523035Y-124614068D03*
X184876589Y-124260514D03*
%TD*%
D23*
%TO.C,ADTR1107_16*%
X174834388Y-104372215D03*
X175294008Y-104831834D03*
X175753627Y-105291454D03*
X176213246Y-105751073D03*
X176672866Y-106210692D03*
X177132485Y-106670312D03*
D48*
X177869715Y-106670312D03*
X178329334Y-106210692D03*
X178788954Y-105751073D03*
X179248573Y-105291454D03*
X179708192Y-104831834D03*
X180167812Y-104372215D03*
D23*
X180167812Y-103634985D03*
X179708192Y-103175366D03*
X179248573Y-102715746D03*
X178788954Y-102256127D03*
X178329334Y-101796508D03*
X177869715Y-101336888D03*
D48*
X177132485Y-101336888D03*
X176672866Y-101796508D03*
X176213246Y-102256127D03*
X175753627Y-102715746D03*
X175294008Y-103175366D03*
X174834388Y-103634985D03*
D49*
X177501100Y-104003600D03*
%TD*%
D19*
%TO.C,U48*%
X227642575Y-90104956D03*
X225271787Y-92475744D03*
%TD*%
D21*
%TO.C,C327*%
X185191100Y-176243600D03*
X185191100Y-177543600D03*
%TD*%
D85*
%TO.C,OPA_1*%
X49551100Y-235823000D03*
X50201100Y-235823000D03*
X50851100Y-235823000D03*
X51501100Y-235823000D03*
X52151100Y-235823000D03*
X52801100Y-235823000D03*
X53451100Y-235823000D03*
X53451100Y-230184200D03*
X52801100Y-230184200D03*
X52151100Y-230184200D03*
X51501100Y-230184200D03*
X50851100Y-230184200D03*
X50201100Y-230184200D03*
X49551100Y-230184200D03*
%TD*%
D33*
%TO.C,C82*%
X132163737Y-76238544D03*
X132163737Y-76738544D03*
%TD*%
D47*
%TO.C,C322*%
X201481100Y-175913600D03*
X201481100Y-178713600D03*
%TD*%
D35*
%TO.C,C271*%
X112021100Y-222913600D03*
X112521100Y-222913600D03*
%TD*%
D20*
%TO.C,R61*%
X18346100Y-292053600D03*
X18856100Y-292053600D03*
%TD*%
D17*
%TO.C,C351*%
X178325809Y-210541735D03*
X178325809Y-209241735D03*
%TD*%
%TO.C,C262*%
X108199637Y-210385982D03*
X108199637Y-209085982D03*
%TD*%
D30*
%TO.C,R5*%
X71916100Y-82063600D03*
X71406100Y-82063600D03*
%TD*%
%TO.C,R15*%
X77361100Y-112378600D03*
X76851100Y-112378600D03*
%TD*%
D79*
%TO.C,L11*%
X198851100Y34216400D03*
X193851100Y34216400D03*
%TD*%
D37*
%TO.C,C21*%
X111171100Y-149483600D03*
X111171100Y-148983600D03*
%TD*%
%TO.C,C12*%
X80396100Y-101483600D03*
X80396100Y-100983600D03*
%TD*%
D33*
%TO.C,C274*%
X101241100Y-112393600D03*
X101241100Y-112893600D03*
%TD*%
D44*
%TO.C,X16*%
X24521100Y-32453600D03*
X24521100Y-34993600D03*
%TD*%
D29*
%TO.C,C130*%
X183464855Y-51315439D03*
X183111301Y-51668993D03*
%TD*%
%TO.C,C241*%
X179757877Y-100506823D03*
X179404323Y-100860377D03*
%TD*%
D37*
%TO.C,C46*%
X77071100Y-106978600D03*
X77071100Y-106478600D03*
%TD*%
D28*
%TO.C,C207*%
X227975632Y-97231127D03*
X228329186Y-96877573D03*
%TD*%
D31*
%TO.C,U79*%
X137575893Y-226005000D03*
X137575893Y-225355000D03*
X137575893Y-224705000D03*
X137575893Y-224055000D03*
X133175893Y-224055000D03*
X133175893Y-224705000D03*
X133175893Y-225355000D03*
X133175893Y-226005000D03*
%TD*%
D21*
%TO.C,C58*%
X73601100Y-119383600D03*
X73601100Y-120683600D03*
%TD*%
D30*
%TO.C,R16*%
X76766100Y-106063600D03*
X76256100Y-106063600D03*
%TD*%
D97*
%TO.C,ADAR3_0*%
X244501100Y-113003600D03*
D98*
X241501100Y-110003600D03*
X242001100Y-110003600D03*
X242501100Y-110003600D03*
X243001100Y-110003600D03*
X243501100Y-110003600D03*
X244001100Y-110003600D03*
X244501100Y-110003600D03*
X245001100Y-110003600D03*
X245501100Y-110003600D03*
X246001100Y-110003600D03*
X246501100Y-110003600D03*
X247001100Y-110003600D03*
X247501100Y-110003600D03*
X241501100Y-110503600D03*
X242001100Y-110503600D03*
X242501100Y-110503600D03*
X243001100Y-110503600D03*
X243501100Y-110503600D03*
X244001100Y-110503600D03*
X244501100Y-110503600D03*
X245001100Y-110503600D03*
X245501100Y-110503600D03*
X246001100Y-110503600D03*
X246501100Y-110503600D03*
X247001100Y-110503600D03*
X247501100Y-110503600D03*
X241501100Y-111003600D03*
X242001100Y-111003600D03*
X247001100Y-111003600D03*
X247501100Y-111003600D03*
X241501100Y-111503600D03*
X242001100Y-111503600D03*
X247001100Y-111503600D03*
X247501100Y-111503600D03*
X241501100Y-112003600D03*
X242001100Y-112003600D03*
X247001100Y-112003600D03*
X247501100Y-112003600D03*
X241501100Y-112503600D03*
X242001100Y-112503600D03*
X247001100Y-112503600D03*
X247501100Y-112503600D03*
X241501100Y-113003600D03*
X242001100Y-113003600D03*
X247001100Y-113003600D03*
X247501100Y-113003600D03*
X241501100Y-113503600D03*
X242001100Y-113503600D03*
X247001100Y-113503600D03*
X247501100Y-113503600D03*
X241501100Y-114003600D03*
X242001100Y-114003600D03*
X247001100Y-114003600D03*
X247501100Y-114003600D03*
X241501100Y-114503600D03*
X242001100Y-114503600D03*
X247001100Y-114503600D03*
X247501100Y-114503600D03*
X241501100Y-115003600D03*
X242001100Y-115003600D03*
X247001100Y-115003600D03*
X247501100Y-115003600D03*
X241501100Y-115503600D03*
X242001100Y-115503600D03*
X242501100Y-115503600D03*
X243001100Y-115503600D03*
X243501100Y-115503600D03*
X244001100Y-115503600D03*
X244501100Y-115503600D03*
X245001100Y-115503600D03*
X245501100Y-115503600D03*
X246001100Y-115503600D03*
X246501100Y-115503600D03*
X247001100Y-115503600D03*
X247501100Y-115503600D03*
X241501100Y-116003600D03*
X242001100Y-116003600D03*
X242501100Y-116003600D03*
X243001100Y-116003600D03*
X243501100Y-116003600D03*
X244001100Y-116003600D03*
X244501100Y-116003600D03*
X245001100Y-116003600D03*
X245501100Y-116003600D03*
X246001100Y-116003600D03*
X246501100Y-116003600D03*
X247001100Y-116003600D03*
X247501100Y-116003600D03*
%TD*%
D20*
%TO.C,R157*%
X41466100Y-89713600D03*
X41976100Y-89713600D03*
%TD*%
D18*
%TO.C,C72*%
X156484323Y-26316823D03*
X156837877Y-26670377D03*
%TD*%
D99*
%TO.C,R13*%
X76291100Y-103803600D03*
X76291100Y-104803600D03*
%TD*%
D13*
%TO.C,R99*%
X80041100Y-237528600D03*
X80041100Y-238038600D03*
%TD*%
D37*
%TO.C,C307*%
X238251100Y-200433600D03*
X238251100Y-199933600D03*
%TD*%
D53*
%TO.C,JP7*%
X53131100Y-160883600D03*
X55671100Y-160883600D03*
X58211100Y-160883600D03*
X60751100Y-160883600D03*
X63291100Y-160883600D03*
X65831100Y-160883600D03*
X68371100Y-160883600D03*
X70911100Y-160883600D03*
%TD*%
D35*
%TO.C,C287*%
X56351100Y-78753600D03*
X56851100Y-78753600D03*
%TD*%
D31*
%TO.C,U78*%
X127921421Y-225965900D03*
X127921421Y-225315900D03*
X127921421Y-224665900D03*
X127921421Y-224015900D03*
X123521421Y-224015900D03*
X123521421Y-224665900D03*
X123521421Y-225315900D03*
X123521421Y-225965900D03*
%TD*%
D38*
%TO.C,C54*%
X77501100Y-121928600D03*
X77001100Y-121928600D03*
%TD*%
D37*
%TO.C,C38*%
X76996100Y-41183600D03*
X76996100Y-40683600D03*
%TD*%
D21*
%TO.C,C258*%
X130991100Y-224293600D03*
X130991100Y-225593600D03*
%TD*%
D25*
%TO.C,C110*%
X79158242Y-61018784D03*
X78804688Y-60665230D03*
%TD*%
D37*
%TO.C,C45*%
X77811100Y-107173600D03*
X77811100Y-106673600D03*
%TD*%
D25*
%TO.C,C240*%
X180552395Y-96741340D03*
X180198841Y-96387786D03*
%TD*%
D100*
%TO.C,U4*%
X76336100Y-110915600D03*
X76836100Y-110915600D03*
X77336100Y-110915600D03*
X77836100Y-110915600D03*
D101*
X78483100Y-110268600D03*
X78483100Y-109768600D03*
X78483100Y-109268600D03*
X78483100Y-108768600D03*
D100*
X77836100Y-108121600D03*
X77336100Y-108121600D03*
X76836100Y-108121600D03*
X76336100Y-108121600D03*
D101*
X75689100Y-108768600D03*
X75689100Y-109268600D03*
X75689100Y-109768600D03*
X75689100Y-110268600D03*
D102*
X77086100Y-109518600D03*
%TD*%
D74*
%TO.C,ADTR1107_9*%
X238167812Y-121634985D03*
X237708192Y-121175366D03*
X237248573Y-120715746D03*
X236788954Y-120256127D03*
X236329334Y-119796508D03*
X235869715Y-119336888D03*
D22*
X235132485Y-119336888D03*
X234672866Y-119796508D03*
X234213246Y-120256127D03*
X233753627Y-120715746D03*
X233294008Y-121175366D03*
X232834388Y-121634985D03*
D74*
X232834388Y-122372215D03*
X233294008Y-122831834D03*
X233753627Y-123291454D03*
X234213246Y-123751073D03*
X234672866Y-124210692D03*
X235132485Y-124670312D03*
D22*
X235869715Y-124670312D03*
X236329334Y-124210692D03*
X236788954Y-123751073D03*
X237248573Y-123291454D03*
X237708192Y-122831834D03*
X238167812Y-122372215D03*
D103*
X235501100Y-122003600D03*
%TD*%
D37*
%TO.C,C305*%
X206851100Y-200133600D03*
X206851100Y-199633600D03*
%TD*%
D45*
%TO.C,X41*%
X106175934Y-234981347D03*
X103635934Y-234981347D03*
X101095934Y-234981347D03*
%TD*%
D33*
%TO.C,C308*%
X94231100Y-41553600D03*
X94231100Y-42053600D03*
%TD*%
D35*
%TO.C,C275*%
X131871100Y-222963600D03*
X132371100Y-222963600D03*
%TD*%
D46*
%TO.C,U68*%
X265555822Y-21270301D03*
X263185034Y-18899513D03*
%TD*%
D21*
%TO.C,C342*%
X110719753Y-224217925D03*
X110719753Y-225517925D03*
%TD*%
D34*
%TO.C,C283*%
X25201100Y-230803600D03*
X28001100Y-230803600D03*
%TD*%
D26*
%TO.C,J46*%
X237441100Y-134073600D03*
D27*
X233848998Y-134073600D03*
X237441100Y-137665702D03*
X241033202Y-134073600D03*
X237441100Y-130481498D03*
%TD*%
D12*
%TO.C,JP15*%
X228221100Y-202493600D03*
X228221100Y-205033600D03*
X228221100Y-207573600D03*
%TD*%
D104*
%TO.C,JP13*%
X109701100Y-174013600D03*
X109701100Y-176553600D03*
X107161100Y-174013600D03*
X107161100Y-176553600D03*
X104621100Y-174013600D03*
X104621100Y-176553600D03*
X102081100Y-174013600D03*
X102081100Y-176553600D03*
X99541100Y-174013600D03*
X99541100Y-176553600D03*
X97001100Y-174013600D03*
X97001100Y-176553600D03*
X94461100Y-174013600D03*
X94461100Y-176553600D03*
%TD*%
D20*
%TO.C,R168*%
X80066100Y-156973600D03*
X80576100Y-156973600D03*
%TD*%
D35*
%TO.C,C300*%
X221421100Y-223903600D03*
X221921100Y-223903600D03*
%TD*%
D13*
%TO.C,R57*%
X166366100Y-117083600D03*
X166366100Y-117593600D03*
%TD*%
D82*
%TO.C,U75*%
X101324675Y-208845141D03*
X101324675Y-209495141D03*
X101324675Y-210145141D03*
X101324675Y-210795141D03*
X105724675Y-210795141D03*
X105724675Y-210145141D03*
X105724675Y-209495141D03*
X105724675Y-208845141D03*
%TD*%
D33*
%TO.C,C81*%
X131471078Y-76238544D03*
X131471078Y-76738544D03*
%TD*%
D44*
%TO.C,X8*%
X24471100Y-81393600D03*
X24471100Y-83933600D03*
%TD*%
D74*
%TO.C,ADTR1107_13*%
X162167812Y-121634985D03*
X161708192Y-121175366D03*
X161248573Y-120715746D03*
X160788954Y-120256127D03*
X160329334Y-119796508D03*
X159869715Y-119336888D03*
D22*
X159132485Y-119336888D03*
X158672866Y-119796508D03*
X158213246Y-120256127D03*
X157753627Y-120715746D03*
X157294008Y-121175366D03*
X156834388Y-121634985D03*
D74*
X156834388Y-122372215D03*
X157294008Y-122831834D03*
X157753627Y-123291454D03*
X158213246Y-123751073D03*
X158672866Y-124210692D03*
X159132485Y-124670312D03*
D22*
X159869715Y-124670312D03*
X160329334Y-124210692D03*
X160788954Y-123751073D03*
X161248573Y-123291454D03*
X161708192Y-122831834D03*
X162167812Y-122372215D03*
D103*
X159501100Y-122003600D03*
%TD*%
D44*
%TO.C,X17*%
X24021100Y-97563600D03*
X24021100Y-100103600D03*
%TD*%
D29*
%TO.C,C156*%
X56507505Y-59600211D03*
X56153951Y-59953765D03*
%TD*%
D105*
%TO.C,XTAL1*%
X109081100Y-149301100D03*
X109081100Y-151206100D03*
%TD*%
D20*
%TO.C,R19*%
X79566100Y-110853600D03*
X80076100Y-110853600D03*
%TD*%
D21*
%TO.C,C318*%
X185881100Y35376400D03*
X185881100Y34076400D03*
%TD*%
D45*
%TO.C,X_15*%
X72731100Y-195503600D03*
X75271100Y-195503600D03*
%TD*%
D18*
%TO.C,C226*%
X232798491Y-129449795D03*
X233152045Y-129803349D03*
%TD*%
D30*
%TO.C,R9*%
X69546100Y-82043600D03*
X69036100Y-82043600D03*
%TD*%
D18*
%TO.C,C107*%
X239223904Y-26682567D03*
X239577458Y-27036121D03*
%TD*%
D25*
%TO.C,C175*%
X153278002Y-128924506D03*
X152924448Y-128570952D03*
%TD*%
D38*
%TO.C,C261*%
X136981100Y-211943600D03*
X136481100Y-211943600D03*
%TD*%
D37*
%TO.C,C5*%
X74971100Y-101433600D03*
X74971100Y-100933600D03*
%TD*%
D30*
%TO.C,R6*%
X74556100Y-81963600D03*
X74046100Y-81963600D03*
%TD*%
D13*
%TO.C,R86*%
X82891100Y-207678600D03*
X82891100Y-208188600D03*
%TD*%
D45*
%TO.C,X_13*%
X72631100Y-225303600D03*
X75171100Y-225303600D03*
%TD*%
D31*
%TO.C,U76*%
X107542068Y-225698550D03*
X107542068Y-225048550D03*
X107542068Y-224398550D03*
X107542068Y-223748550D03*
X103142068Y-223748550D03*
X103142068Y-224398550D03*
X103142068Y-225048550D03*
X103142068Y-225698550D03*
%TD*%
D15*
%TO.C,RF_SW_4*%
X181067790Y-24756809D03*
X181421344Y-24403255D03*
X181774897Y-24049702D03*
X182128451Y-23696148D03*
D41*
X182114309Y-22776910D03*
X181760755Y-22423356D03*
X181407202Y-22069803D03*
X181053648Y-21716249D03*
D15*
X180148552Y-21716249D03*
X179794998Y-22069803D03*
X179441445Y-22423356D03*
X179087891Y-22776910D03*
D41*
X179073749Y-23696148D03*
X179427303Y-24049702D03*
X179780856Y-24403255D03*
X180134410Y-24756809D03*
D106*
X180601100Y-23243600D03*
%TD*%
D45*
%TO.C,X45*%
X180855812Y-200050107D03*
X183395812Y-200050107D03*
X185935812Y-200050107D03*
%TD*%
D53*
%TO.C,JP8*%
X63141100Y-167983600D03*
X65681100Y-167983600D03*
X68221100Y-167983600D03*
X70761100Y-167983600D03*
%TD*%
D40*
%TO.C,UNK_HOLE_1*%
X274501100Y-251003600D03*
%TD*%
D41*
%TO.C,RF_SW_3*%
X156174309Y-24376910D03*
X155820755Y-24023356D03*
X155467202Y-23669803D03*
X155113648Y-23316249D03*
D42*
X154194410Y-23330391D03*
X153840856Y-23683945D03*
X153487303Y-24037498D03*
X153133749Y-24391052D03*
D41*
X153133749Y-25296148D03*
X153487303Y-25649702D03*
X153840856Y-26003255D03*
X154194410Y-26356809D03*
D42*
X155113648Y-26370951D03*
X155467202Y-26017397D03*
X155820755Y-25663844D03*
X156174309Y-25310290D03*
D43*
X154661100Y-24843600D03*
%TD*%
D25*
%TO.C,C109*%
X78224861Y-61952165D03*
X77871307Y-61598611D03*
%TD*%
D45*
%TO.C,X_2*%
X60271100Y-240503600D03*
X57731100Y-240503600D03*
%TD*%
D74*
%TO.C,ADTR1107_5*%
X238167812Y-45634985D03*
X237708192Y-45175366D03*
X237248573Y-44715746D03*
X236788954Y-44256127D03*
X236329334Y-43796508D03*
X235869715Y-43336888D03*
D22*
X235132485Y-43336888D03*
X234672866Y-43796508D03*
X234213246Y-44256127D03*
X233753627Y-44715746D03*
X233294008Y-45175366D03*
X232834388Y-45634985D03*
D74*
X232834388Y-46372215D03*
X233294008Y-46831834D03*
X233753627Y-47291454D03*
X234213246Y-47751073D03*
X234672866Y-48210692D03*
X235132485Y-48670312D03*
D22*
X235869715Y-48670312D03*
X236329334Y-48210692D03*
X236788954Y-47751073D03*
X237248573Y-47291454D03*
X237708192Y-46831834D03*
X238167812Y-46372215D03*
D103*
X235501100Y-46003600D03*
%TD*%
D29*
%TO.C,C174*%
X184056264Y-127924033D03*
X183702710Y-128277587D03*
%TD*%
D30*
%TO.C,R172*%
X105336100Y-156383600D03*
X104826100Y-156383600D03*
%TD*%
D28*
%TO.C,C238*%
X261124073Y-50849012D03*
X261477627Y-50495458D03*
%TD*%
D30*
%TO.C,R22*%
X77511100Y-120828600D03*
X77001100Y-120828600D03*
%TD*%
D33*
%TO.C,C141*%
X97171100Y-41033600D03*
X97171100Y-41533600D03*
%TD*%
D29*
%TO.C,C245*%
X150814467Y-98306055D03*
X150460913Y-98659609D03*
%TD*%
D107*
%TO.C,U3*%
X70636100Y-51799900D03*
X71906100Y-51799900D03*
X73176100Y-51799900D03*
X74446100Y-51799900D03*
X75716100Y-51799900D03*
X76986100Y-51799900D03*
X78256100Y-51799900D03*
X79526100Y-51799900D03*
X80796100Y-51799900D03*
X82066100Y-51799900D03*
X83336100Y-51799900D03*
X84606100Y-51799900D03*
X85876100Y-51799900D03*
X87146100Y-51799900D03*
X87146100Y-42427300D03*
X85876100Y-42427300D03*
X84606100Y-42427300D03*
X83336100Y-42427300D03*
X82066100Y-42427300D03*
X80796100Y-42427300D03*
X79526100Y-42427300D03*
X78256100Y-42427300D03*
X76986100Y-42427300D03*
X75716100Y-42427300D03*
X74446100Y-42427300D03*
X73176100Y-42427300D03*
X71906100Y-42427300D03*
X70636100Y-42427300D03*
%TD*%
D21*
%TO.C,C314*%
X45650318Y-97426157D03*
X45650318Y-98726157D03*
%TD*%
D26*
%TO.C,J25*%
X161251178Y-17983685D03*
D27*
X157659076Y-17983685D03*
X161251178Y-21575787D03*
X164843280Y-17983685D03*
X161251178Y-14391583D03*
%TD*%
D96*
%TO.C,U60*%
X146033474Y-129230025D03*
X148404262Y-131600813D03*
%TD*%
D44*
%TO.C,X12*%
X264981100Y-178493600D03*
X264981100Y-175953600D03*
%TD*%
D28*
%TO.C,C166*%
X233494323Y-49360377D03*
X233847877Y-49006823D03*
%TD*%
D13*
%TO.C,R165*%
X81971100Y-120788600D03*
X81971100Y-121298600D03*
%TD*%
D33*
%TO.C,C95*%
X244686100Y-117103600D03*
X244686100Y-117603600D03*
%TD*%
D25*
%TO.C,C169*%
X183390539Y-95668637D03*
X183036985Y-95315083D03*
%TD*%
D15*
%TO.C,RF_SW_8*%
X257467790Y-24266809D03*
X257821344Y-23913255D03*
X258174897Y-23559702D03*
X258528451Y-23206148D03*
D41*
X258514309Y-22286910D03*
X258160755Y-21933356D03*
X257807202Y-21579803D03*
X257453648Y-21226249D03*
D15*
X256548552Y-21226249D03*
X256194998Y-21579803D03*
X255841445Y-21933356D03*
X255487891Y-22286910D03*
D41*
X255473749Y-23206148D03*
X255827303Y-23559702D03*
X256180856Y-23913255D03*
X256534410Y-24266809D03*
D106*
X257001100Y-22753600D03*
%TD*%
D36*
%TO.C,R134*%
X175871100Y-211838600D03*
X175871100Y-211328600D03*
%TD*%
D20*
%TO.C,R104*%
X82786100Y-236933600D03*
X83296100Y-236933600D03*
%TD*%
D25*
%TO.C,C136*%
X180607877Y-47760377D03*
X180254323Y-47406823D03*
%TD*%
D35*
%TO.C,C289*%
X56351100Y-78128600D03*
X56851100Y-78128600D03*
%TD*%
D14*
%TO.C,RF_SW_6*%
X257487891Y-50320290D03*
X257841445Y-50673844D03*
X258194998Y-51027397D03*
X258548552Y-51380951D03*
D15*
X259467790Y-51366809D03*
X259821344Y-51013255D03*
X260174897Y-50659702D03*
X260528451Y-50306148D03*
D14*
X260528451Y-49401052D03*
X260174897Y-49047498D03*
X259821344Y-48693945D03*
X259467790Y-48340391D03*
D15*
X258548552Y-48326249D03*
X258194998Y-48679803D03*
X257841445Y-49033356D03*
X257487891Y-49386910D03*
D16*
X259001100Y-49853600D03*
%TD*%
D29*
%TO.C,C70*%
X156257002Y-22927873D03*
X155903448Y-23281427D03*
%TD*%
D99*
%TO.C,R1*%
X77731100Y-103793600D03*
X77731100Y-104793600D03*
%TD*%
D45*
%TO.C,X52*%
X185957193Y-235033657D03*
X183417193Y-235033657D03*
X180877193Y-235033657D03*
%TD*%
D35*
%TO.C,C56*%
X74596100Y-118298600D03*
X75096100Y-118298600D03*
%TD*%
D18*
%TO.C,C122*%
X163203519Y-102637183D03*
X163557073Y-102990737D03*
%TD*%
%TO.C,C230*%
X231034557Y-53173852D03*
X231388111Y-53527406D03*
%TD*%
D38*
%TO.C,C282*%
X176931100Y-211843600D03*
X176431100Y-211843600D03*
%TD*%
D66*
%TO.C,D4*%
X93631100Y-137420600D03*
X93631100Y-135666600D03*
%TD*%
D30*
%TO.C,R150*%
X174083431Y-215513841D03*
X173573431Y-215513841D03*
%TD*%
D83*
%TO.C,C3*%
X77761100Y-102413600D03*
X76461100Y-102413600D03*
%TD*%
D80*
%TO.C,J20*%
X70501100Y-31953600D03*
D27*
X67961100Y-29413600D03*
X67961100Y-34493600D03*
X73041100Y-34493600D03*
X73041100Y-29413600D03*
%TD*%
D71*
%TO.C,U52*%
X260757062Y-134004807D03*
X263127850Y-131634019D03*
%TD*%
D35*
%TO.C,C53*%
X76651100Y-113873600D03*
X77151100Y-113873600D03*
%TD*%
D12*
%TO.C,JP19*%
X238371100Y-202323600D03*
X238371100Y-204863600D03*
X238371100Y-207403600D03*
%TD*%
D36*
%TO.C,R81*%
X167451100Y-117588600D03*
X167451100Y-117078600D03*
%TD*%
D13*
%TO.C,R100*%
X82801100Y-237468600D03*
X82801100Y-237978600D03*
%TD*%
D28*
%TO.C,C133*%
X185151860Y-50808837D03*
X185505414Y-50455283D03*
%TD*%
D30*
%TO.C,R8*%
X67706100Y-81993600D03*
X67196100Y-81993600D03*
%TD*%
D28*
%TO.C,C237*%
X261591094Y-51350399D03*
X261944648Y-50996845D03*
%TD*%
D36*
%TO.C,R28*%
X76991100Y-54078600D03*
X76991100Y-53568600D03*
%TD*%
D45*
%TO.C,X47*%
X160991546Y-200051854D03*
X163531546Y-200051854D03*
X166071546Y-200051854D03*
%TD*%
D90*
%TO.C,J50*%
X176831100Y-93063600D03*
D27*
X176831100Y-96655702D03*
X180423202Y-93063600D03*
X176831100Y-89471498D03*
X173238998Y-93063600D03*
%TD*%
D40*
%TO.C,UNK_HOLE_4*%
X274501100Y-5003600D03*
%TD*%
D29*
%TO.C,C150*%
X229079686Y-26122495D03*
X228726132Y-26476049D03*
%TD*%
D20*
%TO.C,R83*%
X18346100Y-296803600D03*
X18856100Y-296803600D03*
%TD*%
D82*
%TO.C,U82*%
X161131603Y-208926179D03*
X161131603Y-209576179D03*
X161131603Y-210226179D03*
X161131603Y-210876179D03*
X165531603Y-210876179D03*
X165531603Y-210226179D03*
X165531603Y-209576179D03*
X165531603Y-208926179D03*
%TD*%
D25*
%TO.C,C244*%
X258628152Y-20093862D03*
X258274598Y-19740308D03*
%TD*%
D13*
%TO.C,R50*%
X39636100Y-76758600D03*
X39636100Y-77268600D03*
%TD*%
%TO.C,R109*%
X52901100Y-227718600D03*
X52901100Y-228228600D03*
%TD*%
D44*
%TO.C,X56*%
X23451100Y-236613600D03*
X23451100Y-239153600D03*
%TD*%
D36*
%TO.C,R79*%
X243101100Y-117663600D03*
X243101100Y-117153600D03*
%TD*%
D18*
%TO.C,C118*%
X238970594Y-102851642D03*
X239324148Y-103205196D03*
%TD*%
D108*
%TO.C,SJ1*%
X66181100Y-100717600D03*
X66181100Y-99193600D03*
X66181100Y-97669600D03*
%TD*%
D26*
%TO.C,J55*%
X148671100Y-121413600D03*
D27*
X145078998Y-121413600D03*
X148671100Y-125005702D03*
X152263202Y-121413600D03*
X148671100Y-117821498D03*
%TD*%
D13*
%TO.C,R129*%
X113101100Y-222868600D03*
X113101100Y-223378600D03*
%TD*%
D45*
%TO.C,X22*%
X200171100Y21596400D03*
X197631100Y21596400D03*
%TD*%
D30*
%TO.C,R141*%
X87786100Y-85833600D03*
X87276100Y-85833600D03*
%TD*%
D21*
%TO.C,C334*%
X117691100Y-117753600D03*
X117691100Y-119053600D03*
%TD*%
D20*
%TO.C,R122*%
X49566100Y-228833600D03*
X50076100Y-228833600D03*
%TD*%
D13*
%TO.C,R82*%
X53091100Y-207848600D03*
X53091100Y-208358600D03*
%TD*%
D109*
%TO.C,ADAR1_0*%
X168501100Y-37003600D03*
D110*
X171501100Y-40003600D03*
X171001100Y-40003600D03*
X170501100Y-40003600D03*
X170001100Y-40003600D03*
X169501100Y-40003600D03*
X169001100Y-40003600D03*
X168501100Y-40003600D03*
X168001100Y-40003600D03*
X167501100Y-40003600D03*
X167001100Y-40003600D03*
X166501100Y-40003600D03*
X166001100Y-40003600D03*
X165501100Y-40003600D03*
X171501100Y-39503600D03*
X171001100Y-39503600D03*
X170501100Y-39503600D03*
X170001100Y-39503600D03*
X169501100Y-39503600D03*
X169001100Y-39503600D03*
X168501100Y-39503600D03*
X168001100Y-39503600D03*
X167501100Y-39503600D03*
X167001100Y-39503600D03*
X166501100Y-39503600D03*
X166001100Y-39503600D03*
X165501100Y-39503600D03*
X171501100Y-39003600D03*
X171001100Y-39003600D03*
X166001100Y-39003600D03*
X165501100Y-39003600D03*
X171501100Y-38503600D03*
X171001100Y-38503600D03*
X166001100Y-38503600D03*
X165501100Y-38503600D03*
X171501100Y-38003600D03*
X171001100Y-38003600D03*
X166001100Y-38003600D03*
X165501100Y-38003600D03*
X171501100Y-37503600D03*
X171001100Y-37503600D03*
X166001100Y-37503600D03*
X165501100Y-37503600D03*
X171501100Y-37003600D03*
X171001100Y-37003600D03*
X166001100Y-37003600D03*
X165501100Y-37003600D03*
X171501100Y-36503600D03*
X171001100Y-36503600D03*
X166001100Y-36503600D03*
X165501100Y-36503600D03*
X171501100Y-36003600D03*
X171001100Y-36003600D03*
X166001100Y-36003600D03*
X165501100Y-36003600D03*
X171501100Y-35503600D03*
X171001100Y-35503600D03*
X166001100Y-35503600D03*
X165501100Y-35503600D03*
X171501100Y-35003600D03*
X171001100Y-35003600D03*
X166001100Y-35003600D03*
X165501100Y-35003600D03*
X171501100Y-34503600D03*
X171001100Y-34503600D03*
X170501100Y-34503600D03*
X170001100Y-34503600D03*
X169501100Y-34503600D03*
X169001100Y-34503600D03*
X168501100Y-34503600D03*
X168001100Y-34503600D03*
X167501100Y-34503600D03*
X167001100Y-34503600D03*
X166501100Y-34503600D03*
X166001100Y-34503600D03*
X165501100Y-34503600D03*
X171501100Y-34003600D03*
X171001100Y-34003600D03*
X170501100Y-34003600D03*
X170001100Y-34003600D03*
X169501100Y-34003600D03*
X169001100Y-34003600D03*
X168501100Y-34003600D03*
X168001100Y-34003600D03*
X167501100Y-34003600D03*
X167001100Y-34003600D03*
X166501100Y-34003600D03*
X166001100Y-34003600D03*
X165501100Y-34003600D03*
%TD*%
D13*
%TO.C,R2*%
X78001100Y-77248600D03*
X78001100Y-77758600D03*
%TD*%
D111*
%TO.C,U5*%
X99543300Y-40493600D03*
X99543300Y-40993600D03*
X99543300Y-41493600D03*
D112*
X100491100Y-41946100D03*
X100991100Y-41946100D03*
X101491100Y-41946100D03*
D111*
X102438900Y-41493600D03*
X102438900Y-40993600D03*
X102438900Y-40493600D03*
D112*
X101491100Y-40041100D03*
X100991100Y-40041100D03*
X100491100Y-40041100D03*
%TD*%
D37*
%TO.C,C9*%
X78371100Y-101483600D03*
X78371100Y-100983600D03*
%TD*%
D22*
%TO.C,ADTR1107_11*%
X235869715Y-106670312D03*
X236329334Y-106210692D03*
X236788954Y-105751073D03*
X237248573Y-105291454D03*
X237708192Y-104831834D03*
X238167812Y-104372215D03*
D23*
X238167812Y-103634985D03*
X237708192Y-103175366D03*
X237248573Y-102715746D03*
X236788954Y-102256127D03*
X236329334Y-101796508D03*
X235869715Y-101336888D03*
D22*
X235132485Y-101336888D03*
X234672866Y-101796508D03*
X234213246Y-102256127D03*
X233753627Y-102715746D03*
X233294008Y-103175366D03*
X232834388Y-103634985D03*
D23*
X232834388Y-104372215D03*
X233294008Y-104831834D03*
X233753627Y-105291454D03*
X234213246Y-105751073D03*
X234672866Y-106210692D03*
X235132485Y-106670312D03*
D24*
X235501100Y-104003600D03*
%TD*%
D37*
%TO.C,C256*%
X63756321Y-232829616D03*
X63756321Y-232329616D03*
%TD*%
D113*
%TO.C,U14*%
X129351100Y-76707200D03*
X129351100Y-80060000D03*
%TD*%
D17*
%TO.C,C264*%
X157902312Y-210656529D03*
X157902312Y-209356529D03*
%TD*%
D28*
%TO.C,C119*%
X234009013Y-118174234D03*
X234362567Y-117820680D03*
%TD*%
%TO.C,C243*%
X151977860Y-97111018D03*
X152331414Y-96757464D03*
%TD*%
D25*
%TO.C,C124*%
X181549595Y-21180377D03*
X181196041Y-20826823D03*
%TD*%
D42*
%TO.C,RF_SW_13*%
X155084410Y-126290391D03*
X154730856Y-126643945D03*
X154377303Y-126997498D03*
X154023749Y-127351052D03*
D14*
X154037891Y-128270290D03*
X154391445Y-128623844D03*
X154744998Y-128977397D03*
X155098552Y-129330951D03*
D42*
X156003648Y-129330951D03*
X156357202Y-128977397D03*
X156710755Y-128623844D03*
X157064309Y-128270290D03*
D14*
X157078451Y-127351052D03*
X156724897Y-126997498D03*
X156371344Y-126643945D03*
X156017790Y-126290391D03*
D86*
X155551100Y-127803600D03*
%TD*%
D13*
%TO.C,R113*%
X92251100Y-138818600D03*
X92251100Y-139328600D03*
%TD*%
D96*
%TO.C,U49*%
X227351815Y-133711485D03*
X229722603Y-136082273D03*
%TD*%
D29*
%TO.C,C55*%
X58307092Y-61392727D03*
X57953538Y-61746281D03*
%TD*%
D35*
%TO.C,C28*%
X100664600Y-139960788D03*
X101164600Y-139960788D03*
%TD*%
D90*
%TO.C,J26*%
X162941100Y-57763600D03*
D27*
X162941100Y-61355702D03*
X166533202Y-57763600D03*
X162941100Y-54171498D03*
X159348998Y-57763600D03*
%TD*%
D30*
%TO.C,R119*%
X50126100Y-237073600D03*
X49616100Y-237073600D03*
%TD*%
D33*
%TO.C,C84*%
X134435550Y-77737457D03*
X134435550Y-78237457D03*
%TD*%
D45*
%TO.C,X_1*%
X45271100Y-240503600D03*
X42731100Y-240503600D03*
%TD*%
D36*
%TO.C,R23*%
X70641100Y-54128600D03*
X70641100Y-53618600D03*
%TD*%
D37*
%TO.C,C6*%
X75546100Y-101433600D03*
X75546100Y-100933600D03*
%TD*%
D45*
%TO.C,X_3*%
X45471100Y-210553600D03*
X42931100Y-210553600D03*
%TD*%
D79*
%TO.C,L14*%
X196521100Y-175183600D03*
X191521100Y-175183600D03*
%TD*%
D36*
%TO.C,R77*%
X166921678Y-123060038D03*
X166921678Y-122550038D03*
%TD*%
D45*
%TO.C,X_16*%
X87731100Y-195503600D03*
X90271100Y-195503600D03*
%TD*%
D21*
%TO.C,C313*%
X43941100Y-97423600D03*
X43941100Y-98723600D03*
%TD*%
D20*
%TO.C,R161*%
X105866100Y-70563600D03*
X106376100Y-70563600D03*
%TD*%
D17*
%TO.C,C57*%
X80841100Y-120703600D03*
X80841100Y-119403600D03*
%TD*%
D20*
%TO.C,R90*%
X82896100Y-207183600D03*
X83406100Y-207183600D03*
%TD*%
D35*
%TO.C,C292*%
X172121100Y-222913600D03*
X172621100Y-222913600D03*
%TD*%
%TO.C,L25*%
X96196100Y-41593600D03*
X96746100Y-41593600D03*
%TD*%
D29*
%TO.C,C149*%
X232215820Y-22968605D03*
X231862266Y-23322159D03*
%TD*%
D37*
%TO.C,C296*%
X172801100Y-215533600D03*
X172801100Y-215033600D03*
%TD*%
%TO.C,C90*%
X168291100Y-32828600D03*
X168291100Y-32328600D03*
%TD*%
D33*
%TO.C,C101*%
X169091100Y-118448600D03*
X169091100Y-118948600D03*
%TD*%
D40*
%TO.C,UNK_HOLE_2*%
X274501100Y40996400D03*
%TD*%
D35*
%TO.C,L28*%
X95716100Y-109433600D03*
X96266100Y-109433600D03*
%TD*%
D36*
%TO.C,R24*%
X71941100Y-54158600D03*
X71941100Y-53648600D03*
%TD*%
D96*
%TO.C,U50*%
X222901174Y-129060844D03*
X225271962Y-131431632D03*
%TD*%
D46*
%TO.C,U56*%
X192866165Y-97174613D03*
X190495377Y-94803825D03*
%TD*%
D13*
%TO.C,R71*%
X247011100Y-32133600D03*
X247011100Y-32643600D03*
%TD*%
D36*
%TO.C,R4*%
X78311100Y-74518600D03*
X78311100Y-74008600D03*
%TD*%
D18*
%TO.C,C126*%
X154512182Y-49325858D03*
X154865736Y-49679412D03*
%TD*%
D40*
%TO.C,UNK_HOLE_5*%
X274501100Y-141003600D03*
%TD*%
D30*
%TO.C,R63*%
X26871100Y-69218600D03*
X26361100Y-69218600D03*
%TD*%
D13*
%TO.C,R66*%
X26886100Y-69808600D03*
X26886100Y-70318600D03*
%TD*%
D97*
%TO.C,ADAR4_0*%
X168501100Y-113003600D03*
D98*
X165501100Y-110003600D03*
X166001100Y-110003600D03*
X166501100Y-110003600D03*
X167001100Y-110003600D03*
X167501100Y-110003600D03*
X168001100Y-110003600D03*
X168501100Y-110003600D03*
X169001100Y-110003600D03*
X169501100Y-110003600D03*
X170001100Y-110003600D03*
X170501100Y-110003600D03*
X171001100Y-110003600D03*
X171501100Y-110003600D03*
X165501100Y-110503600D03*
X166001100Y-110503600D03*
X166501100Y-110503600D03*
X167001100Y-110503600D03*
X167501100Y-110503600D03*
X168001100Y-110503600D03*
X168501100Y-110503600D03*
X169001100Y-110503600D03*
X169501100Y-110503600D03*
X170001100Y-110503600D03*
X170501100Y-110503600D03*
X171001100Y-110503600D03*
X171501100Y-110503600D03*
X165501100Y-111003600D03*
X166001100Y-111003600D03*
X171001100Y-111003600D03*
X171501100Y-111003600D03*
X165501100Y-111503600D03*
X166001100Y-111503600D03*
X171001100Y-111503600D03*
X171501100Y-111503600D03*
X165501100Y-112003600D03*
X166001100Y-112003600D03*
X171001100Y-112003600D03*
X171501100Y-112003600D03*
X165501100Y-112503600D03*
X166001100Y-112503600D03*
X171001100Y-112503600D03*
X171501100Y-112503600D03*
X165501100Y-113003600D03*
X166001100Y-113003600D03*
X171001100Y-113003600D03*
X171501100Y-113003600D03*
X165501100Y-113503600D03*
X166001100Y-113503600D03*
X171001100Y-113503600D03*
X171501100Y-113503600D03*
X165501100Y-114003600D03*
X166001100Y-114003600D03*
X171001100Y-114003600D03*
X171501100Y-114003600D03*
X165501100Y-114503600D03*
X166001100Y-114503600D03*
X171001100Y-114503600D03*
X171501100Y-114503600D03*
X165501100Y-115003600D03*
X166001100Y-115003600D03*
X171001100Y-115003600D03*
X171501100Y-115003600D03*
X165501100Y-115503600D03*
X166001100Y-115503600D03*
X166501100Y-115503600D03*
X167001100Y-115503600D03*
X167501100Y-115503600D03*
X168001100Y-115503600D03*
X168501100Y-115503600D03*
X169001100Y-115503600D03*
X169501100Y-115503600D03*
X170001100Y-115503600D03*
X170501100Y-115503600D03*
X171001100Y-115503600D03*
X171501100Y-115503600D03*
X165501100Y-116003600D03*
X166001100Y-116003600D03*
X166501100Y-116003600D03*
X167001100Y-116003600D03*
X167501100Y-116003600D03*
X168001100Y-116003600D03*
X168501100Y-116003600D03*
X169001100Y-116003600D03*
X169501100Y-116003600D03*
X170001100Y-116003600D03*
X170501100Y-116003600D03*
X171001100Y-116003600D03*
X171501100Y-116003600D03*
%TD*%
D13*
%TO.C,R68*%
X27086100Y-74973600D03*
X27086100Y-75483600D03*
%TD*%
D37*
%TO.C,C91*%
X168766100Y-32833600D03*
X168766100Y-32333600D03*
%TD*%
D48*
%TO.C,ADTR1107_6*%
X253132485Y-43336888D03*
X252672866Y-43796508D03*
X252213246Y-44256127D03*
X251753627Y-44715746D03*
X251294008Y-45175366D03*
X250834388Y-45634985D03*
D74*
X250834388Y-46372215D03*
X251294008Y-46831834D03*
X251753627Y-47291454D03*
X252213246Y-47751073D03*
X252672866Y-48210692D03*
X253132485Y-48670312D03*
D48*
X253869715Y-48670312D03*
X254329334Y-48210692D03*
X254788954Y-47751073D03*
X255248573Y-47291454D03*
X255708192Y-46831834D03*
X256167812Y-46372215D03*
D74*
X256167812Y-45634985D03*
X255708192Y-45175366D03*
X255248573Y-44715746D03*
X254788954Y-44256127D03*
X254329334Y-43796508D03*
X253869715Y-43336888D03*
D75*
X253501100Y-46003600D03*
%TD*%
D35*
%TO.C,C47*%
X74471100Y-109273600D03*
X74971100Y-109273600D03*
%TD*%
D13*
%TO.C,R149*%
X184081100Y-223018600D03*
X184081100Y-223528600D03*
%TD*%
D28*
%TO.C,C123*%
X158019554Y-118266309D03*
X158373108Y-117912755D03*
%TD*%
D46*
%TO.C,U64*%
X266053259Y-97367738D03*
X263682471Y-94996950D03*
%TD*%
D38*
%TO.C,C284*%
X166931100Y-211943600D03*
X166431100Y-211943600D03*
%TD*%
D71*
%TO.C,U63*%
X264902221Y-54231266D03*
X267273009Y-51860478D03*
%TD*%
D109*
%TO.C,ADAR2_0*%
X244501100Y-37003600D03*
D110*
X247501100Y-40003600D03*
X247001100Y-40003600D03*
X246501100Y-40003600D03*
X246001100Y-40003600D03*
X245501100Y-40003600D03*
X245001100Y-40003600D03*
X244501100Y-40003600D03*
X244001100Y-40003600D03*
X243501100Y-40003600D03*
X243001100Y-40003600D03*
X242501100Y-40003600D03*
X242001100Y-40003600D03*
X241501100Y-40003600D03*
X247501100Y-39503600D03*
X247001100Y-39503600D03*
X246501100Y-39503600D03*
X246001100Y-39503600D03*
X245501100Y-39503600D03*
X245001100Y-39503600D03*
X244501100Y-39503600D03*
X244001100Y-39503600D03*
X243501100Y-39503600D03*
X243001100Y-39503600D03*
X242501100Y-39503600D03*
X242001100Y-39503600D03*
X241501100Y-39503600D03*
X247501100Y-39003600D03*
X247001100Y-39003600D03*
X242001100Y-39003600D03*
X241501100Y-39003600D03*
X247501100Y-38503600D03*
X247001100Y-38503600D03*
X242001100Y-38503600D03*
X241501100Y-38503600D03*
X247501100Y-38003600D03*
X247001100Y-38003600D03*
X242001100Y-38003600D03*
X241501100Y-38003600D03*
X247501100Y-37503600D03*
X247001100Y-37503600D03*
X242001100Y-37503600D03*
X241501100Y-37503600D03*
X247501100Y-37003600D03*
X247001100Y-37003600D03*
X242001100Y-37003600D03*
X241501100Y-37003600D03*
X247501100Y-36503600D03*
X247001100Y-36503600D03*
X242001100Y-36503600D03*
X241501100Y-36503600D03*
X247501100Y-36003600D03*
X247001100Y-36003600D03*
X242001100Y-36003600D03*
X241501100Y-36003600D03*
X247501100Y-35503600D03*
X247001100Y-35503600D03*
X242001100Y-35503600D03*
X241501100Y-35503600D03*
X247501100Y-35003600D03*
X247001100Y-35003600D03*
X242001100Y-35003600D03*
X241501100Y-35003600D03*
X247501100Y-34503600D03*
X247001100Y-34503600D03*
X246501100Y-34503600D03*
X246001100Y-34503600D03*
X245501100Y-34503600D03*
X245001100Y-34503600D03*
X244501100Y-34503600D03*
X244001100Y-34503600D03*
X243501100Y-34503600D03*
X243001100Y-34503600D03*
X242501100Y-34503600D03*
X242001100Y-34503600D03*
X241501100Y-34503600D03*
X247501100Y-34003600D03*
X247001100Y-34003600D03*
X246501100Y-34003600D03*
X246001100Y-34003600D03*
X245501100Y-34003600D03*
X245001100Y-34003600D03*
X244501100Y-34003600D03*
X244001100Y-34003600D03*
X243501100Y-34003600D03*
X243001100Y-34003600D03*
X242501100Y-34003600D03*
X242001100Y-34003600D03*
X241501100Y-34003600D03*
%TD*%
D18*
%TO.C,C224*%
X230624319Y-130060470D03*
X230977873Y-130414024D03*
%TD*%
D28*
%TO.C,C132*%
X184647216Y-50381890D03*
X185000770Y-50028336D03*
%TD*%
D25*
%TO.C,C198*%
X255800236Y-21182590D03*
X255446682Y-20829036D03*
%TD*%
D45*
%TO.C,X_14*%
X87631100Y-225303600D03*
X90171100Y-225303600D03*
%TD*%
D36*
%TO.C,R75*%
X166616100Y-108618600D03*
X166616100Y-108108600D03*
%TD*%
D29*
%TO.C,C69*%
X151835452Y-23412683D03*
X151481898Y-23766237D03*
%TD*%
D33*
%TO.C,C99*%
X169011100Y-117058600D03*
X169011100Y-117558600D03*
%TD*%
D20*
%TO.C,R155*%
X54166100Y-89713600D03*
X54676100Y-89713600D03*
%TD*%
D13*
%TO.C,R128*%
X102951100Y-222668600D03*
X102951100Y-223178600D03*
%TD*%
D36*
%TO.C,R125*%
X125901100Y-211788600D03*
X125901100Y-211278600D03*
%TD*%
D21*
%TO.C,C343*%
X100526096Y-224093607D03*
X100526096Y-225393607D03*
%TD*%
D13*
%TO.C,R39*%
X68641100Y-236548600D03*
X68641100Y-237058600D03*
%TD*%
D45*
%TO.C,X38*%
X120965490Y-199901547D03*
X123505490Y-199901547D03*
X126045490Y-199901547D03*
%TD*%
D20*
%TO.C,R145*%
X18346100Y-306303600D03*
X18856100Y-306303600D03*
%TD*%
D35*
%TO.C,C179*%
X80891100Y-82063600D03*
X81391100Y-82063600D03*
%TD*%
D37*
%TO.C,C310*%
X201801100Y-199983600D03*
X201801100Y-199483600D03*
%TD*%
D96*
%TO.C,U59*%
X150684115Y-133780666D03*
X153054903Y-136151454D03*
%TD*%
D31*
%TO.C,U85*%
X167722453Y-225924341D03*
X167722453Y-225274341D03*
X167722453Y-224624341D03*
X167722453Y-223974341D03*
X163322453Y-223974341D03*
X163322453Y-224624341D03*
X163322453Y-225274341D03*
X163322453Y-225924341D03*
%TD*%
D82*
%TO.C,U74*%
X111275490Y-208806038D03*
X111275490Y-209456038D03*
X111275490Y-210106038D03*
X111275490Y-210756038D03*
X115675490Y-210756038D03*
X115675490Y-210106038D03*
X115675490Y-209456038D03*
X115675490Y-208806038D03*
%TD*%
D17*
%TO.C,L6*%
X85936100Y-40428600D03*
X85936100Y-39128600D03*
%TD*%
D21*
%TO.C,C317*%
X187691100Y35396400D03*
X187691100Y34096400D03*
%TD*%
D36*
%TO.C,R74*%
X241277321Y-126235791D03*
X241277321Y-125725791D03*
%TD*%
D45*
%TO.C,X_9*%
X72631100Y-240303600D03*
X75171100Y-240303600D03*
%TD*%
D32*
%TO.C,C323*%
X221581100Y-175813600D03*
X221581100Y-177713600D03*
%TD*%
D44*
%TO.C,X6*%
X265031100Y-212333600D03*
X265031100Y-209793600D03*
%TD*%
D33*
%TO.C,C83*%
X134411375Y-72585116D03*
X134411375Y-73085116D03*
%TD*%
D29*
%TO.C,C252*%
X151294723Y-98725798D03*
X150941169Y-99079352D03*
%TD*%
%TO.C,C201*%
X259813333Y-127757717D03*
X259459779Y-128111271D03*
%TD*%
D28*
%TO.C,C146*%
X228981476Y-22179221D03*
X229335030Y-21825667D03*
%TD*%
D114*
%TO.C,C184*%
X24251100Y-324353600D03*
X26151100Y-324353600D03*
%TD*%
D30*
%TO.C,R10*%
X66606100Y-81993600D03*
X66096100Y-81993600D03*
%TD*%
D20*
%TO.C,R159*%
X105866100Y-72513600D03*
X106376100Y-72513600D03*
%TD*%
D35*
%TO.C,C1*%
X82771100Y-98573600D03*
X83271100Y-98573600D03*
%TD*%
D13*
%TO.C,R130*%
X123181100Y-223018600D03*
X123181100Y-223528600D03*
%TD*%
D35*
%TO.C,L27*%
X97646100Y-41573600D03*
X98196100Y-41573600D03*
%TD*%
D48*
%TO.C,ADTR1107_10*%
X253132485Y-119336888D03*
X252672866Y-119796508D03*
X252213246Y-120256127D03*
X251753627Y-120715746D03*
X251294008Y-121175366D03*
X250834388Y-121634985D03*
D74*
X250834388Y-122372215D03*
X251294008Y-122831834D03*
X251753627Y-123291454D03*
X252213246Y-123751073D03*
X252672866Y-124210692D03*
X253132485Y-124670312D03*
D48*
X253869715Y-124670312D03*
X254329334Y-124210692D03*
X254788954Y-123751073D03*
X255248573Y-123291454D03*
X255708192Y-122831834D03*
X256167812Y-122372215D03*
D74*
X256167812Y-121634985D03*
X255708192Y-121175366D03*
X255248573Y-120715746D03*
X254788954Y-120256127D03*
X254329334Y-119796508D03*
X253869715Y-119336888D03*
D75*
X253501100Y-122003600D03*
%TD*%
D115*
%TO.C,U9*%
X41541100Y-73183596D03*
X40541100Y-73183596D03*
X39541100Y-73183596D03*
X38541100Y-73183596D03*
X42541100Y-72183596D03*
X41541100Y-72183596D03*
X40541100Y-72183596D03*
X39541100Y-72183596D03*
X38541100Y-72183596D03*
X42541100Y-71183600D03*
X41541100Y-71183600D03*
X40541100Y-71183600D03*
X39541100Y-71183600D03*
X38541100Y-71183600D03*
X42541100Y-70183604D03*
X41541100Y-70183604D03*
X40541100Y-70183604D03*
X39541100Y-70183604D03*
X38541100Y-70183604D03*
X42541100Y-69183604D03*
X41541100Y-69183604D03*
X40541100Y-69183604D03*
X39541100Y-69183604D03*
X38541100Y-69183604D03*
%TD*%
D46*
%TO.C,U65*%
X261203900Y-91918379D03*
X258833112Y-89547591D03*
%TD*%
D90*
%TO.C,J42*%
X251631100Y-92793600D03*
D27*
X251631100Y-96385702D03*
X255223202Y-92793600D03*
X251631100Y-89201498D03*
X248038998Y-92793600D03*
%TD*%
D15*
%TO.C,RF_SW_16*%
X182217790Y-99816809D03*
X182571344Y-99463255D03*
X182924897Y-99109702D03*
X183278451Y-98756148D03*
D41*
X183264309Y-97836910D03*
X182910755Y-97483356D03*
X182557202Y-97129803D03*
X182203648Y-96776249D03*
D15*
X181298552Y-96776249D03*
X180944998Y-97129803D03*
X180591445Y-97483356D03*
X180237891Y-97836910D03*
D41*
X180223749Y-98756148D03*
X180577303Y-99109702D03*
X180930856Y-99463255D03*
X181284410Y-99816809D03*
D106*
X181751100Y-98303600D03*
%TD*%
D29*
%TO.C,C115*%
X254757673Y-31543480D03*
X254404119Y-31897034D03*
%TD*%
D79*
%TO.C,L21*%
X135771100Y-189983600D03*
X130771100Y-189983600D03*
%TD*%
D35*
%TO.C,C270*%
X96641100Y-109433600D03*
X97141100Y-109433600D03*
%TD*%
D21*
%TO.C,C337*%
X58191100Y-216633600D03*
X58191100Y-217933600D03*
%TD*%
D13*
%TO.C,R148*%
X173181100Y-222918600D03*
X173181100Y-223428600D03*
%TD*%
D45*
%TO.C,X43*%
X126104356Y-235140150D03*
X123564356Y-235140150D03*
X121024356Y-235140150D03*
%TD*%
D74*
%TO.C,ADTR1107_1*%
X162167812Y-45634985D03*
X161708192Y-45175366D03*
X161248573Y-44715746D03*
X160788954Y-44256127D03*
X160329334Y-43796508D03*
X159869715Y-43336888D03*
D22*
X159132485Y-43336888D03*
X158672866Y-43796508D03*
X158213246Y-44256127D03*
X157753627Y-44715746D03*
X157294008Y-45175366D03*
X156834388Y-45634985D03*
D74*
X156834388Y-46372215D03*
X157294008Y-46831834D03*
X157753627Y-47291454D03*
X158213246Y-47751073D03*
X158672866Y-48210692D03*
X159132485Y-48670312D03*
D22*
X159869715Y-48670312D03*
X160329334Y-48210692D03*
X160788954Y-47751073D03*
X161248573Y-47291454D03*
X161708192Y-46831834D03*
X162167812Y-46372215D03*
D103*
X159501100Y-46003600D03*
%TD*%
D35*
%TO.C,C290*%
X161971100Y-223013600D03*
X162471100Y-223013600D03*
%TD*%
D45*
%TO.C,X_12*%
X87731100Y-210503600D03*
X90271100Y-210503600D03*
%TD*%
D37*
%TO.C,C60*%
X95221100Y-109993600D03*
X95221100Y-109493600D03*
%TD*%
D116*
%TO.C,U42*%
X60681100Y-64223600D03*
X61681100Y-64223600D03*
X62681100Y-64223600D03*
X63681100Y-64223600D03*
X64681100Y-64223600D03*
X65681100Y-64223600D03*
X66681100Y-64223600D03*
X67681100Y-64223600D03*
X68681100Y-64223600D03*
X69681100Y-64223600D03*
X70681100Y-64223600D03*
X71681100Y-64223600D03*
X72681100Y-64223600D03*
X73681100Y-64223600D03*
X74681100Y-64223600D03*
X75681100Y-64223600D03*
X60681100Y-65223600D03*
X61681100Y-65223600D03*
X62681100Y-65223600D03*
X63681100Y-65223600D03*
X64681100Y-65223600D03*
X65681100Y-65223600D03*
X66681100Y-65223600D03*
X67681100Y-65223600D03*
X68681100Y-65223600D03*
X69681100Y-65223600D03*
X70681100Y-65223600D03*
X71681100Y-65223600D03*
X72681100Y-65223600D03*
X73681100Y-65223600D03*
X74681100Y-65223600D03*
X75681100Y-65223600D03*
X60681100Y-66223600D03*
X61681100Y-66223600D03*
X62681100Y-66223600D03*
X63681100Y-66223600D03*
X64681100Y-66223600D03*
X65681100Y-66223600D03*
X66681100Y-66223600D03*
X67681100Y-66223600D03*
X68681100Y-66223600D03*
X69681100Y-66223600D03*
X70681100Y-66223600D03*
X71681100Y-66223600D03*
X72681100Y-66223600D03*
X73681100Y-66223600D03*
X74681100Y-66223600D03*
X75681100Y-66223600D03*
X60681100Y-67223600D03*
X61681100Y-67223600D03*
X62681100Y-67223600D03*
X63681100Y-67223600D03*
X64681100Y-67223600D03*
X65681100Y-67223600D03*
X66681100Y-67223600D03*
X67681100Y-67223600D03*
X68681100Y-67223600D03*
X69681100Y-67223600D03*
X70681100Y-67223600D03*
X71681100Y-67223600D03*
X72681100Y-67223600D03*
X73681100Y-67223600D03*
X74681100Y-67223600D03*
X75681100Y-67223600D03*
X60681100Y-68223600D03*
X61681100Y-68223600D03*
X62681100Y-68223600D03*
X63681100Y-68223600D03*
X64681100Y-68223600D03*
X65681100Y-68223600D03*
X66681100Y-68223600D03*
X67681100Y-68223600D03*
X68681100Y-68223600D03*
X69681100Y-68223600D03*
X70681100Y-68223600D03*
X71681100Y-68223600D03*
X72681100Y-68223600D03*
X73681100Y-68223600D03*
X74681100Y-68223600D03*
X75681100Y-68223600D03*
X60681100Y-69223600D03*
X61681100Y-69223600D03*
X62681100Y-69223600D03*
X63681100Y-69223600D03*
X64681100Y-69223600D03*
X65681100Y-69223600D03*
X66681100Y-69223600D03*
X67681100Y-69223600D03*
X68681100Y-69223600D03*
X69681100Y-69223600D03*
X70681100Y-69223600D03*
X71681100Y-69223600D03*
X72681100Y-69223600D03*
X73681100Y-69223600D03*
X74681100Y-69223600D03*
X75681100Y-69223600D03*
X60681100Y-70223600D03*
X61681100Y-70223600D03*
X62681100Y-70223600D03*
X63681100Y-70223600D03*
X64681100Y-70223600D03*
X65681100Y-70223600D03*
X66681100Y-70223600D03*
X67681100Y-70223600D03*
X68681100Y-70223600D03*
X69681100Y-70223600D03*
X70681100Y-70223600D03*
X71681100Y-70223600D03*
X72681100Y-70223600D03*
X73681100Y-70223600D03*
X74681100Y-70223600D03*
X75681100Y-70223600D03*
X60681100Y-71223600D03*
X61681100Y-71223600D03*
X62681100Y-71223600D03*
X63681100Y-71223600D03*
X64681100Y-71223600D03*
X65681100Y-71223600D03*
X66681100Y-71223600D03*
X67681100Y-71223600D03*
X68681100Y-71223600D03*
X69681100Y-71223600D03*
X70681100Y-71223600D03*
X71681100Y-71223600D03*
X72681100Y-71223600D03*
X73681100Y-71223600D03*
X74681100Y-71223600D03*
X75681100Y-71223600D03*
X60681100Y-72223600D03*
X61681100Y-72223600D03*
X62681100Y-72223600D03*
X63681100Y-72223600D03*
X64681100Y-72223600D03*
X65681100Y-72223600D03*
X66681100Y-72223600D03*
X67681100Y-72223600D03*
X68681100Y-72223600D03*
X69681100Y-72223600D03*
X70681100Y-72223600D03*
X71681100Y-72223600D03*
X72681100Y-72223600D03*
X73681100Y-72223600D03*
X74681100Y-72223600D03*
X75681100Y-72223600D03*
X60681100Y-73223600D03*
X61681100Y-73223600D03*
X62681100Y-73223600D03*
X63681100Y-73223600D03*
X64681100Y-73223600D03*
X65681100Y-73223600D03*
X66681100Y-73223600D03*
X67681100Y-73223600D03*
X68681100Y-73223600D03*
X69681100Y-73223600D03*
X70681100Y-73223600D03*
X71681100Y-73223600D03*
X72681100Y-73223600D03*
X73681100Y-73223600D03*
X74681100Y-73223600D03*
X75681100Y-73223600D03*
X60681100Y-74223600D03*
X61681100Y-74223600D03*
X62681100Y-74223600D03*
X63681100Y-74223600D03*
X64681100Y-74223600D03*
X65681100Y-74223600D03*
X66681100Y-74223600D03*
X67681100Y-74223600D03*
X68681100Y-74223600D03*
X69681100Y-74223600D03*
X70681100Y-74223600D03*
X71681100Y-74223600D03*
X72681100Y-74223600D03*
X73681100Y-74223600D03*
X74681100Y-74223600D03*
X75681100Y-74223600D03*
X60681100Y-75223600D03*
X61681100Y-75223600D03*
X62681100Y-75223600D03*
X63681100Y-75223600D03*
X64681100Y-75223600D03*
X65681100Y-75223600D03*
X66681100Y-75223600D03*
X67681100Y-75223600D03*
X68681100Y-75223600D03*
X69681100Y-75223600D03*
X70681100Y-75223600D03*
X71681100Y-75223600D03*
X72681100Y-75223600D03*
X73681100Y-75223600D03*
X74681100Y-75223600D03*
X75681100Y-75223600D03*
X60681100Y-76223600D03*
X61681100Y-76223600D03*
X62681100Y-76223600D03*
X63681100Y-76223600D03*
X64681100Y-76223600D03*
X65681100Y-76223600D03*
X66681100Y-76223600D03*
X67681100Y-76223600D03*
X68681100Y-76223600D03*
X69681100Y-76223600D03*
X70681100Y-76223600D03*
X71681100Y-76223600D03*
X72681100Y-76223600D03*
X73681100Y-76223600D03*
X74681100Y-76223600D03*
X75681100Y-76223600D03*
X60681100Y-77223600D03*
X61681100Y-77223600D03*
X62681100Y-77223600D03*
X63681100Y-77223600D03*
X64681100Y-77223600D03*
X65681100Y-77223600D03*
X66681100Y-77223600D03*
X67681100Y-77223600D03*
X68681100Y-77223600D03*
X69681100Y-77223600D03*
X70681100Y-77223600D03*
X71681100Y-77223600D03*
X72681100Y-77223600D03*
X73681100Y-77223600D03*
X74681100Y-77223600D03*
X75681100Y-77223600D03*
X60681100Y-78223600D03*
X61681100Y-78223600D03*
X62681100Y-78223600D03*
X63681100Y-78223600D03*
X64681100Y-78223600D03*
X65681100Y-78223600D03*
X66681100Y-78223600D03*
X67681100Y-78223600D03*
X68681100Y-78223600D03*
X69681100Y-78223600D03*
X70681100Y-78223600D03*
X71681100Y-78223600D03*
X72681100Y-78223600D03*
X73681100Y-78223600D03*
X74681100Y-78223600D03*
X75681100Y-78223600D03*
X60681100Y-79223600D03*
X61681100Y-79223600D03*
X62681100Y-79223600D03*
X63681100Y-79223600D03*
X64681100Y-79223600D03*
X65681100Y-79223600D03*
X66681100Y-79223600D03*
X67681100Y-79223600D03*
X68681100Y-79223600D03*
X69681100Y-79223600D03*
X70681100Y-79223600D03*
X71681100Y-79223600D03*
X72681100Y-79223600D03*
X73681100Y-79223600D03*
X74681100Y-79223600D03*
X75681100Y-79223600D03*
%TD*%
D117*
%TO.C,U$2*%
X119361100Y-43093600D03*
X100946100Y-43093600D03*
%TD*%
D13*
%TO.C,R47*%
X171002753Y-29718813D03*
X171002753Y-30228813D03*
%TD*%
D30*
%TO.C,R95*%
X50266100Y-207223600D03*
X49756100Y-207223600D03*
%TD*%
D54*
%TO.C,JP3*%
X24041100Y-74393600D03*
X21501100Y-74393600D03*
X24041100Y-71853600D03*
X21501100Y-71853600D03*
X24041100Y-69313600D03*
X21501100Y-69313600D03*
X24041100Y-66773600D03*
X21501100Y-66773600D03*
%TD*%
D35*
%TO.C,C14*%
X71246100Y-98523600D03*
X71746100Y-98523600D03*
%TD*%
D28*
%TO.C,C232*%
X181402204Y-127710634D03*
X181755758Y-127357080D03*
%TD*%
D20*
%TO.C,R31*%
X69426100Y-41013600D03*
X69936100Y-41013600D03*
%TD*%
D35*
%TO.C,C182*%
X80881100Y-83938600D03*
X81381100Y-83938600D03*
%TD*%
%TO.C,L10*%
X89886100Y-109453600D03*
X90436100Y-109453600D03*
%TD*%
D28*
%TO.C,C135*%
X183934051Y-47951124D03*
X184287605Y-47597570D03*
%TD*%
D30*
%TO.C,R121*%
X53366100Y-228823600D03*
X52856100Y-228823600D03*
%TD*%
D13*
%TO.C,R85*%
X80091100Y-207608600D03*
X80091100Y-208118600D03*
%TD*%
D33*
%TO.C,C94*%
X244186100Y-117083600D03*
X244186100Y-117583600D03*
%TD*%
D53*
%TO.C,JP2*%
X58121100Y-174133600D03*
X60661100Y-174133600D03*
X63201100Y-174133600D03*
X65741100Y-174133600D03*
X68281100Y-174133600D03*
X70821100Y-174133600D03*
%TD*%
D40*
%TO.C,UNK_HOLE_0*%
X22501100Y-251003600D03*
%TD*%
D13*
%TO.C,R101*%
X82801100Y-227618600D03*
X82801100Y-228128600D03*
%TD*%
D35*
%TO.C,C25*%
X105572700Y-159003488D03*
X106072700Y-159003488D03*
%TD*%
D21*
%TO.C,C339*%
X178176565Y-215787700D03*
X178176565Y-217087700D03*
%TD*%
D13*
%TO.C,R78*%
X245376100Y-32143600D03*
X245376100Y-32653600D03*
%TD*%
D38*
%TO.C,C35*%
X90160290Y-165542247D03*
X89660290Y-165542247D03*
%TD*%
D29*
%TO.C,C228*%
X260540720Y-52427186D03*
X260187166Y-52780740D03*
%TD*%
D33*
%TO.C,C16*%
X71781100Y-96523600D03*
X71781100Y-97023600D03*
%TD*%
D13*
%TO.C,R65*%
X26836100Y-67163600D03*
X26836100Y-67673600D03*
%TD*%
D18*
%TO.C,C221*%
X259813060Y-97117620D03*
X260166614Y-97471174D03*
%TD*%
D26*
%TO.C,J48*%
X188801100Y-120343600D03*
D27*
X185208998Y-120343600D03*
X188801100Y-123935702D03*
X192393202Y-120343600D03*
X188801100Y-116751498D03*
%TD*%
D45*
%TO.C,X_10*%
X87631100Y-240303600D03*
X90171100Y-240303600D03*
%TD*%
D18*
%TO.C,C253*%
X153633010Y-126252477D03*
X153986564Y-126606031D03*
%TD*%
D46*
%TO.C,U38*%
X183986494Y-17345563D03*
X181615706Y-14974775D03*
%TD*%
D17*
%TO.C,C345*%
X128037862Y-210317854D03*
X128037862Y-209017854D03*
%TD*%
D13*
%TO.C,R56*%
X243666100Y-117138600D03*
X243666100Y-117648600D03*
%TD*%
%TO.C,R147*%
X163131100Y-223018600D03*
X163131100Y-223528600D03*
%TD*%
D20*
%TO.C,R146*%
X18346100Y-311053600D03*
X18856100Y-311053600D03*
%TD*%
D35*
%TO.C,C273*%
X122221100Y-222963600D03*
X122721100Y-222963600D03*
%TD*%
D33*
%TO.C,C96*%
X244736100Y-118723600D03*
X244736100Y-119223600D03*
%TD*%
D45*
%TO.C,X14*%
X138271100Y23776400D03*
X135731100Y23776400D03*
%TD*%
D71*
%TO.C,U54*%
X185145990Y-134093529D03*
X187516778Y-131722741D03*
%TD*%
D20*
%TO.C,R96*%
X53066100Y-207233600D03*
X53576100Y-207233600D03*
%TD*%
D67*
%TO.C,U7*%
X65186100Y-203213600D03*
X65186100Y-203713600D03*
X65186100Y-204213600D03*
X65186100Y-204713600D03*
X65186100Y-205213600D03*
X65186100Y-205713600D03*
D68*
X65910785Y-206438600D03*
X66410913Y-206438600D03*
X66911038Y-206438600D03*
X67411162Y-206438600D03*
X67911287Y-206438600D03*
X68411415Y-206438600D03*
D67*
X69136100Y-205713600D03*
X69136100Y-205213600D03*
X69136100Y-204713600D03*
X69136100Y-204213600D03*
X69136100Y-203713600D03*
X69136100Y-203213600D03*
D68*
X68411415Y-202488600D03*
X67911287Y-202488600D03*
X67411162Y-202488600D03*
X66911038Y-202488600D03*
X66410913Y-202488600D03*
X65910785Y-202488600D03*
D69*
X67161100Y-204463600D03*
D70*
X66373700Y-205251000D03*
X66373700Y-204463600D03*
X66373700Y-203676200D03*
X67161100Y-205251000D03*
X67161100Y-204463600D03*
X67161100Y-203676200D03*
X67948500Y-205251000D03*
X67948500Y-204463600D03*
X67948500Y-203676200D03*
%TD*%
D45*
%TO.C,X15*%
X203841100Y-164033600D03*
X206381100Y-164033600D03*
%TD*%
D35*
%TO.C,C15*%
X76846100Y-91148600D03*
X77346100Y-91148600D03*
%TD*%
D32*
%TO.C,C77*%
X125881100Y-215963600D03*
X125881100Y-217863600D03*
%TD*%
D33*
%TO.C,C59*%
X98641100Y-41013600D03*
X98641100Y-41513600D03*
%TD*%
D19*
%TO.C,U58*%
X151873394Y-90237253D03*
X149502606Y-92608041D03*
%TD*%
D36*
%TO.C,R126*%
X115851100Y-211838600D03*
X115851100Y-211328600D03*
%TD*%
D60*
%TO.C,L23*%
X142841100Y-190023600D03*
X147841100Y-190023600D03*
%TD*%
D26*
%TO.C,J49*%
X176751100Y-132393600D03*
D27*
X173158998Y-132393600D03*
X176751100Y-135985702D03*
X180343202Y-132393600D03*
X176751100Y-128801498D03*
%TD*%
D38*
%TO.C,C280*%
X187231100Y-211993600D03*
X186731100Y-211993600D03*
%TD*%
D35*
%TO.C,C30*%
X89160468Y-139968982D03*
X89660468Y-139968982D03*
%TD*%
D13*
%TO.C,R110*%
X95201100Y-138868600D03*
X95201100Y-139378600D03*
%TD*%
D44*
%TO.C,X9*%
X23121100Y-83600D03*
X23121100Y-2623600D03*
%TD*%
D28*
%TO.C,C106*%
X234177860Y-42290987D03*
X234531414Y-41937433D03*
%TD*%
D29*
%TO.C,C155*%
X56952983Y-60038617D03*
X56599429Y-60392171D03*
%TD*%
D13*
%TO.C,R67*%
X26986100Y-72278600D03*
X26986100Y-72788600D03*
%TD*%
D32*
%TO.C,C312*%
X41731100Y-97563600D03*
X41731100Y-99463600D03*
%TD*%
D38*
%TO.C,C286*%
X157131100Y-211943600D03*
X156631100Y-211943600D03*
%TD*%
D30*
%TO.C,R64*%
X26826100Y-66643600D03*
X26316100Y-66643600D03*
%TD*%
D21*
%TO.C,C328*%
X183431100Y-176273600D03*
X183431100Y-177573600D03*
%TD*%
D20*
%TO.C,R84*%
X18346100Y-301553600D03*
X18856100Y-301553600D03*
%TD*%
D25*
%TO.C,C161*%
X182910283Y-96088381D03*
X182556729Y-95734827D03*
%TD*%
D36*
%TO.C,R25*%
X73191100Y-54138600D03*
X73191100Y-53628600D03*
%TD*%
D44*
%TO.C,X11*%
X265381100Y-148803600D03*
X265381100Y-146263600D03*
%TD*%
D25*
%TO.C,C222*%
X228987752Y-129356602D03*
X228634198Y-129003048D03*
%TD*%
D80*
%TO.C,J23*%
X101001100Y-33193600D03*
D27*
X98461100Y-30653600D03*
X98461100Y-35733600D03*
X103541100Y-35733600D03*
X103541100Y-30653600D03*
%TD*%
D32*
%TO.C,C75*%
X60481100Y-216613600D03*
X60481100Y-218513600D03*
%TD*%
D25*
%TO.C,C234*%
X181007877Y-124150377D03*
X180654323Y-123796823D03*
%TD*%
D21*
%TO.C,C346*%
X161078325Y-224343272D03*
X161078325Y-225643272D03*
%TD*%
D37*
%TO.C,C63*%
X92341100Y-110023600D03*
X92341100Y-109523600D03*
%TD*%
D20*
%TO.C,R154*%
X60516100Y-89713600D03*
X61026100Y-89713600D03*
%TD*%
D18*
%TO.C,C220*%
X231994323Y-101896823D03*
X232347877Y-102250377D03*
%TD*%
D45*
%TO.C,X_8*%
X57931100Y-195553600D03*
X60471100Y-195553600D03*
%TD*%
D25*
%TO.C,C173*%
X256757877Y-47900377D03*
X256404323Y-47546823D03*
%TD*%
D33*
%TO.C,C98*%
X168486100Y-117038600D03*
X168486100Y-117538600D03*
%TD*%
D45*
%TO.C,X50*%
X166058368Y-234923638D03*
X163518368Y-234923638D03*
X160978368Y-234923638D03*
%TD*%
D13*
%TO.C,R123*%
X67701100Y-236318600D03*
X67701100Y-236828600D03*
%TD*%
D30*
%TO.C,R97*%
X53606100Y-198773600D03*
X53096100Y-198773600D03*
%TD*%
D20*
%TO.C,R160*%
X105866100Y-71563600D03*
X106376100Y-71563600D03*
%TD*%
D26*
%TO.C,J39*%
X264051100Y-29393600D03*
D27*
X260458998Y-29393600D03*
X264051100Y-32985702D03*
X267643202Y-29393600D03*
X264051100Y-25801498D03*
%TD*%
D28*
%TO.C,C200*%
X228455888Y-97650871D03*
X228809442Y-97297317D03*
%TD*%
D36*
%TO.C,R72*%
X242566100Y-108678600D03*
X242566100Y-108168600D03*
%TD*%
D12*
%TO.C,JP16*%
X201821100Y-202253600D03*
X201821100Y-204793600D03*
X201821100Y-207333600D03*
%TD*%
D28*
%TO.C,C134*%
X180822769Y-51061087D03*
X181176323Y-50707533D03*
%TD*%
D45*
%TO.C,X_11*%
X72731100Y-210503600D03*
X75271100Y-210503600D03*
%TD*%
D29*
%TO.C,C147*%
X228505623Y-23874673D03*
X228152069Y-24228227D03*
%TD*%
D13*
%TO.C,R112*%
X93651100Y-138818600D03*
X93651100Y-139328600D03*
%TD*%
%TO.C,R70*%
X246461100Y-32138600D03*
X246461100Y-32648600D03*
%TD*%
D32*
%TO.C,C336*%
X55981100Y-216663600D03*
X55981100Y-218563600D03*
%TD*%
D55*
%TO.C,C185*%
X18301100Y-329753600D03*
X19601100Y-329753600D03*
%TD*%
D28*
%TO.C,C145*%
X229486704Y-22642399D03*
X229840258Y-22288845D03*
%TD*%
D45*
%TO.C,X49*%
X156083684Y-234977082D03*
X153543684Y-234977082D03*
X151003684Y-234977082D03*
%TD*%
D37*
%TO.C,C80*%
X132104815Y-74697582D03*
X132104815Y-74197582D03*
%TD*%
D25*
%TO.C,C108*%
X78702158Y-61474868D03*
X78348604Y-61121314D03*
%TD*%
D26*
%TO.C,J36*%
X265801100Y-43393600D03*
D27*
X262208998Y-43393600D03*
X265801100Y-46985702D03*
X269393202Y-43393600D03*
X265801100Y-39801498D03*
%TD*%
D32*
%TO.C,C326*%
X187531100Y-176313600D03*
X187531100Y-178213600D03*
%TD*%
D35*
%TO.C,L26*%
X97626100Y-40963600D03*
X98176100Y-40963600D03*
%TD*%
D26*
%TO.C,J45*%
X235451100Y-93493600D03*
D27*
X231858998Y-93493600D03*
X235451100Y-97085702D03*
X239043202Y-93493600D03*
X235451100Y-89901498D03*
%TD*%
D45*
%TO.C,X_5*%
X42731100Y-225503600D03*
X45271100Y-225503600D03*
%TD*%
D30*
%TO.C,R21*%
X77916100Y-114553600D03*
X77406100Y-114553600D03*
%TD*%
D37*
%TO.C,C44*%
X76311100Y-107153600D03*
X76311100Y-106653600D03*
%TD*%
D29*
%TO.C,C218*%
X231093483Y-97859614D03*
X230739929Y-98213168D03*
%TD*%
D37*
%TO.C,C79*%
X131450496Y-74697582D03*
X131450496Y-74197582D03*
%TD*%
D29*
%TO.C,C68*%
X152377877Y-23855108D03*
X152024323Y-24208662D03*
%TD*%
D45*
%TO.C,X20*%
X206311100Y30626400D03*
X203771100Y30626400D03*
%TD*%
D15*
%TO.C,RF_SW_12*%
X257567790Y-100216809D03*
X257921344Y-99863255D03*
X258274897Y-99509702D03*
X258628451Y-99156148D03*
D41*
X258614309Y-98236910D03*
X258260755Y-97883356D03*
X257907202Y-97529803D03*
X257553648Y-97176249D03*
D15*
X256648552Y-97176249D03*
X256294998Y-97529803D03*
X255941445Y-97883356D03*
X255587891Y-98236910D03*
D41*
X255573749Y-99156148D03*
X255927303Y-99509702D03*
X256280856Y-99863255D03*
X256634410Y-100216809D03*
D106*
X257101100Y-98703600D03*
%TD*%
D38*
%TO.C,C265*%
X116831100Y-211843600D03*
X116331100Y-211843600D03*
%TD*%
D82*
%TO.C,U11*%
X131303134Y-208886169D03*
X131303134Y-209536169D03*
X131303134Y-210186169D03*
X131303134Y-210836169D03*
X135703134Y-210836169D03*
X135703134Y-210186169D03*
X135703134Y-209536169D03*
X135703134Y-208886169D03*
%TD*%
D28*
%TO.C,C162*%
X185540707Y-127219990D03*
X185894261Y-126866436D03*
%TD*%
D26*
%TO.C,J29*%
X175841100Y-56113600D03*
D27*
X172248998Y-56113600D03*
X175841100Y-59705702D03*
X179433202Y-56113600D03*
X175841100Y-52521498D03*
%TD*%
D47*
%TO.C,C329*%
X28281100Y-240963600D03*
X28281100Y-243763600D03*
%TD*%
D30*
%TO.C,R138*%
X87786100Y-83858600D03*
X87276100Y-83858600D03*
%TD*%
D19*
%TO.C,U46*%
X229041294Y-15706238D03*
X226670506Y-18077026D03*
%TD*%
D35*
%TO.C,L24*%
X95726100Y-110063600D03*
X96276100Y-110063600D03*
%TD*%
D118*
%TO.C,R37*%
X71811100Y-102013600D03*
X72811100Y-102013600D03*
%TD*%
D29*
%TO.C,C213*%
X255547877Y-100606823D03*
X255194323Y-100960377D03*
%TD*%
D37*
%TO.C,C19*%
X111321100Y-156833600D03*
X111321100Y-156333600D03*
%TD*%
D119*
%TO.C,C315*%
X210421100Y30256400D03*
X210421100Y33056400D03*
%TD*%
D19*
%TO.C,U17*%
X148176494Y-21568206D03*
X145805706Y-23938994D03*
%TD*%
D35*
%TO.C,C41*%
X84496100Y-40523600D03*
X84996100Y-40523600D03*
%TD*%
D96*
%TO.C,U62*%
X223924074Y-52055363D03*
X226294862Y-54426151D03*
%TD*%
D25*
%TO.C,C216*%
X258199011Y-96499452D03*
X257845457Y-96145898D03*
%TD*%
D18*
%TO.C,C249*%
X259183919Y-21723211D03*
X259537473Y-22076765D03*
%TD*%
D71*
%TO.C,U53*%
X189496631Y-129842891D03*
X191867419Y-127472103D03*
%TD*%
D29*
%TO.C,C153*%
X57409067Y-60494702D03*
X57055513Y-60848256D03*
%TD*%
D40*
%TO.C,UNK_HOLE_7*%
X134501100Y-5003600D03*
%TD*%
D120*
%TO.C,SV1*%
X67261100Y-127593600D03*
X69801100Y-127593600D03*
X67261100Y-130133600D03*
X69801100Y-130133600D03*
X67261100Y-132673600D03*
X69801100Y-132673600D03*
X67261100Y-135213600D03*
X69801100Y-135213600D03*
X67261100Y-137753600D03*
X69801100Y-137753600D03*
X67261100Y-140293600D03*
X69801100Y-140293600D03*
X67261100Y-142833600D03*
X69801100Y-142833600D03*
X67261100Y-145373600D03*
X69801100Y-145373600D03*
X67261100Y-147913600D03*
X69801100Y-147913600D03*
X67261100Y-150453600D03*
X69801100Y-150453600D03*
%TD*%
D36*
%TO.C,R54*%
X35966100Y-69963600D03*
X35966100Y-69453600D03*
%TD*%
D18*
%TO.C,C152*%
X183982044Y-97208948D03*
X184335598Y-97562502D03*
%TD*%
D25*
%TO.C,C138*%
X153696464Y-52442968D03*
X153342910Y-52089414D03*
%TD*%
D66*
%TO.C,D3*%
X90381100Y-137410600D03*
X90381100Y-135656600D03*
%TD*%
D25*
%TO.C,C236*%
X229456383Y-52490499D03*
X229102829Y-52136945D03*
%TD*%
D71*
%TO.C,U40*%
X188328727Y-52473910D03*
X190699515Y-50103122D03*
%TD*%
D30*
%TO.C,R140*%
X87786100Y-85158600D03*
X87276100Y-85158600D03*
%TD*%
D35*
%TO.C,L22*%
X96186100Y-40983600D03*
X96736100Y-40983600D03*
%TD*%
D41*
%TO.C,RF_SW_11*%
X231064309Y-99286910D03*
X230710755Y-98933356D03*
X230357202Y-98579803D03*
X230003648Y-98226249D03*
D42*
X229084410Y-98240391D03*
X228730856Y-98593945D03*
X228377303Y-98947498D03*
X228023749Y-99301052D03*
D41*
X228023749Y-100206148D03*
X228377303Y-100559702D03*
X228730856Y-100913255D03*
X229084410Y-101266809D03*
D42*
X230003648Y-101280951D03*
X230357202Y-100927397D03*
X230710755Y-100573844D03*
X231064309Y-100220290D03*
D43*
X229551100Y-99753600D03*
%TD*%
D37*
%TO.C,C33*%
X79910078Y-155009366D03*
X79910078Y-154509366D03*
%TD*%
D45*
%TO.C,X39*%
X110795328Y-199929750D03*
X113335328Y-199929750D03*
X115875328Y-199929750D03*
%TD*%
%TO.C,X51*%
X176049221Y-235138807D03*
X173509221Y-235138807D03*
X170969221Y-235138807D03*
%TD*%
D30*
%TO.C,R171*%
X105336100Y-156933600D03*
X104826100Y-156933600D03*
%TD*%
D26*
%TO.C,J43*%
X263961100Y-104983600D03*
D27*
X260368998Y-104983600D03*
X263961100Y-108575702D03*
X267553202Y-104983600D03*
X263961100Y-101391498D03*
%TD*%
D13*
%TO.C,R43*%
X67091100Y-230008600D03*
X67091100Y-230518600D03*
%TD*%
D33*
%TO.C,C100*%
X169566100Y-118448600D03*
X169566100Y-118948600D03*
%TD*%
D121*
%TO.C,R36*%
X72831100Y-100653600D03*
X71831100Y-100653600D03*
%TD*%
D35*
%TO.C,C297*%
X172871100Y-218823600D03*
X173371100Y-218823600D03*
%TD*%
%TO.C,C65*%
X90871100Y-109443600D03*
X91371100Y-109443600D03*
%TD*%
D38*
%TO.C,C43*%
X77351100Y-112928600D03*
X76851100Y-112928600D03*
%TD*%
D18*
%TO.C,C140*%
X154715607Y-53574105D03*
X155069161Y-53927659D03*
%TD*%
D14*
%TO.C,RF_SW_14*%
X181437891Y-126270290D03*
X181791445Y-126623844D03*
X182144998Y-126977397D03*
X182498552Y-127330951D03*
D15*
X183417790Y-127316809D03*
X183771344Y-126963255D03*
X184124897Y-126609702D03*
X184478451Y-126256148D03*
D14*
X184478451Y-125351052D03*
X184124897Y-124997498D03*
X183771344Y-124643945D03*
X183417790Y-124290391D03*
D15*
X182498552Y-124276249D03*
X182144998Y-124629803D03*
X181791445Y-124983356D03*
X181437891Y-125336910D03*
D16*
X182951100Y-125803600D03*
%TD*%
D21*
%TO.C,C49*%
X73121100Y-110963600D03*
X73121100Y-112263600D03*
%TD*%
D85*
%TO.C,OPA_4*%
X79551100Y-205823000D03*
X80201100Y-205823000D03*
X80851100Y-205823000D03*
X81501100Y-205823000D03*
X82151100Y-205823000D03*
X82801100Y-205823000D03*
X83451100Y-205823000D03*
X83451100Y-200184200D03*
X82801100Y-200184200D03*
X82151100Y-200184200D03*
X81501100Y-200184200D03*
X80851100Y-200184200D03*
X80201100Y-200184200D03*
X79551100Y-200184200D03*
%TD*%
D31*
%TO.C,U84*%
X157728965Y-225961694D03*
X157728965Y-225311694D03*
X157728965Y-224661694D03*
X157728965Y-224011694D03*
X153328965Y-224011694D03*
X153328965Y-224661694D03*
X153328965Y-225311694D03*
X153328965Y-225961694D03*
%TD*%
D29*
%TO.C,C131*%
X183960211Y-51788492D03*
X183606657Y-52142046D03*
%TD*%
D20*
%TO.C,R167*%
X80066100Y-157523600D03*
X80576100Y-157523600D03*
%TD*%
D18*
%TO.C,C151*%
X232244323Y-26096823D03*
X232597877Y-26450377D03*
%TD*%
%TO.C,C163*%
X230194051Y-49482445D03*
X230547605Y-49835999D03*
%TD*%
D36*
%TO.C,R80*%
X166901100Y-117588600D03*
X166901100Y-117078600D03*
%TD*%
D26*
%TO.C,J38*%
X250501100Y-15893600D03*
D27*
X246908998Y-15893600D03*
X250501100Y-19485702D03*
X254093202Y-15893600D03*
X250501100Y-12301498D03*
%TD*%
D18*
%TO.C,C231*%
X230535944Y-53606830D03*
X230889498Y-53960384D03*
%TD*%
D38*
%TO.C,C267*%
X107081100Y-211893600D03*
X106581100Y-211893600D03*
%TD*%
D30*
%TO.C,R103*%
X80046100Y-236973600D03*
X79536100Y-236973600D03*
%TD*%
%TO.C,R7*%
X70606100Y-82013600D03*
X70096100Y-82013600D03*
%TD*%
D82*
%TO.C,U81*%
X171145196Y-208813900D03*
X171145196Y-209463900D03*
X171145196Y-210113900D03*
X171145196Y-210763900D03*
X175545196Y-210763900D03*
X175545196Y-210113900D03*
X175545196Y-209463900D03*
X175545196Y-208813900D03*
%TD*%
D18*
%TO.C,C242*%
X259664173Y-21203467D03*
X260017727Y-21557021D03*
%TD*%
D36*
%TO.C,R76*%
X168264384Y-122360019D03*
X168264384Y-121850019D03*
%TD*%
D28*
%TO.C,C183*%
X185055807Y-126773296D03*
X185409361Y-126419742D03*
%TD*%
D38*
%TO.C,C279*%
X95130171Y-165650010D03*
X94630171Y-165650010D03*
%TD*%
D45*
%TO.C,X1*%
X210671100Y21596400D03*
X208131100Y21596400D03*
%TD*%
D13*
%TO.C,R107*%
X50151100Y-237568600D03*
X50151100Y-238078600D03*
%TD*%
D20*
%TO.C,R69*%
X78316100Y-72293600D03*
X78826100Y-72293600D03*
%TD*%
D30*
%TO.C,R20*%
X76976100Y-114553600D03*
X76466100Y-114553600D03*
%TD*%
D32*
%TO.C,C319*%
X223331100Y35486400D03*
X223331100Y33586400D03*
%TD*%
D35*
%TO.C,C285*%
X56351100Y-77528600D03*
X56851100Y-77528600D03*
%TD*%
D41*
%TO.C,RF_SW_15*%
X155114309Y-99436910D03*
X154760755Y-99083356D03*
X154407202Y-98729803D03*
X154053648Y-98376249D03*
D42*
X153134410Y-98390391D03*
X152780856Y-98743945D03*
X152427303Y-99097498D03*
X152073749Y-99451052D03*
D41*
X152073749Y-100356148D03*
X152427303Y-100709702D03*
X152780856Y-101063255D03*
X153134410Y-101416809D03*
D42*
X154053648Y-101430951D03*
X154407202Y-101077397D03*
X154760755Y-100723844D03*
X155114309Y-100370290D03*
D43*
X153601100Y-99903600D03*
%TD*%
D37*
%TO.C,C11*%
X79846100Y-101483600D03*
X79846100Y-100983600D03*
%TD*%
D13*
%TO.C,R44*%
X66461100Y-230058600D03*
X66461100Y-230568600D03*
%TD*%
D25*
%TO.C,C206*%
X256757877Y-123900377D03*
X256404323Y-123546823D03*
%TD*%
D12*
%TO.C,JP12*%
X207021100Y-202273600D03*
X207021100Y-204813600D03*
X207021100Y-207353600D03*
%TD*%
D25*
%TO.C,C120*%
X173818423Y-123314762D03*
X173464869Y-122961208D03*
%TD*%
D12*
%TO.C,JP11*%
X212321100Y-202513600D03*
X212321100Y-205053600D03*
X212321100Y-207593600D03*
%TD*%
D44*
%TO.C,X10*%
X24231100Y-89273600D03*
X24231100Y-91813600D03*
%TD*%
D36*
%TO.C,R55*%
X245911100Y-32663600D03*
X245911100Y-32153600D03*
%TD*%
%TO.C,R133*%
X186171100Y-211988600D03*
X186171100Y-211478600D03*
%TD*%
D105*
%TO.C,XTAL3*%
X109181100Y-156841100D03*
X109181100Y-158746100D03*
%TD*%
D35*
%TO.C,L4*%
X92896100Y-109443600D03*
X93446100Y-109443600D03*
%TD*%
D18*
%TO.C,C196*%
X154032791Y-130491286D03*
X154386345Y-130844840D03*
%TD*%
D35*
%TO.C,C85*%
X202081100Y-75243600D03*
X202581100Y-75243600D03*
%TD*%
D19*
%TO.C,U57*%
X146522753Y-95587894D03*
X144151965Y-97958682D03*
%TD*%
D122*
%TO.C,U89*%
X221376100Y-216924200D03*
X220726100Y-216924200D03*
X220076100Y-216924200D03*
X219426100Y-216924200D03*
X218776104Y-216924200D03*
X218126100Y-216924200D03*
X217476104Y-216924200D03*
X216826100Y-216924200D03*
X216826100Y-222563000D03*
X217476100Y-222563000D03*
X218126100Y-222563000D03*
X218776100Y-222563000D03*
X219426096Y-222563000D03*
X220076100Y-222563000D03*
X220726096Y-222563000D03*
X221376100Y-222563000D03*
%TD*%
D35*
%TO.C,C2*%
X82771100Y-97923600D03*
X83271100Y-97923600D03*
%TD*%
D90*
%TO.C,J30*%
X174031100Y-16363600D03*
D27*
X174031100Y-19955702D03*
X177623202Y-16363600D03*
X174031100Y-12771498D03*
X170438998Y-16363600D03*
%TD*%
D35*
%TO.C,C180*%
X80871100Y-82763600D03*
X81371100Y-82763600D03*
%TD*%
D26*
%TO.C,J47*%
X225021100Y-121683600D03*
D27*
X221428998Y-121683600D03*
X225021100Y-125275702D03*
X228613202Y-121683600D03*
X225021100Y-118091498D03*
%TD*%
D18*
%TO.C,C167*%
X184501788Y-96728692D03*
X184855342Y-97082246D03*
%TD*%
D35*
%TO.C,C281*%
X101157828Y-165595385D03*
X101657828Y-165595385D03*
%TD*%
D17*
%TO.C,C48*%
X81051100Y-112313600D03*
X81051100Y-111013600D03*
%TD*%
D46*
%TO.C,U67*%
X260805181Y-16319660D03*
X258434393Y-13948872D03*
%TD*%
D30*
%TO.C,R49*%
X27076100Y-74343600D03*
X26566100Y-74343600D03*
%TD*%
D26*
%TO.C,J31*%
X187541100Y-29863600D03*
D27*
X183948998Y-29863600D03*
X187541100Y-33455702D03*
X191133202Y-29863600D03*
X187541100Y-26271498D03*
%TD*%
D37*
%TO.C,C8*%
X77896100Y-101483600D03*
X77896100Y-100983600D03*
%TD*%
D36*
%TO.C,R29*%
X78261100Y-54068600D03*
X78261100Y-53558600D03*
%TD*%
D30*
%TO.C,R14*%
X77361100Y-111728600D03*
X76851100Y-111728600D03*
%TD*%
D37*
%TO.C,C34*%
X79854759Y-161509494D03*
X79854759Y-161009494D03*
%TD*%
D32*
%TO.C,C333*%
X119481100Y-118013600D03*
X119481100Y-119913600D03*
%TD*%
D35*
%TO.C,C295*%
X172871100Y-219523600D03*
X173371100Y-219523600D03*
%TD*%
D13*
%TO.C,R59*%
X50241100Y-207798600D03*
X50241100Y-208308600D03*
%TD*%
D25*
%TO.C,C215*%
X229407495Y-128976346D03*
X229053941Y-128622792D03*
%TD*%
%TO.C,C142*%
X182496895Y-24789887D03*
X182143341Y-24436333D03*
%TD*%
D37*
%TO.C,C276*%
X123081100Y-215433600D03*
X123081100Y-214933600D03*
%TD*%
D96*
%TO.C,U44*%
X146378868Y-52579306D03*
X148749656Y-54950094D03*
%TD*%
D35*
%TO.C,C268*%
X96651100Y-110053600D03*
X97151100Y-110053600D03*
%TD*%
D20*
%TO.C,R92*%
X79606100Y-198833600D03*
X80116100Y-198833600D03*
%TD*%
D29*
%TO.C,C208*%
X260293589Y-128177461D03*
X259940035Y-128531015D03*
%TD*%
D96*
%TO.C,U61*%
X227474715Y-56306003D03*
X229845503Y-58676791D03*
%TD*%
D25*
%TO.C,C105*%
X173848042Y-47269377D03*
X173494488Y-46915823D03*
%TD*%
D20*
%TO.C,R34*%
X74476100Y-119313600D03*
X74986100Y-119313600D03*
%TD*%
D25*
%TO.C,C239*%
X183672477Y-99848209D03*
X183318923Y-99494655D03*
%TD*%
D18*
%TO.C,C170*%
X154514326Y-129972823D03*
X154867880Y-130326377D03*
%TD*%
D80*
%TO.C,J22*%
X101231100Y-118153600D03*
D27*
X98691100Y-115613600D03*
X98691100Y-120693600D03*
X103771100Y-120693600D03*
X103771100Y-115613600D03*
%TD*%
D35*
%TO.C,C178*%
X80896100Y-80743600D03*
X81396100Y-80743600D03*
%TD*%
D60*
%TO.C,L18*%
X136121100Y-248523600D03*
X141121100Y-248523600D03*
%TD*%
D29*
%TO.C,C104*%
X178801748Y-31571786D03*
X178448194Y-31925340D03*
%TD*%
D12*
%TO.C,JP14*%
X233421100Y-202333600D03*
X233421100Y-204873600D03*
X233421100Y-207413600D03*
%TD*%
D30*
%TO.C,R32*%
X77511100Y-121403600D03*
X77001100Y-121403600D03*
%TD*%
D113*
%TO.C,U15*%
X129351100Y-70957200D03*
X129351100Y-74310000D03*
%TD*%
D37*
%TO.C,C304*%
X233151100Y-200433600D03*
X233151100Y-199933600D03*
%TD*%
D42*
%TO.C,RF_SW_1*%
X155934410Y-49340391D03*
X155580856Y-49693945D03*
X155227303Y-50047498D03*
X154873749Y-50401052D03*
D14*
X154887891Y-51320290D03*
X155241445Y-51673844D03*
X155594998Y-52027397D03*
X155948552Y-52380951D03*
D42*
X156853648Y-52380951D03*
X157207202Y-52027397D03*
X157560755Y-51673844D03*
X157914309Y-51320290D03*
D14*
X157928451Y-50401052D03*
X157574897Y-50047498D03*
X157221344Y-49693945D03*
X156867790Y-49340391D03*
D86*
X156401100Y-50853600D03*
%TD*%
D100*
%TO.C,U8*%
X76471100Y-119930600D03*
X76971100Y-119930600D03*
X77471100Y-119930600D03*
X77971100Y-119930600D03*
D101*
X78618100Y-119283600D03*
X78618100Y-118783600D03*
X78618100Y-118283600D03*
X78618100Y-117783600D03*
D100*
X77971100Y-117136600D03*
X77471100Y-117136600D03*
X76971100Y-117136600D03*
X76471100Y-117136600D03*
D101*
X75824100Y-117783600D03*
X75824100Y-118283600D03*
X75824100Y-118783600D03*
X75824100Y-119283600D03*
D102*
X77221100Y-118533600D03*
%TD*%
D45*
%TO.C,X_7*%
X42931100Y-195553600D03*
X45471100Y-195553600D03*
%TD*%
D38*
%TO.C,C40*%
X84226100Y-39383600D03*
X83726100Y-39383600D03*
%TD*%
D37*
%TO.C,C39*%
X82046100Y-41083600D03*
X82046100Y-40583600D03*
%TD*%
D60*
%TO.C,L13*%
X212971100Y-175773600D03*
X217971100Y-175773600D03*
%TD*%
D36*
%TO.C,R33*%
X83336100Y-40808600D03*
X83336100Y-40298600D03*
%TD*%
D23*
%TO.C,ADTR1107_8*%
X250834388Y-28372215D03*
X251294008Y-28831834D03*
X251753627Y-29291454D03*
X252213246Y-29751073D03*
X252672866Y-30210692D03*
X253132485Y-30670312D03*
D48*
X253869715Y-30670312D03*
X254329334Y-30210692D03*
X254788954Y-29751073D03*
X255248573Y-29291454D03*
X255708192Y-28831834D03*
X256167812Y-28372215D03*
D23*
X256167812Y-27634985D03*
X255708192Y-27175366D03*
X255248573Y-26715746D03*
X254788954Y-26256127D03*
X254329334Y-25796508D03*
X253869715Y-25336888D03*
D48*
X253132485Y-25336888D03*
X252672866Y-25796508D03*
X252213246Y-26256127D03*
X251753627Y-26715746D03*
X251294008Y-27175366D03*
X250834388Y-27634985D03*
D49*
X253501100Y-28003600D03*
%TD*%
D35*
%TO.C,C37*%
X72231100Y-40198600D03*
X72731100Y-40198600D03*
%TD*%
D45*
%TO.C,X42*%
X116024434Y-235061944D03*
X113484434Y-235061944D03*
X110944434Y-235061944D03*
%TD*%
D13*
%TO.C,R118*%
X50081100Y-227768600D03*
X50081100Y-228278600D03*
%TD*%
D22*
%TO.C,ADTR1107_7*%
X235869715Y-30670312D03*
X236329334Y-30210692D03*
X236788954Y-29751073D03*
X237248573Y-29291454D03*
X237708192Y-28831834D03*
X238167812Y-28372215D03*
D23*
X238167812Y-27634985D03*
X237708192Y-27175366D03*
X237248573Y-26715746D03*
X236788954Y-26256127D03*
X236329334Y-25796508D03*
X235869715Y-25336888D03*
D22*
X235132485Y-25336888D03*
X234672866Y-25796508D03*
X234213246Y-26256127D03*
X233753627Y-26715746D03*
X233294008Y-27175366D03*
X232834388Y-27634985D03*
D23*
X232834388Y-28372215D03*
X233294008Y-28831834D03*
X233753627Y-29291454D03*
X234213246Y-29751073D03*
X234672866Y-30210692D03*
X235132485Y-30670312D03*
D24*
X235501100Y-28003600D03*
%TD*%
D38*
%TO.C,C42*%
X84231100Y-38933600D03*
X83731100Y-38933600D03*
%TD*%
D25*
%TO.C,C125*%
X182092020Y-20637952D03*
X181738466Y-20284398D03*
%TD*%
M02*
