M48
; DRILL file {KiCad 9.0.7} date 2026-03-29T09:04:21+0500
; FORMAT={-:-/ absolute / metric / decimal}
; #@! TF.CreationDate,2026-03-29T09:04:21+05:00
; #@! TF.GenerationSoftware,Kicad,Pcbnew,9.0.7
; #@! TF.FileFunction,MixedPlating,1,10
FMAT,2
METRIC
; #@! TA.AperFunction,Plated,PTH,ViaDrill
T1C0.150
; #@! TA.AperFunction,Plated,PTH,ViaDrill
T2C0.200
; #@! TA.AperFunction,Plated,PTH,ComponentDrill
T3C0.254
; #@! TA.AperFunction,Plated,PTH,ViaDrill
T4C0.300
; #@! TA.AperFunction,Plated,PTH,ViaDrill
T5C0.350
; #@! TA.AperFunction,Plated,PTH,ViaDrill
T6C0.500
; #@! TA.AperFunction,Plated,PTH,ViaDrill
T7C0.600
; #@! TA.AperFunction,Plated,PTH,ComponentDrill
T8C0.640
; #@! TA.AperFunction,Plated,PTH,ComponentDrill
T9C0.840
; #@! TA.AperFunction,Plated,PTH,ViaDrill
T10C1.000
; #@! TA.AperFunction,Plated,PTH,ComponentDrill
T11C1.000
; #@! TA.AperFunction,Plated,PTH,ComponentDrill
T12C1.016
; #@! TA.AperFunction,Plated,PTH,ComponentDrill
T13C1.194
; #@! TA.AperFunction,Plated,PTH,ViaDrill
T14C1.200
; #@! TA.AperFunction,NonPlated,NPTH,ComponentDrill
T15C0.900
; #@! TA.AperFunction,NonPlated,NPTH,ComponentDrill
T16C3.200
%
G90
G05
T1
X27.751Y-71.604
X27.951Y-74.104
X28.101Y-66.754
X28.101Y-69.004
X29.771Y-149.332
X36.776Y-72.779
X36.801Y-72.204
X36.826Y-70.004
X36.851Y-71.054
X39.651Y-77.729
X40.033Y-70.683
X40.048Y-72.682
X40.248Y-76.015
X41.026Y-72.679
X41.051Y-89.754
X41.08Y-69.672
X42.034Y-70.667
X42.501Y-89.704
X45.201Y-72.154
X45.767Y-74.523
X47.351Y-89.754
X47.901Y-72.104
X48.851Y-89.704
X49.151Y-72.104
X49.751Y-155.054
X49.801Y-72.404
X50.151Y-226.404
X50.851Y-229.004
X50.851Y-237.104
X51.001Y-198.954
X51.051Y-207.104
X51.501Y-229.004
X51.501Y-237.154
X51.701Y-197.954
X51.701Y-207.754
X52.101Y-196.404
X52.151Y-228.454
X52.151Y-237.154
X52.351Y-198.554
X52.351Y-207.154
X53.701Y-89.754
X54.351Y-198.104
X54.757Y-237.718
X55.001Y-227.754
X55.051Y-209.104
X55.201Y-89.704
X55.551Y-209.954
X55.851Y-238.054
X57.601Y-72.154
X58.151Y-72.604
X58.701Y-66.754
X58.701Y-72.354
X58.701Y-74.654
X59.101Y-74.404
X59.151Y-69.354
X59.151Y-72.354
X59.151Y-77.354
X59.151Y-79.754
X59.801Y-65.904
X59.851Y-72.504
X60.051Y-89.754
X60.151Y-68.304
X60.151Y-77.104
X60.201Y-72.804
X60.901Y-84.604
X61.176Y-67.729
X61.401Y-74.654
X61.651Y-89.704
X61.851Y-80.354
X62.051Y-67.704
X62.747Y-234.814
X63.001Y-66.754
X63.051Y-233.854
X63.157Y-70.741
X63.176Y-64.754
X63.251Y-232.304
X63.301Y-62.454
X63.301Y-63.454
X63.401Y-72.704
X63.426Y-80.429
X63.451Y-203.254
X63.551Y-233.304
X63.651Y-234.304
X63.951Y-205.254
X64.051Y-205.804
X64.101Y-68.904
X64.101Y-72.754
X64.101Y-204.204
X64.151Y-63.804
X64.176Y-66.729
X64.201Y-204.754
X64.301Y-61.154
X64.951Y-95.204
X65.305Y-230.343
X65.676Y-79.229
X65.701Y-63.654
X66.101Y-65.904
X66.251Y-201.504
X67.051Y-229.504
X67.101Y-236.804
X67.401Y-200.604
X67.401Y-207.654
X67.951Y-207.654
X68.201Y-76.454
X68.201Y-77.454
X68.304Y-229.861
X68.336Y-230.448
X68.851Y-41.029
X69.051Y-77.604
X69.051Y-200.704
X69.051Y-201.354
X69.201Y-65.904
X69.401Y-207.304
X69.454Y-236.546
X69.701Y-232.804
X70.001Y-203.704
X70.051Y-77.604
X70.676Y-63.529
X70.676Y-73.229
X70.676Y-74.229
X70.676Y-79.229
X70.681Y-75.231
X71.001Y-172.304
X71.681Y-74.224
X71.951Y-40.829
X72.472Y-59.334
X72.676Y-75.229
X72.681Y-74.224
X72.901Y-81.354
X73.126Y-40.854
X73.226Y-73.229
X73.401Y-235.104
X73.651Y-232.454
X73.676Y-68.229
X73.704Y-234.396
X74.176Y-66.729
X74.301Y-233.054
X74.426Y-109.954
X74.676Y-76.229
X74.681Y-68.224
X74.681Y-73.224
X74.681Y-74.224
X75.026Y-118.779
X75.676Y-79.229
X75.901Y-205.254
X76.226Y-113.879
X76.451Y-71.904
X76.551Y-40.679
X76.551Y-72.704
X76.851Y-66.904
X76.851Y-69.804
X77.051Y-158.487
X77.076Y-107.354
X77.251Y-68.804
X77.351Y-66.904
X77.401Y-58.904
X77.401Y-69.804
X77.401Y-201.154
X77.951Y-160.154
X78.101Y-73.054
X78.201Y-237.504
X78.551Y-226.954
X78.601Y-227.654
X79.301Y-75.004
X79.361Y-72.324
X79.501Y-65.654
X79.551Y-156.954
X79.551Y-157.504
X79.801Y-75.004
X79.801Y-160.454
X80.346Y-68.862
X80.451Y-75.254
X80.501Y-149.004
X80.501Y-149.504
X80.501Y-154.504
X80.501Y-155.004
X80.501Y-161.004
X80.501Y-161.504
X80.751Y-228.654
X80.751Y-236.854
X80.851Y-198.504
X80.851Y-207.104
X81.181Y-155.524
X81.251Y-239.554
X81.401Y-228.654
X81.401Y-236.854
X81.501Y-198.854
X81.501Y-207.104
X82.051Y-228.204
X82.051Y-236.904
X82.13Y-69.825
X82.151Y-198.504
X82.151Y-207.154
X82.426Y-96.579
X82.426Y-97.054
X83.301Y-39.879
X83.501Y-148.504
X83.501Y-154.054
X83.651Y-157.004
X83.701Y-150.004
X83.701Y-157.554
X84.001Y-157.904
X84.151Y-140.512
X84.181Y-138.969
X84.501Y-41.054
X84.681Y-139.869
X84.976Y-40.029
X85.161Y-141.043
X85.301Y-83.554
X88.501Y-40.504
X88.501Y-143.854
X88.601Y-165.604
X89.151Y-140.512
X89.201Y-42.104
X89.601Y-70.904
X89.623Y-165.029
X89.684Y-140.52
X90.001Y-143.904
X90.151Y-165.012
X90.284Y-134.37
X90.351Y-166.404
X91.051Y-143.954
X91.901Y-144.004
X92.034Y-134.37
X92.251Y-149.654
X94.151Y-39.979
X94.151Y-140.512
X94.184Y-134.37
X94.276Y-42.604
X94.451Y-167.104
X94.623Y-165.029
X94.684Y-140.52
X94.851Y-39.954
X94.951Y-42.654
X95.134Y-134.37
X95.151Y-165.012
X95.901Y-166.954
X96.651Y-168.054
X97.351Y-161.754
X97.651Y-165.654
X98.011Y-109.437
X98.011Y-110.047
X98.201Y-161.304
X98.251Y-165.654
X98.651Y-162.104
X98.724Y-108.236
X98.801Y-40.254
X100.001Y-22.654
X100.051Y-39.304
X100.176Y-42.554
X100.276Y-40.779
X100.276Y-112.054
X100.451Y-108.729
X100.501Y-47.204
X100.526Y-110.554
X100.651Y-22.304
X100.651Y-140.512
X100.73Y-149.256
X100.751Y-103.854
X100.951Y-47.204
X101.151Y-165.012
X101.184Y-140.52
X101.201Y-103.854
X101.301Y-21.954
X101.301Y-222.704
X101.401Y-47.204
X101.651Y-103.854
X101.751Y-40.979
X101.851Y-42.529
X101.951Y-225.104
X101.976Y-39.404
X101.976Y-112.154
X102.151Y-140.504
X102.151Y-157.054
X102.193Y-165.594
X102.201Y-108.704
X102.201Y-159.504
X102.301Y-21.954
X102.401Y-209.504
X102.401Y-210.154
X102.451Y-156.504
X102.938Y-70.991
X103.001Y-21.754
X103.115Y-69.688
X103.176Y-41.004
X103.376Y-111.479
X103.569Y-41.507
X103.701Y-21.554
X104.311Y-109.899
X104.311Y-110.509
X105.001Y-146.504
X105.001Y-147.004
X105.001Y-153.504
X105.001Y-154.004
X105.001Y-159.004
X105.201Y-73.454
X105.301Y-67.854
X105.301Y-72.504
X105.351Y-68.754
X105.351Y-69.654
X105.351Y-71.554
X105.401Y-70.554
X105.701Y-47.354
X105.951Y-103.704
X105.967Y-145.445
X106.001Y-156.504
X106.051Y-151.054
X106.151Y-47.354
X106.151Y-153.054
X106.301Y-144.754
X106.401Y-154.654
X106.451Y-103.704
X106.451Y-224.454
X106.451Y-225.104
X106.593Y-158.994
X106.651Y-47.354
X106.901Y-209.504
X106.951Y-103.704
X107.001Y-67.854
X107.001Y-68.754
X107.001Y-69.654
X107.001Y-70.554
X107.001Y-71.554
X107.001Y-72.504
X107.001Y-73.404
X107.151Y-47.354
X107.151Y-125.704
X107.251Y-125.004
X107.451Y-103.704
X107.551Y-211.904
X107.651Y-47.354
X107.901Y-103.704
X108.851Y-124.454
X109.685Y-145.971
X111.143Y-148.444
X111.243Y-152.544
X111.293Y-155.844
X111.343Y-159.894
X111.351Y-222.904
X111.899Y-71.274
X112.001Y-225.304
X112.301Y-209.454
X112.301Y-210.104
X112.651Y-47.354
X112.901Y-103.704
X113.101Y-47.354
X113.401Y-103.704
X113.551Y-145.654
X113.601Y-47.354
X113.643Y-148.294
X113.901Y-103.704
X114.101Y-47.354
X114.401Y-103.704
X114.601Y-47.354
X114.851Y-103.704
X116.451Y-71.804
X116.501Y-224.654
X116.501Y-225.304
X116.801Y-209.454
X117.451Y-211.854
X117.693Y-142.044
X117.693Y-147.994
X118.001Y-12.754
X118.901Y-47.204
X119.151Y-103.854
X119.351Y-47.204
X119.601Y-103.854
X119.801Y-47.204
X120.051Y-103.854
X121.651Y-223.004
X122.301Y-209.404
X122.301Y-210.054
X122.301Y-225.404
X126.801Y-209.404
X126.801Y-224.754
X126.801Y-225.404
X127.451Y-211.804
X128.681Y-69.564
X129.331Y-81.114
X131.351Y-75.454
X131.451Y-223.004
X131.481Y-73.764
X131.481Y-77.164
X131.901Y-225.404
X132.131Y-73.764
X132.181Y-77.214
X132.401Y-209.504
X132.401Y-210.154
X132.681Y-75.714
X133.331Y-77.414
X133.381Y-73.464
X134.181Y-74.964
X134.181Y-75.414
X134.181Y-75.914
X134.681Y-74.964
X134.681Y-75.414
X134.681Y-75.914
X134.851Y-78.854
X135.181Y-74.964
X135.181Y-75.414
X135.181Y-75.914
X135.781Y-77.464
X136.181Y-73.414
X136.401Y-224.754
X136.401Y-225.404
X136.681Y-76.464
X136.901Y-209.504
X137.551Y-211.904
X139.651Y-99.354
X139.651Y-127.354
X142.501Y-115.004
X150.081Y-99.046
X150.631Y-99.496
X151.181Y-24.046
X151.201Y-223.054
X151.401Y-97.604
X151.401Y-100.454
X151.731Y-24.496
X151.851Y-225.454
X152.001Y-98.604
X152.151Y-19.854
X152.201Y-20.304
X152.201Y-21.754
X152.219Y-128.624
X152.501Y-25.454
X152.551Y-209.504
X152.551Y-210.154
X152.651Y-20.354
X152.651Y-101.804
X152.669Y-128.149
X152.781Y-96.571
X153.001Y-99.804
X153.051Y-22.904
X153.069Y-51.624
X153.101Y-23.604
X153.256Y-97.021
X153.301Y-100.154
X153.401Y-127.104
X153.501Y-99.304
X153.501Y-129.754
X153.519Y-51.149
X153.651Y-100.504
X153.751Y-26.804
X153.851Y-20.354
X153.851Y-99.654
X153.881Y-21.571
X154.101Y-24.804
X154.151Y-101.954
X154.201Y-100.054
X154.251Y-50.104
X154.251Y-129.404
X154.301Y-52.654
X154.301Y-97.754
X154.356Y-22.021
X154.401Y-25.154
X154.601Y-24.304
X154.651Y-125.654
X154.694Y-131.324
X154.751Y-25.504
X154.951Y-24.654
X154.951Y-127.904
X155.101Y-52.404
X155.144Y-130.774
X155.201Y-49.154
X155.251Y-26.954
X155.301Y-25.054
X155.301Y-127.554
X155.401Y-22.754
X155.451Y-128.404
X155.544Y-54.324
X155.601Y-100.554
X155.701Y-127.204
X155.801Y-50.904
X155.801Y-128.104
X155.901Y-99.504
X155.994Y-53.774
X156.001Y-48.504
X156.101Y-130.004
X156.151Y-50.554
X156.151Y-127.754
X156.201Y-27.054
X156.201Y-125.804
X156.251Y-103.029
X156.276Y-47.079
X156.301Y-51.404
X156.301Y-123.104
X156.351Y-23.704
X156.351Y-224.804
X156.351Y-225.454
X156.551Y-50.204
X156.651Y-51.104
X156.701Y-25.554
X156.801Y-44.179
X156.826Y-120.204
X156.951Y-53.004
X157.001Y-24.504
X157.001Y-50.754
X157.051Y-48.804
X157.051Y-209.504
X157.076Y-47.954
X157.101Y-123.979
X157.226Y-43.679
X157.251Y-119.704
X157.451Y-128.754
X157.576Y-25.554
X157.601Y-127.254
X157.626Y-30.379
X157.626Y-101.529
X157.676Y-106.354
X157.701Y-211.904
X158.301Y-51.754
X158.451Y-24.754
X158.451Y-50.254
X158.501Y-100.729
X158.576Y-49.329
X158.601Y-125.354
X158.719Y-117.649
X158.831Y-41.596
X158.901Y-23.404
X159.819Y-41.924
X159.844Y-117.949
X161.201Y-23.204
X161.351Y-25.279
X161.401Y-101.254
X161.451Y-223.154
X161.851Y-25.704
X161.851Y-126.704
X161.876Y-123.929
X161.901Y-47.904
X161.901Y-101.679
X162.101Y-225.554
X162.451Y-209.454
X162.451Y-210.104
X163.476Y-26.354
X163.606Y-28.296
X163.656Y-104.271
X163.731Y-27.371
X163.896Y-103.411
X165.071Y-112.511
X165.096Y-114.536
X165.481Y-40.496
X165.959Y-33.565
X166.006Y-40.521
X166.021Y-109.486
X166.095Y-122.715
X166.201Y-143.354
X166.476Y-114.979
X166.501Y-40.529
X166.601Y-224.904
X166.601Y-225.554
X166.901Y-110.954
X166.951Y-11.854
X166.951Y-27.104
X166.951Y-209.454
X166.976Y-114.979
X166.981Y-38.971
X167.001Y-109.554
X167.026Y-40.529
X167.151Y-11.304
X167.451Y-111.029
X167.476Y-114.979
X167.481Y-38.971
X167.501Y-40.529
X167.526Y-35.054
X167.526Y-109.554
X167.551Y-27.454
X167.601Y-142.454
X167.601Y-211.854
X167.851Y-109.204
X167.971Y-111.036
X167.976Y-115.004
X168.001Y-35.054
X168.006Y-38.971
X168.076Y-116.479
X168.481Y-38.971
X168.556Y-35.071
X168.601Y-116.454
X168.751Y-115.004
X168.896Y-121.232
X168.971Y-111.036
X169.001Y-33.479
X169.006Y-38.971
X169.051Y-35.079
X169.101Y-116.504
X169.251Y-115.004
X169.401Y-32.654
X169.501Y-40.529
X169.526Y-109.554
X169.551Y-35.104
X169.551Y-38.954
X169.552Y-29.758
X169.731Y-33.646
X169.926Y-32.929
X169.996Y-111.036
X170.001Y-109.554
X170.026Y-40.529
X170.051Y-35.104
X170.501Y-38.976
X170.526Y-109.554
X170.551Y-35.104
X170.608Y-27.853
X170.939Y-40.616
X171.451Y-223.254
X171.496Y-109.436
X171.881Y-33.721
X171.881Y-35.471
X171.906Y-37.496
X172.101Y-225.654
X172.451Y-209.404
X172.451Y-210.054
X173.146Y-122.661
X173.156Y-46.621
X173.396Y-45.761
X173.446Y-121.736
X174.051Y-142.454
X174.451Y-143.354
X175.151Y-48.354
X175.151Y-102.129
X175.176Y-26.104
X175.201Y-124.329
X175.651Y-48.779
X175.701Y-124.754
X176.601Y-224.604
X176.601Y-225.254
X176.951Y-209.404
X177.209Y-32.084
X177.234Y-108.109
X177.601Y-211.804
X178.106Y-32.271
X178.221Y-108.436
X178.451Y-23.804
X178.451Y-24.679
X178.476Y-100.704
X178.551Y-49.304
X178.601Y-22.304
X178.601Y-125.279
X179.376Y-43.679
X179.426Y-48.504
X179.426Y-119.654
X179.476Y-124.479
X179.651Y-98.854
X179.801Y-30.329
X179.801Y-97.354
X179.826Y-106.354
X179.851Y-25.254
X179.901Y-23.304
X179.951Y-21.054
X179.951Y-26.054
X179.976Y-102.079
X180.051Y-49.554
X180.226Y-29.829
X180.251Y-22.954
X180.251Y-105.854
X180.301Y-126.854
X180.351Y-48.504
X180.401Y-23.854
X180.601Y-22.654
X180.751Y-23.504
X180.751Y-26.929
X180.776Y-102.979
X180.801Y-47.004
X180.851Y-122.979
X180.901Y-25.554
X180.909Y-20.284
X180.951Y-125.154
X181.051Y-100.304
X181.101Y-23.154
X181.101Y-98.354
X181.151Y-96.104
X181.359Y-19.734
X181.451Y-98.004
X181.551Y-98.904
X181.651Y-51.304
X181.751Y-49.004
X181.801Y-21.654
X181.801Y-47.104
X181.801Y-97.704
X181.951Y-98.554
X182.101Y-49.404
X182.101Y-100.604
X182.109Y-95.334
X182.251Y-127.954
X182.301Y-48.554
X182.301Y-98.204
X182.351Y-125.654
X182.401Y-123.754
X182.401Y-222.954
X182.451Y-49.754
X182.551Y-209.504
X182.551Y-210.154
X182.559Y-94.784
X182.651Y-48.904
X182.696Y-52.036
X182.701Y-126.054
X182.801Y-21.154
X182.901Y-125.204
X182.951Y-49.254
X183.001Y-96.704
X183.051Y-23.504
X183.051Y-126.404
X183.151Y-225.454
X183.171Y-52.486
X183.251Y-125.554
X183.296Y-128.686
X183.301Y-47.254
X183.384Y-22.909
X183.551Y-125.904
X183.771Y-129.136
X183.834Y-22.434
X183.851Y-99.004
X183.901Y-123.904
X183.951Y-50.454
X183.951Y-51.054
X183.951Y-96.154
X184.551Y-48.604
X184.551Y-127.104
X184.584Y-97.959
X184.901Y-127.804
X185.034Y-97.484
X185.151Y-125.254
X185.321Y-49.561
X185.364Y-77.69
X185.871Y-50.011
X185.921Y-126.211
X186.471Y-126.661
X187.051Y-209.504
X187.651Y-224.804
X187.651Y-225.454
X187.801Y-212.004
X188.351Y-59.604
X189.051Y-58.904
X201.751Y-198.804
X202.931Y-76.314
X202.931Y-76.764
X202.981Y-73.214
X202.981Y-73.714
X202.981Y-74.214
X204.131Y-71.814
X204.131Y-78.214
X206.531Y-71.764
X206.531Y-78.164
X206.851Y-198.954
X208.531Y-71.964
X208.781Y-78.064
X209.381Y-73.264
X209.381Y-73.764
X209.381Y-74.264
X209.381Y-74.764
X209.381Y-75.264
X209.381Y-75.814
X209.381Y-76.314
X209.381Y-76.814
X212.151Y-199.104
X217.251Y-199.504
X217.594Y-95.997
X222.851Y-199.454
X226.081Y-98.896
X226.631Y-99.346
X226.701Y-37.004
X227.051Y-97.454
X227.181Y-23.996
X227.401Y-100.304
X227.731Y-24.446
X227.801Y-98.504
X227.951Y-199.454
X228.269Y-128.724
X228.501Y-25.404
X228.651Y-101.654
X228.66Y-114.333
X228.701Y-22.804
X228.719Y-128.249
X228.769Y-51.874
X228.781Y-96.421
X229.001Y-99.654
X229.101Y-23.554
X229.219Y-51.399
X229.256Y-96.871
X229.301Y-100.004
X229.451Y-127.204
X229.451Y-129.804
X229.501Y-99.154
X229.651Y-100.354
X229.751Y-26.754
X229.851Y-99.504
X229.881Y-21.521
X229.951Y-50.354
X230.001Y-52.954
X230.101Y-24.754
X230.151Y-101.804
X230.201Y-99.904
X230.301Y-97.604
X230.301Y-129.504
X230.356Y-21.971
X230.401Y-25.104
X230.601Y-24.254
X230.701Y-125.804
X230.744Y-131.424
X230.751Y-25.454
X230.751Y-48.654
X230.801Y-52.654
X230.901Y-49.404
X230.951Y-24.604
X231.001Y-128.004
X231.194Y-130.874
X231.244Y-54.574
X231.251Y-26.904
X231.301Y-25.004
X231.351Y-127.654
X231.401Y-22.704
X231.501Y-51.154
X231.501Y-128.504
X231.601Y-100.404
X231.694Y-54.024
X231.751Y-127.304
X231.851Y-50.804
X231.851Y-128.204
X231.901Y-99.354
X232.001Y-51.654
X232.151Y-130.104
X232.176Y-27.004
X232.201Y-127.854
X232.226Y-47.054
X232.251Y-50.454
X232.251Y-103.054
X232.251Y-125.904
X232.301Y-123.129
X232.351Y-51.354
X232.651Y-53.254
X232.701Y-25.504
X232.701Y-51.004
X232.751Y-49.054
X232.776Y-44.129
X232.826Y-120.229
X233.001Y-24.454
X233.051Y-47.904
X233.101Y-124.004
X233.151Y-199.304
X233.201Y-43.629
X233.251Y-119.729
X233.501Y-128.854
X233.551Y-25.504
X233.601Y-30.329
X233.626Y-101.554
X233.651Y-127.354
X233.676Y-106.379
X234.001Y-52.004
X234.151Y-50.504
X234.426Y-24.704
X234.501Y-100.754
X234.551Y-49.279
X234.601Y-125.379
X234.694Y-117.524
X234.806Y-41.546
X235.794Y-41.874
X235.844Y-117.974
X237.326Y-25.229
X237.401Y-101.279
X237.826Y-25.654
X237.876Y-47.854
X237.876Y-123.954
X237.901Y-101.704
X238.201Y-199.304
X239.581Y-28.246
X239.629Y-125.948
X239.656Y-104.296
X239.881Y-27.371
X241.071Y-112.486
X241.096Y-114.511
X241.293Y-126.729
X241.701Y-15.904
X241.731Y-40.471
X242.051Y-15.604
X242.476Y-40.429
X242.539Y-109.141
X242.546Y-107.561
X242.551Y-114.979
X242.568Y-123.867
X242.601Y-111.029
X242.951Y-16.504
X242.981Y-38.971
X243.001Y-40.429
X243.051Y-114.979
X243.076Y-109.554
X243.151Y-17.354
X243.401Y-126.854
X243.476Y-40.429
X243.476Y-111.004
X243.501Y-35.029
X243.551Y-114.979
X243.601Y-109.554
X243.671Y-118.086
X243.771Y-31.846
X243.971Y-111.011
X244.006Y-38.971
X244.051Y-115.004
X244.076Y-35.029
X244.101Y-116.604
X244.113Y-123.153
X244.171Y-118.086
X244.251Y-29.454
X244.426Y-32.854
X244.446Y-119.611
X244.481Y-38.971
X244.496Y-111.011
X244.546Y-114.986
X244.601Y-29.104
X244.651Y-116.579
X244.651Y-118.179
X244.846Y-31.371
X244.876Y-32.729
X244.971Y-111.011
X245.006Y-38.971
X245.026Y-34.979
X245.08Y-33.548
X245.126Y-116.604
X245.151Y-30.354
X245.151Y-117.104
X245.164Y-114.916
X245.476Y-40.429
X245.526Y-35.004
X245.526Y-39.004
X245.601Y-109.554
X245.751Y-114.904
X245.896Y-31.696
X245.996Y-111.011
X246.001Y-40.429
X246.006Y-33.471
X246.026Y-35.004
X246.076Y-109.554
X246.446Y-31.696
X246.487Y-32.991
X246.501Y-38.954
X246.501Y-40.679
X246.526Y-35.004
X246.546Y-42.246
X246.601Y-109.554
X247.007Y-33.005
X247.471Y-109.486
X247.506Y-33.521
X247.881Y-35.471
X247.906Y-37.496
X249.131Y-46.571
X249.321Y-122.686
X249.371Y-45.711
X249.446Y-121.761
X251.126Y-48.304
X251.151Y-26.054
X251.151Y-102.154
X251.201Y-124.354
X251.626Y-48.729
X251.701Y-124.779
X253.184Y-32.034
X253.234Y-108.134
X254.081Y-32.221
X254.221Y-108.461
X254.426Y-24.629
X254.476Y-100.729
X254.526Y-49.254
X254.601Y-125.304
X255.001Y-23.304
X255.051Y-99.304
X255.151Y-21.804
X255.201Y-97.804
X255.351Y-43.629
X255.401Y-48.454
X255.426Y-119.679
X255.476Y-124.504
X255.776Y-30.279
X255.826Y-106.379
X255.926Y-26.004
X255.976Y-102.104
X256.201Y-29.779
X256.251Y-105.879
X256.401Y-24.754
X256.451Y-22.804
X256.451Y-100.754
X256.451Y-126.104
X256.501Y-20.554
X256.501Y-98.804
X256.551Y-96.554
X256.651Y-49.304
X256.726Y-26.879
X256.751Y-50.204
X256.751Y-125.054
X256.776Y-46.954
X256.776Y-102.979
X256.801Y-22.454
X256.851Y-98.454
X256.851Y-123.004
X256.901Y-23.354
X256.951Y-99.354
X257.151Y-22.154
X257.201Y-98.154
X257.301Y-23.004
X257.351Y-99.004
X257.451Y-25.054
X257.459Y-19.784
X257.501Y-101.054
X257.509Y-95.784
X257.651Y-22.654
X257.701Y-98.654
X257.909Y-19.234
X257.959Y-95.234
X258.201Y-123.654
X258.201Y-125.604
X258.351Y-21.154
X258.401Y-97.154
X258.451Y-49.654
X258.451Y-128.054
X258.501Y-47.754
X258.501Y-52.354
X258.501Y-125.954
X258.701Y-125.104
X258.801Y-50.054
X258.851Y-126.304
X259.001Y-49.204
X259.051Y-125.454
X259.096Y-128.586
X259.101Y-20.654
X259.151Y-50.404
X259.201Y-23.454
X259.251Y-96.704
X259.351Y-49.554
X259.351Y-125.804
X259.396Y-52.686
X259.451Y-99.254
X259.571Y-129.036
X259.651Y-49.904
X259.701Y-123.804
X259.871Y-53.136
X259.934Y-22.409
X259.984Y-98.409
X260.001Y-47.904
X260.351Y-127.004
X260.384Y-21.934
X260.434Y-97.934
X260.651Y-51.104
X260.801Y-127.704
X260.951Y-125.154
X261.251Y-49.254
X261.401Y-52.304
X261.721Y-126.111
X262.021Y-50.211
X262.271Y-126.561
X262.571Y-50.661
T2
X60.31Y-63.852
X60.31Y-74.595
X60.31Y-75.595
X60.31Y-76.595
X60.31Y-77.595
X60.31Y-78.595
X60.31Y-79.595
X61.31Y-72.595
X61.31Y-75.595
X61.31Y-76.595
X61.31Y-77.595
X61.31Y-78.595
X61.31Y-79.595
X62.31Y-75.595
X62.31Y-76.595
X62.31Y-77.595
X62.31Y-78.595
X63.31Y-67.852
X63.31Y-73.595
X63.31Y-74.595
X63.31Y-75.595
X63.31Y-76.595
X63.31Y-77.595
X63.31Y-78.595
X63.31Y-79.595
X64.31Y-74.595
X64.31Y-75.595
X64.31Y-76.595
X64.31Y-77.595
X64.973Y-81.582
X65.201Y-75.704
X65.31Y-68.852
X65.31Y-69.852
X65.31Y-70.852
X65.31Y-72.595
X65.31Y-73.595
X65.31Y-74.595
X65.439Y-81.115
X65.451Y-76.604
X66.31Y-66.852
X66.31Y-67.852
X66.31Y-68.852
X66.31Y-69.852
X66.31Y-70.852
X66.31Y-72.595
X66.31Y-73.595
X66.31Y-74.595
X66.31Y-75.595
X66.31Y-76.595
X66.31Y-77.595
X67.31Y-64.852
X67.31Y-67.852
X67.31Y-68.852
X67.31Y-69.852
X67.31Y-70.852
X67.31Y-72.595
X67.31Y-73.595
X67.31Y-74.595
X67.31Y-75.595
X67.31Y-76.595
X68.751Y-97.154
X68.901Y-100.879
X69.052Y-67.852
X69.052Y-68.852
X69.052Y-69.852
X69.052Y-70.852
X69.052Y-72.595
X69.052Y-73.595
X69.052Y-74.595
X69.052Y-75.595
X69.052Y-78.595
X70.052Y-65.852
X70.052Y-67.852
X70.052Y-68.852
X70.052Y-69.852
X70.052Y-70.852
X70.052Y-72.595
X70.052Y-73.595
X70.052Y-74.595
X70.052Y-75.595
X70.052Y-76.595
X70.751Y-98.529
X70.851Y-100.654
X70.876Y-102.054
X71.052Y-65.852
X71.052Y-66.852
X71.052Y-68.852
X71.052Y-70.852
X71.052Y-72.595
X72.052Y-66.852
X72.052Y-69.852
X72.052Y-70.852
X72.052Y-72.595
X72.052Y-77.595
X72.201Y-98.504
X72.326Y-96.504
X72.351Y-97.004
X73.052Y-64.852
X73.052Y-68.852
X73.052Y-69.852
X73.052Y-70.852
X73.052Y-72.595
X73.651Y-102.854
X73.676Y-105.554
X74.052Y-68.852
X74.052Y-69.852
X74.052Y-70.852
X74.052Y-72.595
X74.052Y-78.595
X74.351Y-100.804
X74.376Y-102.254
X74.751Y-98.854
X74.976Y-101.879
X75.052Y-63.852
X75.052Y-68.852
X75.052Y-69.852
X75.052Y-70.852
X75.052Y-72.595
X75.351Y-100.504
X75.873Y-100.52
X76.052Y-63.852
X76.052Y-66.852
X76.052Y-68.852
X76.052Y-69.852
X76.052Y-70.852
X76.052Y-72.595
X76.327Y-74.22
X76.373Y-100.52
X76.826Y-92.679
X77.351Y-92.679
X77.873Y-100.52
X78.373Y-100.52
X78.873Y-100.52
X79.251Y-102.054
X79.823Y-100.52
X79.826Y-102.029
X80.223Y-97.545
X80.373Y-100.52
X80.376Y-102.029
X81.773Y-99.27
X82.326Y-100.254
X84.576Y-96.604
X101.951Y-224.404
X106.901Y-210.204
X112.001Y-224.604
X116.801Y-210.154
X121.168Y-43.444
X121.268Y-109.054
X121.639Y-107.834
X121.834Y-42.224
X122.301Y-224.704
X122.468Y-43.424
X122.488Y-109.034
X122.839Y-107.834
X123.001Y-216.304
X123.034Y-42.224
X123.501Y-216.854
X123.668Y-43.424
X123.688Y-109.034
X124.039Y-107.834
X124.234Y-42.224
X124.868Y-43.424
X124.888Y-109.034
X125.239Y-107.834
X125.434Y-42.224
X126.068Y-43.424
X126.088Y-109.034
X126.439Y-107.834
X126.634Y-42.224
X126.801Y-210.104
X127.268Y-43.424
X127.288Y-109.034
X127.639Y-107.834
X127.834Y-42.224
X128.468Y-43.424
X128.488Y-109.034
X128.839Y-107.834
X129.034Y-42.224
X129.664Y-43.493
X129.688Y-109.034
X130.027Y-107.69
X130.234Y-42.228
X130.812Y-43.833
X130.884Y-108.961
X131.147Y-107.267
X131.416Y-42.419
X131.847Y-44.435
X131.901Y-224.704
X132.031Y-108.618
X132.135Y-106.591
X132.518Y-42.886
X132.708Y-45.266
X132.933Y-105.699
X133.064Y-108.012
X133.348Y-46.278
X133.478Y-43.601
X133.497Y-104.643
X133.728Y-47.414
X133.793Y-103.483
X133.811Y-49.917
X133.811Y-54.607
X133.811Y-51.117
X133.811Y-55.807
X133.811Y-52.317
X133.811Y-57.007
X133.811Y-53.517
X133.811Y-58.207
X133.811Y-59.407
X133.811Y-60.607
X133.811Y-61.807
X133.811Y-63.007
X133.811Y-64.207
X133.811Y-65.407
X133.812Y-66.607
X133.812Y-67.807
X133.812Y-69.007
X133.812Y-70.207
X133.812Y-71.407
X133.831Y-48.607
X133.836Y-102.285
X133.836Y-101.085
X133.836Y-99.885
X133.836Y-98.685
X133.836Y-97.485
X133.836Y-96.285
X133.836Y-95.085
X133.836Y-93.885
X133.836Y-92.685
X133.836Y-91.485
X133.836Y-90.285
X133.836Y-89.085
X133.836Y-87.885
X133.836Y-86.685
X133.836Y-85.485
X133.836Y-84.285
X133.836Y-83.085
X133.836Y-81.885
X133.836Y-80.685
X133.836Y-79.485
X133.923Y-107.179
X134.24Y-44.524
X134.559Y-106.164
X134.761Y-45.602
X134.936Y-105.028
X135.011Y-46.773
X135.011Y-49.282
X135.011Y-53.972
X135.011Y-50.482
X135.011Y-55.172
X135.011Y-51.682
X135.011Y-56.372
X135.011Y-52.882
X135.011Y-57.572
X135.011Y-58.772
X135.011Y-59.972
X135.011Y-61.172
X135.011Y-62.372
X135.011Y-63.572
X135.012Y-64.772
X135.012Y-65.972
X135.012Y-67.172
X135.012Y-68.372
X135.012Y-69.572
X135.012Y-70.772
X135.012Y-71.972
X135.031Y-47.972
X135.036Y-103.835
X135.036Y-102.635
X135.036Y-101.435
X135.036Y-100.235
X135.036Y-99.035
X135.036Y-97.835
X135.036Y-96.635
X135.036Y-95.435
X135.036Y-94.235
X135.036Y-93.035
X135.036Y-91.835
X135.036Y-90.635
X135.036Y-89.435
X135.036Y-88.235
X135.036Y-87.035
X135.036Y-85.835
X135.036Y-84.635
X135.036Y-83.435
X135.036Y-82.235
X135.036Y-81.035
X135.036Y-79.835
X136.681Y-74.614
X136.681Y-75.814
X136.901Y-210.204
X137.881Y-74.614
X137.881Y-75.814
X139.081Y-74.614
X139.081Y-75.814
X140.281Y-74.614
X140.281Y-75.814
X141.481Y-74.614
X141.481Y-75.814
X142.681Y-74.614
X142.681Y-75.814
X143.881Y-74.614
X143.881Y-75.814
X145.081Y-74.614
X145.081Y-75.814
X146.281Y-74.614
X146.281Y-75.814
X147.481Y-74.614
X147.481Y-75.814
X148.681Y-74.614
X148.681Y-75.814
X149.881Y-74.614
X149.881Y-75.814
X151.081Y-74.614
X151.081Y-75.814
X152.101Y-224.604
X152.281Y-74.614
X152.281Y-75.814
X153.481Y-74.614
X153.481Y-75.814
X154.681Y-74.614
X154.681Y-75.814
X155.881Y-74.614
X155.881Y-75.814
X156.576Y-29.429
X156.801Y-210.354
X157.026Y-30.004
X157.076Y-105.979
X157.081Y-74.614
X157.081Y-75.814
X157.551Y-117.804
X157.651Y-41.979
X158.001Y-30.854
X158.281Y-74.614
X158.281Y-75.814
X158.476Y-31.354
X158.526Y-107.329
X159.481Y-74.614
X159.481Y-75.814
X160.305Y-107.028
X160.305Y-118.829
X160.355Y-31.128
X160.355Y-42.929
X160.681Y-74.614
X160.681Y-75.814
X160.83Y-107.576
X160.83Y-118.282
X160.88Y-31.676
X160.88Y-42.382
X161.126Y-49.104
X161.243Y-106.158
X161.243Y-119.699
X161.276Y-125.229
X161.293Y-30.258
X161.293Y-43.799
X161.392Y-108.144
X161.392Y-117.713
X161.442Y-32.244
X161.442Y-41.813
X161.526Y-48.504
X161.551Y-124.529
X161.621Y-109.642
X161.621Y-116.215
X161.671Y-33.742
X161.671Y-40.315
X161.693Y-105.708
X161.693Y-120.149
X161.704Y-111.099
X161.704Y-114.758
X161.743Y-29.808
X161.743Y-44.249
X161.754Y-35.199
X161.754Y-38.858
X161.881Y-74.614
X161.881Y-75.814
X161.981Y-106.986
X161.981Y-118.871
X162.031Y-31.086
X162.031Y-42.971
X162.101Y-224.704
X162.331Y-105.986
X162.331Y-119.871
X162.381Y-30.086
X162.381Y-43.971
X162.533Y-111.96
X162.533Y-113.897
X162.583Y-36.06
X162.583Y-37.997
X162.605Y-107.844
X162.605Y-118.013
X162.655Y-31.944
X162.655Y-42.113
X162.743Y-104.808
X162.743Y-121.049
X162.776Y-47.904
X162.793Y-28.908
X162.793Y-45.149
X162.821Y-110.094
X162.821Y-115.763
X162.821Y-108.894
X162.821Y-116.963
X162.871Y-34.194
X162.871Y-39.863
X162.871Y-32.994
X162.871Y-41.063
X162.876Y-47.054
X162.901Y-123.079
X163.026Y-123.904
X163.081Y-74.614
X163.081Y-75.814
X163.081Y-106.636
X163.081Y-119.221
X163.131Y-30.736
X163.131Y-43.321
X163.412Y-111.042
X163.412Y-114.815
X163.431Y-105.186
X163.431Y-108.186
X163.431Y-117.671
X163.431Y-120.671
X163.462Y-35.142
X163.462Y-38.915
X163.481Y-29.286
X163.481Y-32.286
X163.481Y-41.771
X163.481Y-44.771
X163.531Y-107.086
X163.531Y-118.771
X163.581Y-31.186
X163.581Y-42.871
X163.613Y-112.456
X163.613Y-113.451
X163.663Y-36.556
X163.663Y-37.501
X163.981Y-107.586
X163.981Y-118.271
X164.031Y-31.686
X164.031Y-42.371
X164.131Y-105.836
X164.131Y-120.021
X164.181Y-29.936
X164.181Y-44.121
X164.236Y-111.304
X164.236Y-114.554
X164.251Y-112.504
X164.251Y-113.454
X164.281Y-74.614
X164.281Y-75.814
X164.283Y-36.567
X164.286Y-35.404
X164.286Y-38.654
X164.301Y-37.454
X164.331Y-109.136
X164.331Y-116.721
X164.381Y-33.236
X164.381Y-40.821
X164.431Y-109.836
X164.431Y-116.021
X164.481Y-33.936
X164.481Y-40.121
X164.631Y-117.246
X164.731Y-106.536
X164.731Y-119.321
X164.781Y-30.636
X164.781Y-43.421
X164.931Y-108.486
X164.981Y-32.586
X164.981Y-41.471
X165.181Y-107.586
X165.181Y-118.271
X165.231Y-31.686
X165.231Y-42.371
X165.481Y-74.614
X165.481Y-75.814
X166.501Y-39.004
X166.681Y-74.614
X166.681Y-75.814
X166.921Y-123.575
X166.951Y-210.304
X167.337Y-119.043
X167.821Y-90.899
X167.821Y-92.099
X167.821Y-93.299
X167.821Y-94.499
X167.821Y-95.699
X167.821Y-96.899
X167.821Y-98.099
X167.821Y-99.299
X167.821Y-100.499
X167.821Y-101.699
X167.821Y-102.899
X167.821Y-104.099
X167.821Y-105.299
X167.821Y-106.499
X167.821Y-107.699
X167.881Y-74.614
X167.881Y-75.814
X167.901Y-59.047
X167.901Y-57.847
X167.901Y-56.647
X167.901Y-55.447
X167.901Y-54.247
X167.901Y-53.047
X167.901Y-51.847
X167.901Y-50.647
X167.901Y-49.447
X167.901Y-48.247
X167.901Y-47.047
X167.901Y-45.847
X167.901Y-44.647
X167.901Y-43.447
X167.901Y-42.247
X167.951Y-89.709
X168.031Y-60.237
X168.293Y-122.821
X168.36Y-88.584
X168.44Y-61.362
X168.531Y-117.946
X168.556Y-118.596
X168.771Y-31.886
X169.021Y-92.588
X169.021Y-93.788
X169.021Y-94.988
X169.021Y-96.188
X169.021Y-97.388
X169.021Y-98.588
X169.021Y-99.788
X169.021Y-100.988
X169.021Y-102.188
X169.021Y-103.388
X169.021Y-104.588
X169.021Y-105.788
X169.021Y-106.988
X169.021Y-108.188
X169.025Y-87.588
X169.064Y-91.39
X169.081Y-74.614
X169.081Y-75.814
X169.101Y-57.358
X169.101Y-56.158
X169.101Y-54.958
X169.101Y-53.758
X169.101Y-52.558
X169.101Y-51.358
X169.101Y-50.158
X169.101Y-48.958
X169.101Y-47.758
X169.101Y-46.558
X169.101Y-45.358
X169.101Y-44.158
X169.101Y-42.958
X169.101Y-41.758
X169.105Y-62.357
X169.144Y-58.556
X169.361Y-90.23
X169.441Y-59.715
X169.756Y-31.336
X169.907Y-86.779
X169.925Y-89.174
X169.987Y-63.167
X170.005Y-60.771
X170.281Y-74.614
X170.281Y-75.814
X170.426Y-42.008
X170.463Y-29.136
X170.501Y-111.004
X170.724Y-88.283
X170.804Y-61.663
X170.957Y-86.203
X171.036Y-63.743
X171.481Y-74.614
X171.481Y-75.814
X171.712Y-87.607
X171.721Y-118.321
X171.771Y-42.421
X171.792Y-62.339
X171.821Y-107.586
X171.871Y-31.686
X171.971Y-117.421
X172.021Y-41.521
X172.071Y-108.486
X172.101Y-224.554
X172.113Y-85.892
X172.121Y-32.586
X172.171Y-119.371
X172.193Y-64.053
X172.221Y-43.471
X172.271Y-106.536
X172.321Y-30.636
X172.471Y-116.071
X172.521Y-40.171
X172.571Y-109.836
X172.571Y-116.771
X172.621Y-33.936
X172.621Y-40.871
X172.644Y-216.236
X172.651Y-113.479
X172.666Y-114.604
X172.671Y-109.136
X172.681Y-74.614
X172.681Y-75.814
X172.701Y-37.504
X172.716Y-38.704
X172.721Y-33.236
X172.751Y-112.579
X172.766Y-111.304
X172.771Y-120.071
X172.801Y-36.529
X172.816Y-35.404
X172.821Y-44.171
X172.833Y-87.185
X172.871Y-105.836
X172.913Y-62.76
X172.921Y-29.936
X172.921Y-118.321
X172.953Y-216.858
X172.971Y-42.421
X172.978Y-85.842
X173.021Y-107.586
X173.058Y-64.104
X173.071Y-31.686
X173.289Y-113.451
X173.339Y-37.551
X173.371Y-118.821
X173.421Y-42.921
X173.439Y-36.556
X173.451Y-47.654
X173.471Y-107.086
X173.471Y-117.721
X173.471Y-120.721
X173.489Y-112.531
X173.491Y-114.865
X173.521Y-31.186
X173.521Y-41.821
X173.521Y-44.821
X173.541Y-38.965
X173.571Y-105.186
X173.571Y-108.186
X173.591Y-111.042
X173.621Y-29.286
X173.621Y-32.286
X173.641Y-35.142
X173.821Y-119.271
X173.871Y-43.371
X173.881Y-74.614
X173.881Y-75.814
X173.921Y-106.636
X173.971Y-30.736
X174.021Y-87.042
X174.081Y-117.013
X174.081Y-115.813
X174.101Y-62.904
X174.131Y-41.113
X174.131Y-39.913
X174.151Y-26.954
X174.159Y-121.099
X174.176Y-102.979
X174.178Y-85.842
X174.181Y-108.894
X174.181Y-110.094
X174.209Y-45.199
X174.231Y-32.994
X174.231Y-34.194
X174.258Y-64.104
X174.259Y-104.808
X174.297Y-118.063
X174.309Y-28.908
X174.347Y-42.163
X174.37Y-113.947
X174.397Y-107.844
X174.42Y-38.047
X174.447Y-31.944
X174.47Y-111.96
X174.52Y-36.06
X174.571Y-119.921
X174.621Y-44.021
X174.651Y-26.507
X174.667Y-87.042
X174.671Y-105.986
X174.721Y-30.086
X174.747Y-62.904
X174.921Y-118.921
X174.971Y-43.021
X175.021Y-106.986
X175.071Y-31.086
X175.081Y-74.614
X175.081Y-75.814
X175.199Y-114.808
X175.209Y-120.199
X175.249Y-38.908
X175.259Y-44.299
X175.281Y-116.265
X175.299Y-111.099
X175.309Y-105.708
X175.331Y-40.365
X175.349Y-35.199
X175.359Y-29.808
X175.378Y-85.842
X175.381Y-109.642
X175.431Y-33.742
X175.458Y-64.104
X175.501Y-25.504
X175.51Y-117.763
X175.526Y-101.529
X175.56Y-41.863
X175.61Y-108.144
X175.659Y-119.749
X175.66Y-32.244
X175.709Y-43.849
X175.759Y-106.158
X175.809Y-30.258
X175.867Y-87.042
X175.901Y-24.904
X175.947Y-62.904
X176.073Y-118.332
X176.123Y-42.432
X176.173Y-107.576
X176.223Y-31.676
X176.281Y-74.614
X176.281Y-75.814
X176.578Y-85.842
X176.597Y-118.879
X176.647Y-42.979
X176.658Y-64.104
X176.697Y-107.028
X176.747Y-31.128
X176.951Y-210.204
X177.067Y-87.042
X177.147Y-62.904
X177.481Y-74.614
X177.481Y-75.814
X177.778Y-85.842
X177.858Y-64.104
X178.267Y-87.042
X178.347Y-62.904
X178.526Y-42.704
X178.576Y-118.679
X178.681Y-74.614
X178.681Y-75.814
X178.978Y-85.842
X179.051Y-119.179
X179.058Y-64.104
X179.101Y-43.054
X179.214Y-31.941
X179.467Y-87.042
X179.547Y-62.904
X179.881Y-74.614
X179.881Y-75.814
X179.976Y-44.054
X180.026Y-120.029
X180.178Y-85.842
X180.258Y-64.104
X180.667Y-87.042
X180.747Y-62.904
X180.826Y-43.904
X181.081Y-74.614
X181.081Y-75.814
X181.378Y-85.842
X181.458Y-64.104
X181.867Y-87.042
X181.947Y-62.904
X182.281Y-74.614
X182.281Y-75.814
X182.578Y-85.842
X182.658Y-64.104
X183.067Y-87.042
X183.147Y-62.904
X183.151Y-224.704
X183.481Y-74.614
X183.481Y-75.814
X183.778Y-85.842
X183.858Y-64.104
X184.267Y-87.042
X184.347Y-62.904
X184.681Y-74.614
X184.681Y-75.814
X184.978Y-85.842
X185.058Y-64.104
X185.467Y-87.042
X185.547Y-62.904
X185.881Y-74.614
X185.881Y-75.814
X186.178Y-85.842
X186.258Y-64.104
X186.667Y-87.042
X186.747Y-62.904
X187.051Y-210.254
X187.081Y-74.614
X187.081Y-75.814
X187.378Y-85.842
X187.458Y-64.104
X187.867Y-87.042
X187.947Y-62.904
X188.281Y-74.614
X188.281Y-75.814
X188.578Y-85.842
X188.658Y-64.104
X189.067Y-87.042
X189.147Y-62.904
X189.481Y-74.614
X189.481Y-75.814
X189.778Y-85.842
X189.858Y-64.104
X190.267Y-87.042
X190.347Y-62.904
X190.681Y-74.614
X190.681Y-75.814
X190.978Y-85.842
X191.058Y-64.104
X191.467Y-87.042
X191.547Y-62.904
X191.881Y-74.614
X191.881Y-75.814
X192.178Y-85.842
X192.258Y-64.104
X192.667Y-87.042
X192.747Y-62.904
X193.081Y-74.614
X193.081Y-75.814
X193.378Y-85.842
X193.458Y-64.104
X193.867Y-87.042
X193.947Y-62.904
X194.281Y-74.614
X194.281Y-75.814
X194.578Y-85.842
X194.658Y-64.104
X195.067Y-87.042
X195.147Y-62.904
X195.481Y-74.614
X195.481Y-75.814
X195.778Y-85.842
X195.858Y-64.104
X196.267Y-87.042
X196.347Y-62.904
X196.681Y-74.614
X196.681Y-75.814
X196.978Y-85.842
X197.058Y-64.104
X197.467Y-87.042
X197.547Y-62.904
X197.881Y-74.614
X197.881Y-75.814
X198.178Y-85.842
X198.258Y-64.104
X198.667Y-87.042
X198.747Y-62.904
X199.081Y-74.614
X199.081Y-75.814
X199.378Y-85.842
X199.458Y-64.104
X199.867Y-87.042
X199.947Y-62.904
X200.281Y-74.614
X200.281Y-75.814
X200.884Y-85.744
X200.964Y-64.201
X201.067Y-87.042
X201.147Y-62.904
X201.481Y-74.614
X201.481Y-75.814
X202.019Y-85.365
X202.099Y-64.58
X202.768Y-86.753
X202.848Y-63.192
X203.029Y-84.722
X203.109Y-65.223
X203.837Y-86.214
X203.852Y-83.853
X203.916Y-63.731
X203.932Y-66.092
X204.44Y-82.81
X204.52Y-67.135
X204.742Y-85.432
X204.757Y-81.656
X204.809Y-79.259
X204.809Y-80.459
X204.822Y-64.514
X204.837Y-68.289
X204.889Y-70.687
X204.889Y-69.487
X205.431Y-84.453
X205.511Y-65.493
X205.862Y-83.336
X205.942Y-66.61
X206.009Y-82.148
X206.009Y-79.748
X206.009Y-80.948
X206.089Y-67.797
X206.089Y-70.197
X206.089Y-68.997
X206.93Y-80.952
X206.93Y-79.752
X206.93Y-82.152
X206.96Y-69.129
X206.96Y-70.329
X206.96Y-67.929
X207.077Y-83.34
X207.107Y-66.741
X207.508Y-84.456
X207.538Y-65.624
X208.13Y-80.463
X208.13Y-79.263
X208.16Y-69.618
X208.16Y-70.818
X208.182Y-81.66
X208.197Y-85.435
X208.212Y-68.42
X208.227Y-64.645
X208.499Y-82.814
X208.53Y-67.266
X209.087Y-83.857
X209.103Y-86.218
X209.117Y-66.223
X209.133Y-63.862
X209.911Y-84.726
X209.941Y-65.354
X210.171Y-86.757
X210.201Y-63.323
X210.92Y-85.369
X210.95Y-64.711
X211.872Y-87.046
X211.902Y-63.035
X212.055Y-85.748
X212.086Y-64.332
X213.072Y-87.046
X213.102Y-63.035
X213.561Y-85.846
X213.591Y-64.235
X214.272Y-87.046
X214.302Y-63.035
X214.761Y-85.846
X214.791Y-64.235
X215.472Y-87.046
X215.502Y-63.035
X215.961Y-85.846
X215.991Y-64.235
X216.672Y-87.046
X216.702Y-63.035
X217.161Y-85.846
X217.191Y-64.235
X217.872Y-87.046
X217.902Y-63.035
X218.361Y-85.846
X218.391Y-64.235
X219.072Y-87.046
X219.102Y-63.035
X219.561Y-85.846
X219.591Y-64.235
X219.651Y-224.504
X219.801Y-225.104
X220.272Y-87.046
X220.302Y-63.035
X220.761Y-85.846
X220.791Y-64.235
X221.472Y-87.046
X221.502Y-63.035
X221.961Y-85.846
X221.991Y-64.235
X222.672Y-87.046
X222.702Y-63.035
X223.161Y-85.846
X223.191Y-64.235
X223.872Y-87.046
X223.902Y-63.035
X224.361Y-85.846
X224.391Y-64.235
X225.072Y-87.046
X225.102Y-63.035
X225.561Y-85.846
X225.591Y-64.235
X226.272Y-87.046
X226.302Y-63.035
X226.761Y-85.846
X226.791Y-64.235
X227.472Y-87.046
X227.502Y-63.035
X227.961Y-85.846
X227.991Y-64.235
X228.672Y-87.046
X228.702Y-63.035
X229.161Y-85.846
X229.191Y-64.235
X229.872Y-87.046
X229.902Y-63.035
X230.361Y-85.846
X230.391Y-64.235
X231.072Y-87.046
X231.102Y-63.035
X231.561Y-85.846
X231.591Y-64.235
X232.226Y-29.504
X232.272Y-87.046
X232.302Y-63.035
X232.761Y-85.846
X232.791Y-64.235
X233.001Y-29.954
X233.076Y-106.004
X233.472Y-87.046
X233.502Y-63.035
X233.626Y-41.704
X233.961Y-85.846
X233.976Y-30.804
X233.991Y-64.235
X234.451Y-31.304
X234.526Y-107.354
X234.672Y-87.046
X234.702Y-63.035
X235.161Y-85.846
X235.191Y-64.235
X235.872Y-87.046
X235.902Y-63.035
X236.305Y-31.078
X236.305Y-107.078
X236.305Y-118.879
X236.361Y-85.846
X236.38Y-42.854
X236.391Y-64.235
X236.83Y-31.626
X236.83Y-42.332
X236.83Y-107.626
X236.83Y-118.332
X237.072Y-87.046
X237.102Y-63.035
X237.151Y-49.154
X237.243Y-30.208
X237.243Y-43.749
X237.243Y-106.208
X237.243Y-119.749
X237.392Y-32.194
X237.392Y-41.763
X237.392Y-108.194
X237.392Y-117.763
X237.501Y-48.454
X237.551Y-124.554
X237.561Y-85.846
X237.591Y-64.235
X237.621Y-33.692
X237.621Y-40.265
X237.621Y-109.692
X237.621Y-116.265
X237.693Y-29.758
X237.693Y-44.199
X237.693Y-105.758
X237.693Y-120.199
X237.704Y-35.149
X237.704Y-38.808
X237.704Y-111.149
X237.704Y-114.808
X237.981Y-31.036
X237.981Y-42.921
X237.981Y-107.036
X237.981Y-118.921
X238.272Y-87.046
X238.302Y-63.035
X238.331Y-30.036
X238.331Y-43.921
X238.331Y-106.036
X238.331Y-119.921
X238.476Y-47.604
X238.533Y-36.01
X238.533Y-37.947
X238.533Y-112.01
X238.533Y-113.947
X238.605Y-31.894
X238.605Y-42.063
X238.605Y-107.894
X238.605Y-118.063
X238.743Y-28.858
X238.743Y-45.099
X238.743Y-104.858
X238.743Y-121.099
X238.761Y-85.846
X238.791Y-64.235
X238.821Y-34.144
X238.821Y-39.813
X238.821Y-110.144
X238.821Y-115.813
X238.821Y-32.944
X238.821Y-41.013
X238.821Y-108.944
X238.821Y-117.013
X238.851Y-47.004
X238.901Y-123.104
X238.918Y-87.046
X238.948Y-63.035
X239.081Y-30.686
X239.081Y-43.271
X239.081Y-106.686
X239.081Y-119.271
X239.412Y-35.092
X239.412Y-38.865
X239.412Y-111.092
X239.412Y-114.865
X239.431Y-29.236
X239.431Y-32.236
X239.431Y-41.721
X239.431Y-44.721
X239.431Y-105.236
X239.431Y-108.236
X239.431Y-117.721
X239.431Y-120.721
X239.531Y-31.136
X239.531Y-42.821
X239.531Y-107.136
X239.531Y-118.821
X239.601Y-102.454
X239.613Y-36.506
X239.613Y-37.451
X239.613Y-112.506
X239.613Y-113.451
X239.626Y-26.304
X239.801Y-103.454
X239.961Y-85.846
X239.981Y-31.636
X239.981Y-42.321
X239.981Y-107.636
X239.981Y-118.321
X239.991Y-64.235
X240.107Y-87.189
X240.131Y-29.886
X240.131Y-44.071
X240.131Y-105.886
X240.131Y-120.071
X240.137Y-62.891
X240.236Y-35.354
X240.236Y-38.604
X240.236Y-111.354
X240.236Y-114.604
X240.251Y-36.554
X240.251Y-112.554
X240.276Y-113.454
X240.282Y-37.458
X240.331Y-33.186
X240.331Y-40.771
X240.331Y-109.186
X240.331Y-116.771
X240.431Y-33.886
X240.431Y-40.071
X240.431Y-109.886
X240.431Y-116.071
X240.731Y-30.586
X240.731Y-43.371
X240.731Y-106.586
X240.731Y-119.371
X240.827Y-85.896
X240.857Y-64.184
X240.931Y-32.536
X240.931Y-41.421
X240.931Y-108.536
X240.931Y-117.421
X241.181Y-31.636
X241.181Y-42.321
X241.181Y-107.636
X241.181Y-118.321
X241.206Y-116.646
X241.227Y-87.611
X241.257Y-62.47
X241.983Y-86.206
X242.013Y-63.874
X242.215Y-88.287
X242.245Y-61.794
X242.501Y-39.004
X243.014Y-89.178
X243.032Y-86.783
X243.044Y-60.902
X243.062Y-63.298
X243.481Y-116.496
X243.578Y-90.234
X243.608Y-59.846
X243.875Y-91.393
X243.906Y-58.687
X243.914Y-87.592
X243.918Y-108.192
X243.918Y-106.992
X243.918Y-105.792
X243.918Y-104.592
X243.918Y-103.392
X243.918Y-102.192
X243.918Y-100.992
X243.918Y-99.792
X243.918Y-98.592
X243.918Y-97.392
X243.918Y-96.192
X243.918Y-94.992
X243.918Y-93.792
X243.918Y-92.592
X243.945Y-62.489
X243.948Y-41.889
X243.948Y-43.089
X243.948Y-44.289
X243.948Y-45.489
X243.948Y-46.689
X243.948Y-47.889
X243.948Y-49.089
X243.948Y-50.289
X243.948Y-51.489
X243.948Y-52.689
X243.948Y-53.889
X243.948Y-55.089
X243.948Y-56.289
X243.948Y-57.489
X244.579Y-88.587
X244.609Y-61.493
X244.988Y-89.712
X245.018Y-60.368
X245.118Y-107.703
X245.118Y-106.503
X245.118Y-105.303
X245.118Y-104.103
X245.118Y-102.903
X245.118Y-101.703
X245.118Y-100.503
X245.118Y-99.303
X245.118Y-98.103
X245.118Y-96.903
X245.118Y-95.703
X245.118Y-94.503
X245.118Y-93.303
X245.118Y-92.103
X245.118Y-90.903
X245.148Y-42.378
X245.148Y-43.578
X245.148Y-44.778
X245.148Y-45.978
X245.148Y-47.178
X245.148Y-48.378
X245.148Y-49.578
X245.148Y-50.778
X245.148Y-51.978
X245.148Y-53.178
X245.148Y-54.378
X245.148Y-55.578
X245.148Y-56.778
X245.148Y-57.978
X245.148Y-59.178
X246.501Y-111.054
X247.721Y-42.371
X247.721Y-118.371
X247.821Y-31.636
X247.821Y-107.636
X247.971Y-41.471
X247.971Y-117.471
X248.071Y-32.536
X248.071Y-108.536
X248.171Y-43.421
X248.171Y-119.421
X248.271Y-30.586
X248.271Y-106.586
X248.471Y-40.121
X248.471Y-116.121
X248.571Y-33.886
X248.571Y-40.821
X248.571Y-109.886
X248.571Y-116.821
X248.651Y-37.454
X248.651Y-113.454
X248.666Y-38.654
X248.666Y-114.654
X248.671Y-33.186
X248.671Y-109.186
X248.751Y-36.554
X248.751Y-112.554
X248.766Y-35.354
X248.766Y-111.354
X248.771Y-44.121
X248.771Y-120.121
X248.871Y-29.886
X248.871Y-105.886
X248.921Y-42.371
X248.921Y-118.371
X249.021Y-31.636
X249.021Y-107.636
X249.289Y-37.501
X249.289Y-113.501
X249.371Y-42.871
X249.371Y-118.871
X249.376Y-47.654
X249.389Y-36.506
X249.389Y-112.506
X249.471Y-31.136
X249.471Y-41.771
X249.471Y-44.771
X249.471Y-107.136
X249.471Y-117.771
X249.471Y-120.771
X249.491Y-38.915
X249.491Y-114.915
X249.571Y-29.236
X249.571Y-32.236
X249.571Y-105.236
X249.571Y-108.236
X249.591Y-35.092
X249.591Y-111.092
X249.821Y-43.321
X249.821Y-119.321
X249.921Y-30.686
X249.921Y-106.686
X250.081Y-41.063
X250.081Y-117.063
X250.081Y-39.863
X250.081Y-115.863
X250.126Y-26.904
X250.159Y-45.149
X250.159Y-121.149
X250.176Y-103.004
X250.181Y-32.944
X250.181Y-108.944
X250.181Y-34.144
X250.181Y-110.144
X250.259Y-28.858
X250.259Y-104.858
X250.297Y-42.113
X250.297Y-118.113
X250.37Y-37.997
X250.37Y-113.997
X250.397Y-31.894
X250.397Y-107.894
X250.451Y-102.329
X250.47Y-36.01
X250.47Y-112.01
X250.571Y-43.971
X250.571Y-119.971
X250.671Y-30.036
X250.671Y-106.036
X250.921Y-42.971
X250.921Y-118.971
X251.021Y-31.036
X251.021Y-107.036
X251.199Y-38.858
X251.199Y-114.858
X251.209Y-44.249
X251.209Y-120.249
X251.281Y-40.315
X251.281Y-116.315
X251.299Y-35.149
X251.299Y-111.149
X251.309Y-29.758
X251.309Y-105.758
X251.381Y-33.692
X251.381Y-109.692
X251.476Y-25.454
X251.51Y-41.813
X251.51Y-117.813
X251.526Y-101.554
X251.61Y-32.194
X251.61Y-108.194
X251.659Y-43.799
X251.659Y-119.799
X251.676Y-100.854
X251.759Y-30.208
X251.759Y-106.208
X252.073Y-42.382
X252.073Y-118.382
X252.173Y-31.626
X252.173Y-107.626
X252.597Y-42.929
X252.597Y-118.929
X252.697Y-31.078
X252.697Y-107.078
X254.501Y-42.654
X254.576Y-118.704
X255.051Y-119.204
X255.176Y-31.954
X255.301Y-108.154
X255.951Y-44.004
X256.026Y-120.054
X256.701Y-120.454
T3
X66.064Y-232.776
X66.064Y-233.564
X66.064Y-234.351
X66.374Y-203.676
X66.374Y-204.464
X66.374Y-205.251
X66.851Y-232.776
X66.851Y-233.564
X66.851Y-234.351
X67.161Y-203.676
X67.161Y-204.464
X67.161Y-205.251
X67.638Y-232.776
X67.638Y-233.564
X67.638Y-234.351
X67.948Y-203.676
X67.948Y-204.464
X67.948Y-205.251
T4
X73.851Y-108.729
X73.976Y-117.729
X74.501Y-108.354
X74.626Y-117.354
X75.201Y-93.904
X75.201Y-94.954
X75.251Y-96.604
X75.251Y-97.604
X75.451Y-107.329
X75.751Y-40.254
X75.951Y-116.354
X76.351Y-93.904
X76.351Y-94.954
X76.401Y-96.554
X76.451Y-97.604
X76.701Y-109.079
X76.701Y-109.979
X76.826Y-118.079
X76.826Y-118.979
X77.526Y-109.104
X77.526Y-110.029
X77.651Y-118.104
X77.651Y-119.029
X77.851Y-94.954
X77.901Y-93.904
X77.951Y-96.504
X78.001Y-97.654
X78.426Y-107.329
X78.551Y-116.329
X79.001Y-97.654
X79.051Y-93.904
X79.051Y-94.954
X79.051Y-96.554
X79.426Y-108.354
X79.451Y-109.354
X79.551Y-117.354
X79.576Y-118.354
X80.876Y-37.979
X81.976Y-121.904
X82.051Y-37.929
X82.051Y-39.979
X85.901Y-37.804
X117.501Y-38.004
X120.001Y-76.004
X122.501Y-74.504
X122.701Y-217.454
X122.701Y-218.104
X122.801Y-220.354
X123.101Y-214.404
X123.801Y-218.754
X123.851Y-219.454
X125.901Y-214.554
X125.901Y-219.454
X128.451Y-214.554
X128.501Y-218.504
X141.801Y-93.404
X142.401Y-35.404
X144.201Y-135.904
X144.901Y-16.504
X146.701Y-58.604
X155.851Y-105.729
X155.876Y-28.854
X155.926Y-104.829
X157.126Y-107.204
X158.051Y-43.179
X158.076Y-28.029
X158.076Y-119.204
X158.101Y-46.079
X158.126Y-104.004
X158.126Y-122.104
X158.701Y-27.254
X158.726Y-28.754
X158.751Y-103.229
X158.776Y-46.829
X158.776Y-104.729
X158.801Y-122.854
X158.926Y-45.279
X158.951Y-121.304
X159.451Y-26.579
X159.501Y-102.554
X159.526Y-29.504
X159.551Y-47.454
X159.576Y-28.104
X159.576Y-105.479
X159.576Y-123.479
X159.626Y-45.954
X159.626Y-104.079
X159.651Y-44.529
X159.651Y-121.979
X159.676Y-120.554
X160.251Y-27.404
X160.276Y-46.804
X160.301Y-28.854
X160.301Y-103.379
X160.301Y-122.829
X160.351Y-104.829
X160.376Y-45.229
X160.376Y-49.654
X160.401Y-121.254
X160.401Y-125.679
X161.001Y-28.129
X161.026Y-46.004
X161.051Y-104.104
X161.051Y-122.029
X162.426Y-26.529
X162.426Y-102.504
X163.726Y-102.154
X164.301Y-164.104
X165.901Y-142.904
X166.001Y0.996
X167.101Y-111.829
X167.101Y-112.979
X167.101Y-114.029
X167.176Y-35.954
X167.176Y-36.979
X167.176Y-38.104
X168.251Y-112.979
X168.451Y-111.829
X168.476Y-114.054
X168.501Y-35.954
X168.526Y-38.179
X168.726Y-37.029
X169.601Y-219.904
X169.801Y-111.904
X169.801Y-113.029
X169.801Y-114.054
X169.876Y-35.979
X169.876Y-37.029
X169.876Y-38.179
X170.201Y0.996
X171.401Y-163.104
X172.751Y-218.254
X172.801Y-214.454
X173.426Y-123.704
X173.901Y-218.854
X173.951Y-219.554
X174.251Y-102.154
X174.576Y-47.529
X174.576Y-123.529
X175.451Y-214.504
X175.576Y-100.704
X175.651Y-219.304
X176.001Y-28.004
X176.001Y-45.929
X176.026Y-104.029
X176.051Y-121.904
X176.651Y-24.354
X176.651Y-28.779
X176.676Y-100.379
X176.676Y-104.804
X176.701Y-45.204
X176.751Y-27.204
X176.751Y-46.654
X176.751Y-121.179
X176.776Y-103.229
X176.801Y-122.629
X177.376Y-29.479
X177.401Y-28.054
X177.401Y-105.504
X177.426Y-45.954
X177.426Y-104.079
X177.476Y-26.554
X177.476Y-44.554
X177.476Y-121.929
X177.501Y-102.579
X177.526Y-120.529
X177.551Y-47.479
X177.601Y-123.454
X178.101Y-28.729
X178.126Y-104.754
X178.151Y-218.354
X178.201Y-214.504
X178.251Y-27.179
X178.276Y-45.304
X178.276Y-103.204
X178.301Y-46.804
X178.326Y-121.279
X178.351Y-122.779
X178.926Y-27.929
X178.926Y-46.029
X178.951Y-103.954
X178.976Y-30.829
X178.976Y-122.004
X179.001Y-106.854
X179.201Y-6.904
X179.451Y-108.154
X180.751Y-120.404
X181.126Y-45.204
X181.176Y-121.179
X189.701Y-15.904
X193.201Y-135.804
X193.301Y-53.304
X202.401Y-132.104
X209.501Y-222.004
X209.751Y-224.354
X214.801Y-224.304
X214.851Y-222.054
X215.901Y-57.604
X216.101Y-92.404
X216.801Y-223.954
X217.501Y-131.904
X217.501Y-225.204
X218.101Y-225.204
X219.401Y-223.854
X221.451Y-225.654
X222.501Y-19.304
X222.601Y-223.904
X226.401Y-11.704
X231.851Y-28.804
X231.926Y-104.854
X231.976Y-105.729
X233.276Y-118.929
X233.451Y-107.079
X233.576Y-117.754
X233.876Y-43.079
X234.051Y-27.979
X234.076Y-46.029
X234.126Y-104.029
X234.126Y-122.129
X234.676Y-27.204
X234.701Y-28.704
X234.751Y-46.779
X234.751Y-103.254
X234.776Y-104.754
X234.801Y-122.879
X234.901Y-45.229
X234.951Y-121.329
X235.201Y5.496
X235.426Y-26.529
X235.501Y-29.454
X235.501Y-102.579
X235.526Y-47.404
X235.551Y-28.054
X235.576Y-105.504
X235.576Y-123.504
X235.601Y-45.904
X235.626Y-44.479
X235.626Y-104.104
X235.651Y-122.004
X235.676Y-120.579
X236.226Y-27.354
X236.251Y-46.754
X236.276Y-28.804
X236.301Y-103.404
X236.301Y-122.854
X236.351Y-45.179
X236.351Y-49.604
X236.351Y-104.854
X236.401Y-121.279
X236.401Y-125.704
X236.976Y-28.079
X237.001Y-45.954
X237.051Y-104.129
X237.051Y-122.054
X237.176Y-125.329
X238.401Y-26.479
X238.701Y10.296
X238.801Y-124.029
X238.901Y-101.829
X241.801Y-166.104
X243.101Y-111.804
X243.101Y-112.954
X243.101Y-114.004
X243.176Y-35.954
X243.176Y-36.979
X243.176Y-38.104
X244.251Y-112.954
X244.301Y-149.104
X244.451Y-111.804
X244.476Y-114.029
X244.501Y-35.954
X244.526Y-38.179
X244.726Y-37.029
X245.801Y-111.879
X245.801Y-113.004
X245.801Y-114.029
X245.876Y-35.979
X245.876Y-37.029
X245.876Y-38.179
X249.526Y-123.704
X250.276Y-25.929
X250.501Y-47.629
X250.526Y-123.829
X251.751Y-24.679
X251.976Y-27.954
X251.976Y-45.879
X252.026Y-104.054
X252.051Y-121.929
X252.626Y-24.304
X252.626Y-28.729
X252.676Y-45.154
X252.676Y-100.404
X252.676Y-104.829
X252.726Y-27.154
X252.726Y-46.604
X252.751Y-121.204
X252.776Y-103.254
X252.801Y-122.654
X253.351Y-29.429
X253.376Y-28.004
X253.401Y-45.904
X253.401Y-105.529
X253.426Y-104.104
X253.451Y-26.504
X253.451Y-44.504
X253.476Y-121.954
X253.501Y-102.604
X253.526Y-47.429
X253.526Y-120.554
X253.601Y-123.479
X254.076Y-28.679
X254.126Y-104.779
X254.226Y-27.129
X254.251Y-45.254
X254.276Y-46.754
X254.276Y-103.229
X254.326Y-121.304
X254.351Y-122.804
X254.901Y-27.879
X254.901Y-45.979
X254.951Y-103.979
X254.976Y-122.029
X255.001Y-106.879
X255.226Y-30.954
X255.276Y-42.879
X256.776Y-44.129
X257.101Y-45.154
X257.176Y-121.204
X263.001Y-12.104
X271.301Y-18.804
X271.301Y-121.104
X272.001Y-11.704
T5
X27.526Y-67.654
X27.576Y-70.304
X27.676Y-72.804
X27.801Y-75.454
X30.251Y-102.054
X41.751Y-101.154
X43.951Y-100.154
X45.701Y-100.154
X55.026Y-67.479
X56.101Y-76.804
X57.226Y-76.854
X58.229Y-62.467
X58.99Y-61.732
X59.801Y-69.229
X76.761Y-62.419
X77.504Y-63.126
X79.426Y-70.979
X80.26Y-146.524
X80.26Y-147.524
X80.26Y-151.024
X80.26Y-152.024
X80.26Y-153.024
X80.26Y-156.024
X80.651Y-79.429
X81.081Y-146.024
X81.081Y-147.024
X81.081Y-148.024
X81.081Y-150.524
X81.081Y-151.524
X81.081Y-152.524
X81.081Y-153.524
X81.081Y-156.524
X81.551Y-79.404
X84.161Y-164.604
X85.661Y-140.123
X86.161Y-140.943
X86.161Y-164.604
X86.661Y-140.123
X87.161Y-140.943
X87.661Y-140.123
X87.661Y-164.604
X88.161Y-140.943
X88.401Y-83.879
X88.401Y-84.829
X88.451Y-85.829
X88.661Y-164.604
X90.661Y-140.943
X91.161Y-165.424
X91.661Y-140.943
X91.661Y-164.604
X92.161Y-165.424
X92.661Y-164.604
X93.161Y-165.424
X93.661Y-164.604
X96.161Y-165.424
X96.661Y-164.604
X98.661Y-140.943
X99.161Y-140.123
X99.161Y-165.424
X99.661Y-140.943
X99.661Y-164.604
X100.001Y-25.504
X104.742Y-144.524
X104.742Y-151.524
X104.742Y-152.524
X104.742Y-155.524
X104.742Y-160.024
X104.742Y-161.524
X105.562Y-144.024
X105.562Y-152.024
X105.562Y-155.024
X111.501Y-15.504
X143.001Y-129.654
X143.301Y-98.904
X144.551Y-127.804
X145.001Y-24.804
X145.051Y-52.154
X153.401Y-88.954
X153.901Y-137.054
X153.951Y-15.304
X156.101Y-61.654
X168.401Y-126.404
X180.651Y-14.104
X182.751Y-58.604
X183.399Y-179.0
X183.451Y-89.104
X183.851Y-135.704
X185.159Y-178.973
X187.406Y-179.745
X190.301Y-23.204
X191.701Y-49.254
X192.751Y-126.604
X194.151Y-98.904
X201.468Y-180.303
X219.501Y-98.104
X219.651Y-24.954
X221.551Y-127.654
X221.62Y-179.348
X222.451Y-50.804
X224.193Y-178.53
X226.104Y-178.491
X229.251Y-88.654
X230.451Y-14.104
X230.601Y-59.554
X230.601Y-137.004
X257.451Y-13.004
X257.751Y-88.604
X259.251Y-59.554
X259.601Y-135.504
X267.201Y-22.554
X267.551Y-98.804
X268.151Y-50.854
X269.101Y-125.904
T6
X28.201Y-245.804
X30.051Y-230.854
X55.951Y-220.504
X58.151Y-219.654
X60.501Y-220.204
X62.651Y-219.404
X116.276Y-120.629
X116.326Y-30.679
X117.651Y-120.679
X118.001Y-30.679
X119.526Y-121.779
X120.026Y-31.704
X205.081Y-73.814
X205.081Y-74.964
X205.081Y-76.164
X206.231Y-73.864
X206.231Y-75.014
X206.281Y-76.264
X207.331Y-74.964
X207.331Y-76.164
X207.381Y-73.864
T7
X185.851Y32.946
X187.701Y32.996
X189.951Y31.796
X210.301Y34.846
X223.351Y32.196
X225.801Y33.296
X227.701Y33.396
T8
X93.701Y-74.549
X93.701Y-75.819
X95.441Y-97.607
X95.441Y-98.877
T9
X92.431Y-73.914
X92.431Y-76.454
X94.171Y-96.972
X94.171Y-99.512
X94.971Y-73.914
X94.971Y-76.454
X96.711Y-96.972
X96.711Y-99.512
T10
X105.476Y-40.054
X105.501Y-10.504
X113.751Y-29.029
X130.676Y-118.429
T11
X23.021Y-166.834
X23.021Y-169.374
X23.121Y-0.084
X23.121Y-2.624
X23.451Y-194.754
X23.451Y-197.294
X23.451Y-236.614
X23.451Y-239.154
X23.471Y-206.484
X23.471Y-209.024
X24.021Y-97.564
X24.021Y-100.104
X24.021Y-112.174
X24.021Y-114.714
X24.231Y-89.274
X24.231Y-91.814
X24.471Y-81.394
X24.471Y-83.934
X24.521Y-32.454
X24.521Y-34.994
X42.731Y-225.504
X42.731Y-240.504
X42.931Y-195.554
X42.931Y-210.554
X45.271Y-225.504
X45.271Y-240.504
X45.471Y-195.554
X45.471Y-210.554
X57.731Y-225.504
X57.731Y-240.504
X57.931Y-195.554
X57.931Y-210.554
X60.271Y-225.504
X60.271Y-240.504
X60.471Y-195.554
X60.471Y-210.554
X72.631Y-225.304
X72.631Y-240.304
X72.731Y-195.504
X72.731Y-210.504
X75.171Y-225.304
X75.171Y-240.304
X75.271Y-195.504
X75.271Y-210.504
X87.631Y-225.304
X87.631Y-240.304
X87.731Y-195.504
X87.731Y-210.504
X90.171Y-225.304
X90.171Y-240.304
X90.271Y-195.504
X90.271Y-210.504
X100.836Y-199.92
X101.096Y-234.981
X103.376Y-199.92
X103.636Y-234.981
X105.916Y-199.92
X106.176Y-234.981
X110.795Y-199.93
X110.944Y-235.062
X113.335Y-199.93
X113.484Y-235.062
X115.875Y-199.93
X116.024Y-235.062
X120.965Y-199.902
X121.024Y-235.14
X123.505Y-199.902
X123.564Y-235.14
X126.045Y-199.902
X126.104Y-235.14
X130.811Y-235.079
X130.982Y-200.003
X133.351Y-235.079
X133.522Y-200.003
X135.731Y23.776
X135.891Y-235.079
X136.062Y-200.003
X138.271Y23.776
X140.281Y-163.034
X142.821Y-163.034
X150.9Y-200.014
X151.004Y-234.977
X153.44Y-200.014
X153.544Y-234.977
X155.98Y-200.014
X156.084Y-234.977
X160.978Y-234.924
X160.992Y-200.052
X163.518Y-234.924
X163.532Y-200.052
X166.058Y-234.924
X166.072Y-200.052
X170.872Y-200.051
X170.969Y-235.139
X173.412Y-200.051
X173.509Y-235.139
X175.952Y-200.051
X176.049Y-235.139
X180.856Y-200.05
X180.877Y-235.034
X183.396Y-200.05
X183.417Y-235.034
X185.936Y-200.05
X185.957Y-235.034
X197.631Y21.596
X200.171Y21.596
X203.771Y30.626
X203.841Y-164.034
X204.751Y-176.234
X206.311Y30.626
X206.381Y-164.034
X207.291Y-176.234
X208.131Y21.596
X210.671Y21.596
X219.291Y22.226
X221.831Y22.226
X259.901Y23.026
X262.441Y23.026
X264.981Y-175.954
X264.981Y-178.494
X265.031Y-192.014
X265.031Y-194.554
X265.031Y-209.794
X265.031Y-212.334
X265.301Y-154.234
X265.301Y-156.774
X265.381Y-146.264
X265.381Y-148.804
T12
X21.501Y-66.774
X21.501Y-69.314
X21.501Y-71.854
X21.501Y-74.394
X24.041Y-66.774
X24.041Y-69.314
X24.041Y-71.854
X24.041Y-74.394
X48.141Y-168.504
X50.681Y-168.504
X53.131Y-160.884
X53.221Y-168.504
X55.671Y-160.884
X55.761Y-168.504
X58.121Y-174.134
X58.211Y-160.884
X60.661Y-174.134
X60.751Y-160.884
X63.141Y-167.984
X63.201Y-174.134
X63.291Y-160.884
X65.681Y-167.984
X65.741Y-174.134
X65.831Y-160.884
X67.261Y-127.594
X67.261Y-130.134
X67.261Y-132.674
X67.261Y-135.214
X67.261Y-137.754
X67.261Y-140.294
X67.261Y-142.834
X67.261Y-145.374
X67.261Y-147.914
X67.261Y-150.454
X68.221Y-167.984
X68.281Y-174.134
X68.371Y-160.884
X69.801Y-127.594
X69.801Y-130.134
X69.801Y-132.674
X69.801Y-135.214
X69.801Y-137.754
X69.801Y-140.294
X69.801Y-142.834
X69.801Y-145.374
X69.801Y-147.914
X69.801Y-150.454
X70.761Y-167.984
X70.821Y-174.134
X70.911Y-160.884
X77.221Y-174.014
X77.221Y-176.554
X77.221Y-179.094
X77.221Y-181.634
X81.911Y-129.624
X83.421Y-174.054
X83.421Y-176.594
X83.421Y-179.134
X84.451Y-129.624
X86.991Y-129.624
X88.971Y-174.124
X88.971Y-176.664
X88.971Y-179.204
X94.461Y-174.014
X94.461Y-176.554
X97.001Y-62.234
X97.001Y-64.774
X97.001Y-174.014
X97.001Y-176.554
X99.541Y-174.014
X99.541Y-176.554
X102.081Y-174.014
X102.081Y-176.554
X104.621Y-174.014
X104.621Y-176.554
X107.161Y-174.014
X107.161Y-176.554
X109.701Y-174.014
X109.701Y-176.554
X120.851Y-149.864
X120.851Y-152.404
X120.851Y-154.944
X120.851Y-157.484
X120.851Y-160.024
X120.851Y-162.564
X123.391Y-149.864
X123.391Y-152.404
X123.391Y-154.944
X123.391Y-157.484
X123.391Y-160.024
X123.391Y-162.564
X201.821Y-202.254
X201.821Y-204.794
X201.821Y-207.334
X207.021Y-202.274
X207.021Y-204.814
X207.021Y-207.354
X212.321Y-202.514
X212.321Y-205.054
X212.321Y-207.594
X217.371Y-202.594
X217.371Y-205.134
X217.371Y-207.674
X222.871Y-202.484
X222.871Y-205.024
X222.871Y-207.564
X228.221Y-202.494
X228.221Y-205.034
X228.221Y-207.574
X233.421Y-202.334
X233.421Y-204.874
X233.421Y-207.414
X238.371Y-202.324
X238.371Y-204.864
X238.371Y-207.404
T13
X67.961Y-29.414
X67.961Y-34.494
X73.041Y-29.414
X73.041Y-34.494
X82.961Y-66.564
X82.961Y-71.644
X82.971Y-57.224
X82.971Y-62.304
X88.041Y-66.564
X88.041Y-71.644
X88.051Y-57.224
X88.051Y-62.304
X98.461Y-30.654
X98.461Y-35.734
X98.691Y-115.614
X98.691Y-120.694
X103.541Y-30.654
X103.541Y-35.734
X103.771Y-115.614
X103.771Y-120.694
X143.609Y-105.864
X144.1Y-31.452
X145.079Y-121.414
X145.949Y-44.314
X147.201Y-102.271
X147.201Y-109.456
X147.692Y-27.86
X147.692Y-35.044
X148.671Y-117.821
X148.671Y-125.006
X149.541Y-40.721
X149.541Y-47.906
X150.793Y-105.864
X151.284Y-31.452
X152.263Y-121.414
X153.133Y-44.314
X156.329Y-93.214
X157.609Y-133.834
X157.659Y-17.984
X159.349Y-57.764
X159.921Y-89.621
X159.921Y-96.806
X161.201Y-130.241
X161.201Y-137.426
X161.251Y-14.392
X161.251Y-21.576
X162.941Y-54.171
X162.941Y-61.356
X163.513Y-93.214
X164.793Y-133.834
X164.843Y-17.984
X166.533Y-57.764
X170.439Y-16.364
X172.249Y-56.114
X173.159Y-132.394
X173.239Y-93.064
X174.031Y-12.771
X174.031Y-19.956
X175.841Y-52.521
X175.841Y-59.706
X176.751Y-128.801
X176.751Y-135.986
X176.831Y-89.471
X176.831Y-96.656
X177.623Y-16.364
X179.433Y-56.114
X180.343Y-132.394
X180.423Y-93.064
X183.949Y-29.864
X184.499Y-104.114
X185.209Y-120.344
X185.719Y-42.544
X187.541Y-26.271
X187.541Y-33.456
X188.091Y-100.521
X188.091Y-107.706
X188.801Y-116.751
X188.801Y-123.936
X189.311Y-38.951
X189.311Y-46.136
X191.133Y-29.864
X191.683Y-104.114
X192.393Y-120.344
X192.903Y-42.544
X219.959Y-105.294
X220.059Y-31.594
X221.429Y-121.684
X221.659Y-44.444
X223.551Y-101.701
X223.551Y-108.886
X223.651Y-28.001
X223.651Y-35.186
X225.021Y-118.091
X225.021Y-125.276
X225.251Y-40.851
X225.251Y-48.036
X227.143Y-105.294
X227.243Y-31.594
X228.613Y-121.684
X228.843Y-44.444
X231.859Y-93.494
X233.559Y-17.994
X233.749Y-56.654
X233.849Y-134.074
X235.451Y-89.901
X235.451Y-97.086
X237.151Y-14.401
X237.151Y-21.586
X237.341Y-53.061
X237.341Y-60.246
X237.441Y-130.481
X237.441Y-137.666
X239.043Y-93.494
X240.743Y-17.994
X240.933Y-56.654
X241.033Y-134.074
X246.909Y-15.894
X248.039Y-92.794
X248.849Y-56.784
X249.219Y-132.144
X250.501Y-12.301
X250.501Y-19.486
X251.631Y-89.201
X251.631Y-96.386
X252.441Y-53.191
X252.441Y-60.376
X252.811Y-128.551
X252.811Y-135.736
X254.093Y-15.894
X255.223Y-92.794
X256.033Y-56.784
X256.403Y-132.144
X260.359Y-120.844
X260.369Y-104.984
X260.459Y-29.394
X262.209Y-43.394
X263.951Y-117.251
X263.951Y-124.436
X263.961Y-101.391
X263.961Y-108.576
X264.051Y-25.801
X264.051Y-32.986
X265.801Y-39.801
X265.801Y-46.986
X267.543Y-120.844
X267.553Y-104.984
X267.643Y-29.394
X269.393Y-43.394
T14
X48.02Y-97.652
X126.101Y-188.704
X152.001Y-189.504
X159.001Y-248.004
T15
X23.831Y-145.244
X23.831Y-149.644
T16
X22.501Y40.996
X22.501Y-251.004
X134.501Y-5.004
X134.501Y-141.004
X274.501Y40.996
X274.501Y-5.004
X274.501Y-141.004
X274.501Y-251.004
M30
