%TF.GenerationSoftware,KiCad,Pcbnew,9.0.7*%
%TF.CreationDate,2026-03-29T09:04:21+05:00*%
%TF.ProjectId,RADAR_Main_Board,52414441-525f-44d6-9169-6e5f426f6172,rev?*%
%TF.SameCoordinates,Original*%
%TF.FileFunction,Legend,Bot*%
%TF.FilePolarity,Positive*%
%FSLAX46Y46*%
G04 Gerber Fmt 4.6, Leading zero omitted, Abs format (unit mm)*
G04 Created by KiCad (PCBNEW 9.0.7) date 2026-03-29 09:04:21*
%MOMM*%
%LPD*%
G01*
G04 APERTURE LIST*
%ADD10C,0.076200*%
G04 APERTURE END LIST*
D10*
X239975730Y-116485738D02*
X239975730Y-115291938D01*
X239975730Y-115291938D02*
X239293559Y-116485738D01*
X239293559Y-116485738D02*
X239293559Y-115291938D01*
X241018961Y-107852907D02*
X241018961Y-108535078D01*
X241018961Y-108193992D02*
X242212761Y-108193992D01*
X242212761Y-108193992D02*
X242042218Y-108307688D01*
X242042218Y-108307688D02*
X241928523Y-108421383D01*
X241928523Y-108421383D02*
X241871675Y-108535078D01*
X240032578Y-110150252D02*
X239464102Y-110150252D01*
X240146273Y-110491338D02*
X239748340Y-109297538D01*
X239748340Y-109297538D02*
X239350407Y-110491338D01*
X247013361Y-107852907D02*
X247013361Y-108535078D01*
X247013361Y-108193992D02*
X248207161Y-108193992D01*
X248207161Y-108193992D02*
X248036618Y-108307688D01*
X248036618Y-108307688D02*
X247922923Y-108421383D01*
X247922923Y-108421383D02*
X247866075Y-108535078D01*
X248207161Y-107454974D02*
X248207161Y-106715955D01*
X248207161Y-106715955D02*
X247752380Y-107113888D01*
X247752380Y-107113888D02*
X247752380Y-106943345D01*
X247752380Y-106943345D02*
X247695532Y-106829650D01*
X247695532Y-106829650D02*
X247638685Y-106772802D01*
X247638685Y-106772802D02*
X247524989Y-106715955D01*
X247524989Y-106715955D02*
X247240751Y-106715955D01*
X247240751Y-106715955D02*
X247127056Y-106772802D01*
X247127056Y-106772802D02*
X247070209Y-106829650D01*
X247070209Y-106829650D02*
X247013361Y-106943345D01*
X247013361Y-106943345D02*
X247013361Y-107284431D01*
X247013361Y-107284431D02*
X247070209Y-107398126D01*
X247070209Y-107398126D02*
X247127056Y-107454974D01*
X171983238Y-42154292D02*
X171983238Y-41472121D01*
X171983238Y-41813207D02*
X170789438Y-41813207D01*
X170789438Y-41813207D02*
X170959981Y-41699511D01*
X170959981Y-41699511D02*
X171073676Y-41585816D01*
X171073676Y-41585816D02*
X171130524Y-41472121D01*
X173026469Y-33521461D02*
X173026469Y-34715261D01*
X173026469Y-34715261D02*
X173708640Y-33521461D01*
X173708640Y-33521461D02*
X173708640Y-34715261D01*
X165988838Y-42154292D02*
X165988838Y-41472121D01*
X165988838Y-41813207D02*
X164795038Y-41813207D01*
X164795038Y-41813207D02*
X164965581Y-41699511D01*
X164965581Y-41699511D02*
X165079276Y-41585816D01*
X165079276Y-41585816D02*
X165136124Y-41472121D01*
X164795038Y-42552225D02*
X164795038Y-43291244D01*
X164795038Y-43291244D02*
X165249819Y-42893311D01*
X165249819Y-42893311D02*
X165249819Y-43063854D01*
X165249819Y-43063854D02*
X165306667Y-43177549D01*
X165306667Y-43177549D02*
X165363514Y-43234397D01*
X165363514Y-43234397D02*
X165477210Y-43291244D01*
X165477210Y-43291244D02*
X165761448Y-43291244D01*
X165761448Y-43291244D02*
X165875143Y-43234397D01*
X165875143Y-43234397D02*
X165931991Y-43177549D01*
X165931991Y-43177549D02*
X165988838Y-43063854D01*
X165988838Y-43063854D02*
X165988838Y-42722768D01*
X165988838Y-42722768D02*
X165931991Y-42609073D01*
X165931991Y-42609073D02*
X165875143Y-42552225D01*
X172969621Y-39856947D02*
X173538097Y-39856947D01*
X172855926Y-39515861D02*
X173253859Y-40709661D01*
X173253859Y-40709661D02*
X173651792Y-39515861D01*
X165018961Y-107852907D02*
X165018961Y-108535078D01*
X165018961Y-108193992D02*
X166212761Y-108193992D01*
X166212761Y-108193992D02*
X166042218Y-108307688D01*
X166042218Y-108307688D02*
X165928523Y-108421383D01*
X165928523Y-108421383D02*
X165871675Y-108535078D01*
X171013361Y-107852907D02*
X171013361Y-108535078D01*
X171013361Y-108193992D02*
X172207161Y-108193992D01*
X172207161Y-108193992D02*
X172036618Y-108307688D01*
X172036618Y-108307688D02*
X171922923Y-108421383D01*
X171922923Y-108421383D02*
X171866075Y-108535078D01*
X172207161Y-107454974D02*
X172207161Y-106715955D01*
X172207161Y-106715955D02*
X171752380Y-107113888D01*
X171752380Y-107113888D02*
X171752380Y-106943345D01*
X171752380Y-106943345D02*
X171695532Y-106829650D01*
X171695532Y-106829650D02*
X171638685Y-106772802D01*
X171638685Y-106772802D02*
X171524989Y-106715955D01*
X171524989Y-106715955D02*
X171240751Y-106715955D01*
X171240751Y-106715955D02*
X171127056Y-106772802D01*
X171127056Y-106772802D02*
X171070209Y-106829650D01*
X171070209Y-106829650D02*
X171013361Y-106943345D01*
X171013361Y-106943345D02*
X171013361Y-107284431D01*
X171013361Y-107284431D02*
X171070209Y-107398126D01*
X171070209Y-107398126D02*
X171127056Y-107454974D01*
X164032578Y-110150252D02*
X163464102Y-110150252D01*
X164146273Y-110491338D02*
X163748340Y-109297538D01*
X163748340Y-109297538D02*
X163350407Y-110491338D01*
X163975730Y-116485738D02*
X163975730Y-115291938D01*
X163975730Y-115291938D02*
X163293559Y-116485738D01*
X163293559Y-116485738D02*
X163293559Y-115291938D01*
X247983238Y-42154292D02*
X247983238Y-41472121D01*
X247983238Y-41813207D02*
X246789438Y-41813207D01*
X246789438Y-41813207D02*
X246959981Y-41699511D01*
X246959981Y-41699511D02*
X247073676Y-41585816D01*
X247073676Y-41585816D02*
X247130524Y-41472121D01*
X249026469Y-33521461D02*
X249026469Y-34715261D01*
X249026469Y-34715261D02*
X249708640Y-33521461D01*
X249708640Y-33521461D02*
X249708640Y-34715261D01*
X248969621Y-39856947D02*
X249538097Y-39856947D01*
X248855926Y-39515861D02*
X249253859Y-40709661D01*
X249253859Y-40709661D02*
X249651792Y-39515861D01*
X241988838Y-42154292D02*
X241988838Y-41472121D01*
X241988838Y-41813207D02*
X240795038Y-41813207D01*
X240795038Y-41813207D02*
X240965581Y-41699511D01*
X240965581Y-41699511D02*
X241079276Y-41585816D01*
X241079276Y-41585816D02*
X241136124Y-41472121D01*
X240795038Y-42552225D02*
X240795038Y-43291244D01*
X240795038Y-43291244D02*
X241249819Y-42893311D01*
X241249819Y-42893311D02*
X241249819Y-43063854D01*
X241249819Y-43063854D02*
X241306667Y-43177549D01*
X241306667Y-43177549D02*
X241363514Y-43234397D01*
X241363514Y-43234397D02*
X241477210Y-43291244D01*
X241477210Y-43291244D02*
X241761448Y-43291244D01*
X241761448Y-43291244D02*
X241875143Y-43234397D01*
X241875143Y-43234397D02*
X241931991Y-43177549D01*
X241931991Y-43177549D02*
X241988838Y-43063854D01*
X241988838Y-43063854D02*
X241988838Y-42722768D01*
X241988838Y-42722768D02*
X241931991Y-42609073D01*
X241931991Y-42609073D02*
X241875143Y-42552225D01*
X43032638Y-76816892D02*
X43032638Y-76134721D01*
X43032638Y-76475807D02*
X41838838Y-76475807D01*
X41838838Y-76475807D02*
X42009381Y-76362111D01*
X42009381Y-76362111D02*
X42123076Y-76248416D01*
X42123076Y-76248416D02*
X42179924Y-76134721D01*
X37825638Y-76760045D02*
X37825638Y-76191569D01*
X37825638Y-76191569D02*
X38394114Y-76134721D01*
X38394114Y-76134721D02*
X38337267Y-76191569D01*
X38337267Y-76191569D02*
X38280419Y-76305264D01*
X38280419Y-76305264D02*
X38280419Y-76589502D01*
X38280419Y-76589502D02*
X38337267Y-76703197D01*
X38337267Y-76703197D02*
X38394114Y-76760045D01*
X38394114Y-76760045D02*
X38507810Y-76816892D01*
X38507810Y-76816892D02*
X38792048Y-76816892D01*
X38792048Y-76816892D02*
X38905743Y-76760045D01*
X38905743Y-76760045D02*
X38962591Y-76703197D01*
X38962591Y-76703197D02*
X39019438Y-76589502D01*
X39019438Y-76589502D02*
X39019438Y-76305264D01*
X39019438Y-76305264D02*
X38962591Y-76191569D01*
X38962591Y-76191569D02*
X38905743Y-76134721D01*
X44558469Y-69317385D02*
X44956402Y-69317385D01*
X45126945Y-68692061D02*
X44558469Y-68692061D01*
X44558469Y-68692061D02*
X44558469Y-69885861D01*
X44558469Y-69885861D02*
X45126945Y-69885861D01*
X44501621Y-73046347D02*
X45070097Y-73046347D01*
X44387926Y-72705261D02*
X44785859Y-73899061D01*
X44785859Y-73899061D02*
X45183792Y-72705261D01*
M02*
