%TF.GenerationSoftware,KiCad,Pcbnew,9.0.7*%
%TF.CreationDate,2026-03-29T09:04:21+05:00*%
%TF.ProjectId,RADAR_Main_Board,52414441-525f-44d6-9169-6e5f426f6172,rev?*%
%TF.SameCoordinates,Original*%
%TF.FileFunction,Other,User*%
%FSLAX46Y46*%
G04 Gerber Fmt 4.6, Leading zero omitted, Abs format (unit mm)*
G04 Created by KiCad (PCBNEW 9.0.7) date 2026-03-29 09:04:21*
%MOMM*%
%LPD*%
G01*
G04 APERTURE LIST*
%ADD10C,0.050800*%
%ADD11C,0.050000*%
G04 APERTURE END LIST*
D10*
%TO.C,L7*%
X80378100Y-38340600D02*
X81344100Y-38340600D01*
X80378100Y-41286600D02*
X80378100Y-38340600D01*
X81344100Y-38340600D02*
X81344100Y-41286600D01*
X81344100Y-41286600D02*
X80378100Y-41286600D01*
%TO.C,C348*%
X167676003Y-208515038D02*
X168642003Y-208515038D01*
X167676003Y-211461038D02*
X167676003Y-208515038D01*
X168642003Y-208515038D02*
X168642003Y-211461038D01*
X168642003Y-211461038D02*
X167676003Y-211461038D01*
%TO.C,C321*%
X227148100Y36599400D02*
X228114100Y36599400D01*
X227148100Y33653400D02*
X227148100Y36599400D01*
X228114100Y36599400D02*
X228114100Y33653400D01*
X228114100Y33653400D02*
X227148100Y33653400D01*
%TO.C,C335*%
X115948100Y-116950600D02*
X116914100Y-116950600D01*
X115948100Y-119896600D02*
X115948100Y-116950600D01*
X116914100Y-116950600D02*
X116914100Y-119896600D01*
X116914100Y-119896600D02*
X115948100Y-119896600D01*
%TO.C,C330*%
X119098100Y-26790600D02*
X121064100Y-26790600D01*
X119098100Y-30736600D02*
X119098100Y-26790600D01*
X121064100Y-26790600D02*
X121064100Y-30736600D01*
X121064100Y-30736600D02*
X119098100Y-30736600D01*
%TO.C,C159*%
X17478100Y-323370600D02*
X22424100Y-323370600D01*
X17478100Y-325336600D02*
X17478100Y-323370600D01*
X22424100Y-323370600D02*
X22424100Y-325336600D01*
X22424100Y-325336600D02*
X17478100Y-325336600D01*
%TO.C,C338*%
X174598100Y-214890600D02*
X176564100Y-214890600D01*
X174598100Y-218836600D02*
X174598100Y-214890600D01*
X176564100Y-214890600D02*
X176564100Y-218836600D01*
X176564100Y-218836600D02*
X174598100Y-218836600D01*
%TO.C,C347*%
X187995812Y-208318735D02*
X188961812Y-208318735D01*
X187995812Y-211264735D02*
X187995812Y-208318735D01*
X188961812Y-208318735D02*
X188961812Y-211264735D01*
X188961812Y-211264735D02*
X187995812Y-211264735D01*
%TO.C,C259*%
X120503365Y-223357766D02*
X121469365Y-223357766D01*
X120503365Y-226303766D02*
X120503365Y-223357766D01*
X121469365Y-223357766D02*
X121469365Y-226303766D01*
X121469365Y-226303766D02*
X120503365Y-226303766D01*
%TO.C,C311*%
X29248100Y-96390600D02*
X31214100Y-96390600D01*
X29248100Y-101336600D02*
X29248100Y-96390600D01*
X31214100Y-96390600D02*
X31214100Y-101336600D01*
X31214100Y-101336600D02*
X29248100Y-101336600D01*
%TO.C,C316*%
X188948100Y36159400D02*
X190914100Y36159400D01*
X188948100Y32213400D02*
X188948100Y36159400D01*
X190914100Y36159400D02*
X190914100Y32213400D01*
X190914100Y32213400D02*
X188948100Y32213400D01*
%TO.C,C186*%
X23728100Y-329270600D02*
X26674100Y-329270600D01*
X23728100Y-330236600D02*
X23728100Y-329270600D01*
X26674100Y-329270600D02*
X26674100Y-330236600D01*
X26674100Y-330236600D02*
X23728100Y-330236600D01*
%TO.C,L19*%
X17478100Y-315370600D02*
X25424100Y-315370600D01*
X17478100Y-321336600D02*
X17478100Y-315370600D01*
X25424100Y-315370600D02*
X25424100Y-321336600D01*
X25424100Y-321336600D02*
X17478100Y-321336600D01*
%TO.C,L17*%
X45538100Y-214540600D02*
X53484100Y-214540600D01*
X45538100Y-220506600D02*
X45538100Y-214540600D01*
X53484100Y-214540600D02*
X53484100Y-220506600D01*
X53484100Y-220506600D02*
X45538100Y-220506600D01*
%TO.C,C78*%
X128008100Y-214990600D02*
X128974100Y-214990600D01*
X128008100Y-217936600D02*
X128008100Y-214990600D01*
X128974100Y-214990600D02*
X128974100Y-217936600D01*
X128974100Y-217936600D02*
X128008100Y-217936600D01*
%TO.C,C76*%
X62193100Y-215756032D02*
X63159100Y-215756032D01*
X62193100Y-218702032D02*
X62193100Y-215756032D01*
X63159100Y-215756032D02*
X63159100Y-218702032D01*
X63159100Y-218702032D02*
X62193100Y-218702032D01*
%TO.C,L15*%
X122063100Y-25875600D02*
X130009100Y-25875600D01*
X122063100Y-31841600D02*
X122063100Y-25875600D01*
X130009100Y-25875600D02*
X130009100Y-31841600D01*
X130009100Y-31841600D02*
X122063100Y-31841600D01*
%TO.C,C260*%
X117619087Y-208179444D02*
X118585087Y-208179444D01*
X117619087Y-211125444D02*
X117619087Y-208179444D01*
X118585087Y-208179444D02*
X118585087Y-211125444D01*
X118585087Y-211125444D02*
X117619087Y-211125444D01*
%TO.C,C320*%
X225258100Y36589400D02*
X226224100Y36589400D01*
X225258100Y33643400D02*
X225258100Y36589400D01*
X226224100Y36589400D02*
X226224100Y33643400D01*
X226224100Y33643400D02*
X225258100Y33643400D01*
%TO.C,C341*%
X211253868Y-223792329D02*
X214199868Y-223792329D01*
X211253868Y-224758329D02*
X211253868Y-223792329D01*
X214199868Y-223792329D02*
X214199868Y-224758329D01*
X214199868Y-224758329D02*
X211253868Y-224758329D01*
%TO.C,C340*%
X210443184Y-221050857D02*
X214389184Y-221050857D01*
X210443184Y-223016857D02*
X210443184Y-221050857D01*
X214389184Y-221050857D02*
X214389184Y-223016857D01*
X214389184Y-223016857D02*
X210443184Y-223016857D01*
%TO.C,C266*%
X180808100Y-223620600D02*
X181774100Y-223620600D01*
X180808100Y-226566600D02*
X180808100Y-223620600D01*
X181774100Y-223620600D02*
X181774100Y-226566600D01*
X181774100Y-226566600D02*
X180808100Y-226566600D01*
%TO.C,C344*%
X137975231Y-208294854D02*
X138941231Y-208294854D01*
X137975231Y-211240854D02*
X137975231Y-208294854D01*
X138941231Y-208294854D02*
X138941231Y-211240854D01*
X138941231Y-211240854D02*
X137975231Y-211240854D01*
%TO.C,C331*%
X117523009Y-26882225D02*
X118489009Y-26882225D01*
X117523009Y-29828225D02*
X117523009Y-26882225D01*
X118489009Y-26882225D02*
X118489009Y-29828225D01*
X118489009Y-29828225D02*
X117523009Y-29828225D01*
%TO.C,R38*%
X73178100Y-103173600D02*
X74144100Y-103173600D01*
X73178100Y-105173600D02*
X73178100Y-103173600D01*
X74144100Y-103173600D02*
X74144100Y-105173600D01*
X74144100Y-105173600D02*
X73178100Y-105173600D01*
%TO.C,C350*%
X149876140Y-223470272D02*
X150842140Y-223470272D01*
X149876140Y-226416272D02*
X149876140Y-223470272D01*
X150842140Y-223470272D02*
X150842140Y-226416272D01*
X150842140Y-226416272D02*
X149876140Y-226416272D01*
%TO.C,C324*%
X223608100Y-174890600D02*
X224574100Y-174890600D01*
X223608100Y-177836600D02*
X223608100Y-174890600D01*
X224574100Y-174890600D02*
X224574100Y-177836600D01*
X224574100Y-177836600D02*
X223608100Y-177836600D01*
%TO.C,C349*%
X170638100Y-223610600D02*
X171604100Y-223610600D01*
X170638100Y-226556600D02*
X170638100Y-223610600D01*
X171604100Y-223610600D02*
X171604100Y-226556600D01*
X171604100Y-226556600D02*
X170638100Y-226556600D01*
%TO.C,C325*%
X225648100Y-174850600D02*
X226614100Y-174850600D01*
X225648100Y-177796600D02*
X225648100Y-174850600D01*
X226614100Y-174850600D02*
X226614100Y-177796600D01*
X226614100Y-177796600D02*
X225648100Y-177796600D01*
%TO.C,L12*%
X212888100Y37209400D02*
X220834100Y37209400D01*
X212888100Y31243400D02*
X212888100Y37209400D01*
X220834100Y37209400D02*
X220834100Y31243400D01*
X220834100Y31243400D02*
X212888100Y31243400D01*
%TO.C,L5*%
X106362500Y-145500257D02*
X109308500Y-145500257D01*
X106362500Y-146466257D02*
X106362500Y-145500257D01*
X109308500Y-145500257D02*
X109308500Y-146466257D01*
X109308500Y-146466257D02*
X106362500Y-146466257D01*
%TO.C,L1*%
X32218100Y-94290600D02*
X40164100Y-94290600D01*
X32218100Y-100256600D02*
X32218100Y-94290600D01*
X40164100Y-94290600D02*
X40164100Y-100256600D01*
X40164100Y-100256600D02*
X32218100Y-100256600D01*
%TO.C,C332*%
X115804578Y-26882225D02*
X116770578Y-26882225D01*
X115804578Y-29828225D02*
X115804578Y-26882225D01*
X116770578Y-26882225D02*
X116770578Y-29828225D01*
X116770578Y-29828225D02*
X115804578Y-29828225D01*
%TO.C,L16*%
X121628100Y-115000600D02*
X129574100Y-115000600D01*
X121628100Y-120966600D02*
X121628100Y-115000600D01*
X129574100Y-115000600D02*
X129574100Y-120966600D01*
X129574100Y-120966600D02*
X121628100Y-120966600D01*
%TO.C,C327*%
X184708100Y-175420600D02*
X185674100Y-175420600D01*
X184708100Y-178366600D02*
X184708100Y-175420600D01*
X185674100Y-175420600D02*
X185674100Y-178366600D01*
X185674100Y-178366600D02*
X184708100Y-178366600D01*
%TO.C,C322*%
X200498100Y-174840600D02*
X202464100Y-174840600D01*
X200498100Y-179786600D02*
X200498100Y-174840600D01*
X202464100Y-174840600D02*
X202464100Y-179786600D01*
X202464100Y-179786600D02*
X200498100Y-179786600D01*
%TO.C,C351*%
X177842809Y-208418735D02*
X178808809Y-208418735D01*
X177842809Y-211364735D02*
X177842809Y-208418735D01*
X178808809Y-208418735D02*
X178808809Y-211364735D01*
X178808809Y-211364735D02*
X177842809Y-211364735D01*
%TO.C,C262*%
X107716637Y-208262982D02*
X108682637Y-208262982D01*
X107716637Y-211208982D02*
X107716637Y-208262982D01*
X108682637Y-208262982D02*
X108682637Y-211208982D01*
X108682637Y-211208982D02*
X107716637Y-211208982D01*
%TO.C,L11*%
X192378100Y37199400D02*
X200324100Y37199400D01*
X192378100Y31233400D02*
X192378100Y37199400D01*
X200324100Y37199400D02*
X200324100Y31233400D01*
X200324100Y31233400D02*
X192378100Y31233400D01*
%TO.C,C58*%
X73118100Y-118560600D02*
X74084100Y-118560600D01*
X73118100Y-121506600D02*
X73118100Y-118560600D01*
X74084100Y-118560600D02*
X74084100Y-121506600D01*
X74084100Y-121506600D02*
X73118100Y-121506600D01*
%TO.C,R13*%
X75808100Y-103303600D02*
X76774100Y-103303600D01*
X75808100Y-105303600D02*
X75808100Y-103303600D01*
X76774100Y-103303600D02*
X76774100Y-105303600D01*
X76774100Y-105303600D02*
X75808100Y-105303600D01*
%TO.C,C258*%
X130508100Y-223470600D02*
X131474100Y-223470600D01*
X130508100Y-226416600D02*
X130508100Y-223470600D01*
X131474100Y-223470600D02*
X131474100Y-226416600D01*
X131474100Y-226416600D02*
X130508100Y-226416600D01*
%TO.C,C342*%
X110236753Y-223394925D02*
X111202753Y-223394925D01*
X110236753Y-226340925D02*
X110236753Y-223394925D01*
X111202753Y-223394925D02*
X111202753Y-226340925D01*
X111202753Y-226340925D02*
X110236753Y-226340925D01*
%TO.C,C283*%
X24128100Y-229820600D02*
X29074100Y-229820600D01*
X24128100Y-231786600D02*
X24128100Y-229820600D01*
X29074100Y-229820600D02*
X29074100Y-231786600D01*
X29074100Y-231786600D02*
X24128100Y-231786600D01*
%TO.C,C318*%
X185398100Y36199400D02*
X186364100Y36199400D01*
X185398100Y33253400D02*
X185398100Y36199400D01*
X186364100Y36199400D02*
X186364100Y33253400D01*
X186364100Y33253400D02*
X185398100Y33253400D01*
%TO.C,C314*%
X45167318Y-96603157D02*
X46133318Y-96603157D01*
X45167318Y-99549157D02*
X45167318Y-96603157D01*
X46133318Y-96603157D02*
X46133318Y-99549157D01*
X46133318Y-99549157D02*
X45167318Y-99549157D01*
%TO.C,R1*%
X77248100Y-103293600D02*
X78214100Y-103293600D01*
X77248100Y-105293600D02*
X77248100Y-103293600D01*
X78214100Y-103293600D02*
X78214100Y-105293600D01*
X78214100Y-105293600D02*
X77248100Y-105293600D01*
%TO.C,C3*%
X75638100Y-101930600D02*
X78584100Y-101930600D01*
X75638100Y-102896600D02*
X75638100Y-101930600D01*
X78584100Y-101930600D02*
X78584100Y-102896600D01*
X78584100Y-102896600D02*
X75638100Y-102896600D01*
%TO.C,C334*%
X117208100Y-116930600D02*
X118174100Y-116930600D01*
X117208100Y-119876600D02*
X117208100Y-116930600D01*
X118174100Y-116930600D02*
X118174100Y-119876600D01*
X118174100Y-119876600D02*
X117208100Y-119876600D01*
%TO.C,C264*%
X157419312Y-208533529D02*
X158385312Y-208533529D01*
X157419312Y-211479529D02*
X157419312Y-208533529D01*
X158385312Y-208533529D02*
X158385312Y-211479529D01*
X158385312Y-211479529D02*
X157419312Y-211479529D01*
%TO.C,L14*%
X190048100Y-172200600D02*
X197994100Y-172200600D01*
X190048100Y-178166600D02*
X190048100Y-172200600D01*
X197994100Y-172200600D02*
X197994100Y-178166600D01*
X197994100Y-178166600D02*
X190048100Y-178166600D01*
%TO.C,C313*%
X43458100Y-96600600D02*
X44424100Y-96600600D01*
X43458100Y-99546600D02*
X43458100Y-96600600D01*
X44424100Y-96600600D02*
X44424100Y-99546600D01*
X44424100Y-99546600D02*
X43458100Y-99546600D01*
%TO.C,C57*%
X80358100Y-118580600D02*
X81324100Y-118580600D01*
X80358100Y-121526600D02*
X80358100Y-118580600D01*
X81324100Y-118580600D02*
X81324100Y-121526600D01*
X81324100Y-121526600D02*
X80358100Y-121526600D01*
%TO.C,C343*%
X100043096Y-223270607D02*
X101009096Y-223270607D01*
X100043096Y-226216607D02*
X100043096Y-223270607D01*
X101009096Y-223270607D02*
X101009096Y-226216607D01*
X101009096Y-226216607D02*
X100043096Y-226216607D01*
%TO.C,L6*%
X85453100Y-38305600D02*
X86419100Y-38305600D01*
X85453100Y-41251600D02*
X85453100Y-38305600D01*
X86419100Y-38305600D02*
X86419100Y-41251600D01*
X86419100Y-41251600D02*
X85453100Y-41251600D01*
%TO.C,C317*%
X187208100Y36219400D02*
X188174100Y36219400D01*
X187208100Y33273400D02*
X187208100Y36219400D01*
X188174100Y36219400D02*
X188174100Y33273400D01*
X188174100Y33273400D02*
X187208100Y33273400D01*
%TO.C,C323*%
X220598100Y-174790600D02*
X222564100Y-174790600D01*
X220598100Y-178736600D02*
X220598100Y-174790600D01*
X222564100Y-174790600D02*
X222564100Y-178736600D01*
X222564100Y-178736600D02*
X220598100Y-178736600D01*
%TO.C,C184*%
X23228100Y-323370600D02*
X27174100Y-323370600D01*
X23228100Y-325336600D02*
X23228100Y-323370600D01*
X27174100Y-323370600D02*
X27174100Y-325336600D01*
X27174100Y-325336600D02*
X23228100Y-325336600D01*
%TO.C,L21*%
X129298100Y-187000600D02*
X137244100Y-187000600D01*
X129298100Y-192966600D02*
X129298100Y-187000600D01*
X137244100Y-187000600D02*
X137244100Y-192966600D01*
X137244100Y-192966600D02*
X129298100Y-192966600D01*
%TO.C,C337*%
X57708100Y-215810600D02*
X58674100Y-215810600D01*
X57708100Y-218756600D02*
X57708100Y-215810600D01*
X58674100Y-215810600D02*
X58674100Y-218756600D01*
X58674100Y-218756600D02*
X57708100Y-218756600D01*
D11*
%TO.C,U42*%
X58681100Y-62223600D02*
X77681100Y-62223600D01*
X58681100Y-81223600D02*
X58681100Y-62223600D01*
X58681100Y-81223600D02*
X77681100Y-81223600D01*
X77681100Y-81223600D02*
X77681100Y-62223600D01*
D10*
%TO.C,C339*%
X177693565Y-214964700D02*
X178659565Y-214964700D01*
X177693565Y-217910700D02*
X177693565Y-214964700D01*
X178659565Y-214964700D02*
X178659565Y-217910700D01*
X178659565Y-217910700D02*
X177693565Y-217910700D01*
%TO.C,C345*%
X127554862Y-208194854D02*
X128520862Y-208194854D01*
X127554862Y-211140854D02*
X127554862Y-208194854D01*
X128520862Y-208194854D02*
X128520862Y-211140854D01*
X128520862Y-211140854D02*
X127554862Y-211140854D01*
%TO.C,C77*%
X124898100Y-214940600D02*
X126864100Y-214940600D01*
X124898100Y-218886600D02*
X124898100Y-214940600D01*
X126864100Y-214940600D02*
X126864100Y-218886600D01*
X126864100Y-218886600D02*
X124898100Y-218886600D01*
%TO.C,L23*%
X141368100Y-187040600D02*
X149314100Y-187040600D01*
X141368100Y-193006600D02*
X141368100Y-187040600D01*
X149314100Y-187040600D02*
X149314100Y-193006600D01*
X149314100Y-193006600D02*
X141368100Y-193006600D01*
%TO.C,C312*%
X40748100Y-96540600D02*
X42714100Y-96540600D01*
X40748100Y-100486600D02*
X40748100Y-96540600D01*
X42714100Y-96540600D02*
X42714100Y-100486600D01*
X42714100Y-100486600D02*
X40748100Y-100486600D01*
%TO.C,C328*%
X182948100Y-175450600D02*
X183914100Y-175450600D01*
X182948100Y-178396600D02*
X182948100Y-175450600D01*
X183914100Y-175450600D02*
X183914100Y-178396600D01*
X183914100Y-178396600D02*
X182948100Y-178396600D01*
%TO.C,C75*%
X59498100Y-215590600D02*
X61464100Y-215590600D01*
X59498100Y-219536600D02*
X59498100Y-215590600D01*
X61464100Y-215590600D02*
X61464100Y-219536600D01*
X61464100Y-219536600D02*
X59498100Y-219536600D01*
%TO.C,C346*%
X160595325Y-223520272D02*
X161561325Y-223520272D01*
X160595325Y-226466272D02*
X160595325Y-223520272D01*
X161561325Y-223520272D02*
X161561325Y-226466272D01*
X161561325Y-226466272D02*
X160595325Y-226466272D01*
%TO.C,C336*%
X54998100Y-215640600D02*
X56964100Y-215640600D01*
X54998100Y-219586600D02*
X54998100Y-215640600D01*
X56964100Y-215640600D02*
X56964100Y-219586600D01*
X56964100Y-219586600D02*
X54998100Y-219586600D01*
%TO.C,C185*%
X17478100Y-329270600D02*
X20424100Y-329270600D01*
X17478100Y-330236600D02*
X17478100Y-329270600D01*
X20424100Y-329270600D02*
X20424100Y-330236600D01*
X20424100Y-330236600D02*
X17478100Y-330236600D01*
%TO.C,C326*%
X186548100Y-175290600D02*
X188514100Y-175290600D01*
X186548100Y-179236600D02*
X186548100Y-175290600D01*
X188514100Y-175290600D02*
X188514100Y-179236600D01*
X188514100Y-179236600D02*
X186548100Y-179236600D01*
%TO.C,C329*%
X27298100Y-239890600D02*
X29264100Y-239890600D01*
X27298100Y-244836600D02*
X27298100Y-239890600D01*
X29264100Y-239890600D02*
X29264100Y-244836600D01*
X29264100Y-244836600D02*
X27298100Y-244836600D01*
%TO.C,R37*%
X71311100Y-101530600D02*
X73311100Y-101530600D01*
X71311100Y-102496600D02*
X71311100Y-101530600D01*
X73311100Y-101530600D02*
X73311100Y-102496600D01*
X73311100Y-102496600D02*
X71311100Y-102496600D01*
%TO.C,C315*%
X209438100Y34129400D02*
X211404100Y34129400D01*
X209438100Y29183400D02*
X209438100Y34129400D01*
X211404100Y34129400D02*
X211404100Y29183400D01*
X211404100Y29183400D02*
X209438100Y29183400D01*
%TO.C,R36*%
X71331100Y-100170600D02*
X73331100Y-100170600D01*
X71331100Y-101136600D02*
X71331100Y-100170600D01*
X73331100Y-100170600D02*
X73331100Y-101136600D01*
X73331100Y-101136600D02*
X71331100Y-101136600D01*
%TO.C,C49*%
X72638100Y-110140600D02*
X73604100Y-110140600D01*
X72638100Y-113086600D02*
X72638100Y-110140600D01*
X73604100Y-110140600D02*
X73604100Y-113086600D01*
X73604100Y-113086600D02*
X72638100Y-113086600D01*
%TO.C,C319*%
X222348100Y36509400D02*
X224314100Y36509400D01*
X222348100Y32563400D02*
X222348100Y36509400D01*
X224314100Y36509400D02*
X224314100Y32563400D01*
X224314100Y32563400D02*
X222348100Y32563400D01*
%TO.C,C48*%
X80568100Y-110190600D02*
X81534100Y-110190600D01*
X80568100Y-113136600D02*
X80568100Y-110190600D01*
X81534100Y-110190600D02*
X81534100Y-113136600D01*
X81534100Y-113136600D02*
X80568100Y-113136600D01*
%TO.C,C333*%
X118498100Y-116990600D02*
X120464100Y-116990600D01*
X118498100Y-120936600D02*
X118498100Y-116990600D01*
X120464100Y-116990600D02*
X120464100Y-120936600D01*
X120464100Y-120936600D02*
X118498100Y-120936600D01*
%TO.C,L18*%
X134648100Y-245540600D02*
X142594100Y-245540600D01*
X134648100Y-251506600D02*
X134648100Y-245540600D01*
X142594100Y-245540600D02*
X142594100Y-251506600D01*
X142594100Y-251506600D02*
X134648100Y-251506600D01*
%TO.C,L13*%
X211498100Y-172790600D02*
X219444100Y-172790600D01*
X211498100Y-178756600D02*
X211498100Y-172790600D01*
X219444100Y-172790600D02*
X219444100Y-178756600D01*
X219444100Y-178756600D02*
X211498100Y-178756600D01*
%TD*%
M02*
